<?xml version="1.0" encoding="UTF-8" standalone="no"?>
<svg
   xmlns:dc="http://purl.org/dc/elements/1.1/"
   xmlns:cc="http://creativecommons.org/ns#"
   xmlns:rdf="http://www.w3.org/1999/02/22-rdf-syntax-ns#"
   xmlns:svg="http://www.w3.org/2000/svg"
   xmlns="http://www.w3.org/2000/svg"
   xmlns:sodipodi="http://sodipodi.sourceforge.net/DTD/sodipodi-0.dtd"
   xmlns:inkscape="http://www.inkscape.org/namespaces/inkscape"
   height="100px"
   width="100px"
   fill="#000000"
   version="1.1"
   x="0px"
   y="0px"
   viewBox="0 0 100 100"
   enable-background="new 0 0 100 100"
   xml:space="preserve"
   id="svg106"
   sodipodi:docname="Noun_spore_153131.svg"
   inkscape:version="0.92.3 (2405546, 2018-03-11)"><metadata
     id="metadata112"><rdf:RDF><cc:Work
         rdf:about=""><dc:format>image/svg+xml</dc:format><dc:type
           rdf:resource="http://purl.org/dc/dcmitype/StillImage" /></cc:Work></rdf:RDF></metadata><defs
     id="defs110" /><sodipodi:namedview
     pagecolor="#ffffff"
     bordercolor="#666666"
     borderopacity="1"
     objecttolerance="10"
     gridtolerance="10"
     guidetolerance="10"
     inkscape:pageopacity="0"
     inkscape:pageshadow="2"
     inkscape:window-width="1920"
     inkscape:window-height="962"
     id="namedview108"
     showgrid="false"
     inkscape:zoom="13.350176"
     inkscape:cx="50"
     inkscape:cy="23.034063"
     inkscape:window-x="0"
     inkscape:window-y="27"
     inkscape:window-maximized="1"
     inkscape:current-layer="g102" /><g
     id="g104"><g
       id="g102"><rect
         x="54.6"
         y="9.8"
         transform="matrix(0.9667 0.256 -0.256 0.9667 6.4534 -14.2838)"
         fill="#000000"
         width="7"
         height="15.6"
         id="rect2" /><g
         id="g8"><path
           d="M38.4,4c1.4,0,2.6,0.6,3.5,1.5s1.5,2.2,1.5,3.5s-0.6,2.6-1.5,3.5S39.8,14,38.4,14s-2.6-0.6-3.5-1.5     c-0.9-0.9-1.5-2.2-1.5-3.5s0.6-2.6,1.5-3.5C35.7,4.6,37,4,38.4,4z"
           id="path4" /><path
           fill="#000000"
           d="M38.4,14.5c-1.5,0-2.9-0.6-3.9-1.6s-1.6-2.4-1.6-3.9s0.6-2.9,1.6-3.9s2.4-1.6,3.9-1.6s2.9,0.6,3.9,1.6     s1.6,2.4,1.6,3.9s-0.6,2.9-1.6,3.9S39.8,14.5,38.4,14.5z M38.4,4.5c-1.2,0-2.3,0.5-3.2,1.3c-0.8,0.9-1.3,2-1.3,3.2     s0.5,2.3,1.3,3.2c0.9,0.8,2,1.3,3.2,1.3s2.3-0.5,3.2-1.3c0.8-0.9,1.3-2,1.3-3.2s-0.5-2.3-1.3-3.2C40.7,5,39.6,4.5,38.4,4.5z"
           id="path6" /></g><path
         fill="#000000"
         d="M49.9,78.7c-7.6,0-14.8-3-20.2-8.3c-5.4-5.4-8.3-12.5-8.3-20.2c0-7.6,3-14.8,8.3-20.2    c5.4-5.4,12.5-8.3,20.2-8.3s14.8,3,20.2,8.3c5.4,5.4,8.3,12.5,8.3,20.2c0,7.6-3,14.8-8.3,20.2C64.7,75.7,57.5,78.7,49.9,78.7z     M49.9,28.7c-5.7,0-11.1,2.2-15.2,6.3c-4.1,4.1-6.3,9.5-6.3,15.2c0,5.7,2.2,11.1,6.3,15.2c4.1,4.1,9.5,6.3,15.2,6.3    c5.7,0,11.1-2.2,15.2-6.3c4.1-4.1,6.3-9.5,6.3-15.2c0-5.7-2.2-11.1-6.3-15.2C61,30.9,55.6,28.7,49.9,28.7z"
         id="path10" /><rect
         x="17.7"
         y="22.9"
         transform="matrix(0.7071 0.7071 -0.7071 0.7071 26.1158 -10.349)"
         fill="#000000"
         width="15.7"
         height="7"
         id="rect12" /><rect
         x="32.8"
         y="14.1"
         transform="matrix(0.2621 0.965 -0.965 0.2621 47.0304 -26.205)"
         fill="#000000"
         width="15.6"
         height="7"
         id="rect14" /><rect
         x="69.7"
         y="18.6"
         transform="matrix(0.7135 0.7007 -0.7007 0.7135 39.4201 -43.7038)"
         fill="#000000"
         width="7"
         height="15.6"
         id="rect16" /><rect
         x="78.4"
         y="33.7"
         transform="matrix(0.2773 0.9608 -0.9608 0.2773 98.9741 -48.685)"
         fill="#000000"
         width="7"
         height="15.5"
         id="rect18" /><rect
         x="74.1"
         y="55.7"
         transform="matrix(0.9573 0.2891 -0.2891 0.9573 20.5977 -21.1387)"
         fill="#000000"
         width="15.6"
         height="7"
         id="rect20" /><rect
         x="65.5"
         y="70.4"
         transform="matrix(0.7136 0.7006 -0.7006 0.7136 72.7561 -30.0662)"
         fill="#000000"
         width="15.3"
         height="7"
         id="rect22" /><rect
         x="50.3"
         y="79.1"
         transform="matrix(0.2532 0.9674 -0.9674 0.2532 123.3045 5.5615)"
         fill="#000000"
         width="15.4"
         height="7"
         id="rect24" /><rect
         x="37.2"
         y="74.9"
         transform="matrix(0.9618 0.2737 -0.2737 0.9618 24.1074 -7.98)"
         fill="#000000"
         width="7"
         height="15"
         id="rect26" /><rect
         x="21.9"
         y="66.2"
         transform="matrix(0.6942 0.7198 -0.7198 0.6942 61.0868 4.3285)"
         fill="#000000"
         width="7"
         height="15.7"
         id="rect28" /><rect
         x="13.4"
         y="51.1"
         transform="matrix(0.2501 0.9682 -0.9682 0.2501 69.6143 27.8147)"
         fill="#000000"
         width="7"
         height="15.6"
         id="rect30" /><rect
         x="9"
         y="37.9"
         transform="matrix(0.9618 0.2739 -0.2739 0.9618 11.9973 -3.03)"
         fill="#000000"
         width="15.7"
         height="7"
         id="rect32" /><path
         stroke-miterlimit="10"
         d="m 57.7,60.9 c -1.6,0 -3.1,-0.6 -4.2,-1.8 -1.1,-1.1 -1.8,-2.6 -1.8,-4.2 0,-1.6 0.6,-3.1 1.8,-4.2 1.1,-1.1 2.6,-1.8 4.2,-1.8 1.6,0 3.1,0.6 4.2,1.8 1.1,1.1 1.8,2.6 1.8,4.2 0,1.6 -0.6,3.1 -1.8,4.2 -1.1,1.2 -2.6,1.8 -4.2,1.8 z"
         id="path34"
         style="fill:#339966;fill-opacity:1;stroke:none;stroke-width:2;stroke-miterlimit:10"
         inkscape:connector-curvature="0"
         sodipodi:nodetypes="scscscscs" /><g
         id="g40"><path
           d="M60,5c1.4,0,2.6,0.6,3.5,1.5C64.4,7.4,65,8.6,65,10s-0.6,2.6-1.5,3.5C62.6,14.4,61.4,15,60,15s-2.6-0.6-3.5-1.5     C55.6,12.6,55,11.4,55,10s0.6-2.6,1.5-3.5C57.4,5.6,58.6,5,60,5z"
           id="path36" /><path
           fill="#000000"
           d="M60,15.5c-1.5,0-2.9-0.6-3.9-1.6s-1.6-2.4-1.6-3.9s0.6-2.9,1.6-3.9s2.4-1.6,3.9-1.6s2.9,0.6,3.9,1.6     s1.6,2.4,1.6,3.9s-0.6,2.9-1.6,3.9S61.5,15.5,60,15.5z M60,5.5c-1.2,0-2.3,0.5-3.2,1.3c-0.8,0.9-1.3,2-1.3,3.2s0.5,2.3,1.3,3.2     c0.9,0.8,2,1.3,3.2,1.3s2.3-0.5,3.2-1.3c0.8-0.9,1.3-2,1.3-3.2S64,7.7,63.2,6.8C62.3,6,61.2,5.5,60,5.5z"
           id="path38" /></g><g
         id="g46"><path
           d="M78.4,15.8c1.4,0,2.6,0.6,3.5,1.5c0.9,0.9,1.5,2.2,1.5,3.5s-0.6,2.6-1.5,3.5c-0.9,0.9-2.2,1.5-3.5,1.5     c-1.4,0-2.6-0.6-3.5-1.5c-0.9-0.9-1.5-2.2-1.5-3.5s0.6-2.6,1.5-3.5C75.8,16.4,77,15.8,78.4,15.8z"
           id="path42" /><path
           fill="#000000"
           d="M78.4,26.3c-1.5,0-2.9-0.6-3.9-1.6s-1.6-2.4-1.6-3.9s0.6-2.9,1.6-3.9s2.4-1.6,3.9-1.6s2.9,0.6,3.9,1.6     s1.6,2.4,1.6,3.9s-0.6,2.9-1.6,3.9S79.9,26.3,78.4,26.3z M78.4,16.3c-1.2,0-2.3,0.5-3.2,1.3c-0.8,0.9-1.3,2-1.3,3.2     s0.5,2.3,1.3,3.2c0.9,0.8,2,1.3,3.2,1.3s2.3-0.5,3.2-1.3c0.8-0.9,1.3-2,1.3-3.2s-0.5-2.3-1.3-3.2C80.7,16.8,79.6,16.3,78.4,16.3z     "
           id="path44" /></g><g
         id="g52"><path
           d="M89.3,34.3c1.4,0,2.6,0.6,3.5,1.5c0.9,0.9,1.5,2.2,1.5,3.5s-0.6,2.6-1.5,3.5c-0.9,0.9-2.2,1.5-3.5,1.5     c-1.4,0-2.6-0.6-3.5-1.5c-0.9-0.9-1.5-2.2-1.5-3.5s0.6-2.6,1.5-3.5C86.7,34.9,87.9,34.3,89.3,34.3z"
           id="path48" /><path
           fill="#000000"
           d="M89.3,44.8c-1.5,0-2.9-0.6-3.9-1.6s-1.6-2.4-1.6-3.9s0.6-2.9,1.6-3.9s2.4-1.6,3.9-1.6s2.9,0.6,3.9,1.6     s1.6,2.4,1.6,3.9s-0.6,2.9-1.6,3.9S90.8,44.8,89.3,44.8z M89.3,34.8c-1.2,0-2.3,0.5-3.2,1.3c-0.8,0.9-1.3,2-1.3,3.2     s0.5,2.3,1.3,3.2c0.9,0.8,2,1.3,3.2,1.3s2.3-0.5,3.2-1.3c0.8-0.9,1.3-2,1.3-3.2s-0.5-2.3-1.3-3.2C91.6,35.3,90.5,34.8,89.3,34.8z     "
           id="path50" /></g><g
         id="g58"><path
           d="M89.3,56.8c1.4,0,2.6,0.6,3.5,1.5c0.9,0.9,1.5,2.2,1.5,3.5c0,1.4-0.6,2.6-1.5,3.5s-2.2,1.5-3.5,1.5     c-1.4,0-2.6-0.6-3.5-1.5s-1.5-2.2-1.5-3.5c0-1.4,0.6-2.6,1.5-3.5C86.7,57.4,87.9,56.8,89.3,56.8z"
           id="path54" /><path
           fill="#000000"
           d="M89.3,67.3c-1.5,0-2.9-0.6-3.9-1.6s-1.6-2.4-1.6-3.9s0.6-2.9,1.6-3.9s2.4-1.6,3.9-1.6s2.9,0.6,3.9,1.6     s1.6,2.4,1.6,3.9s-0.6,2.9-1.6,3.9S90.8,67.3,89.3,67.3z M89.3,57.3c-1.2,0-2.3,0.5-3.2,1.3c-0.8,0.9-1.3,2-1.3,3.2     s0.5,2.3,1.3,3.2c0.9,0.8,2,1.3,3.2,1.3s2.3-0.5,3.2-1.3c0.8-0.9,1.3-2,1.3-3.2s-0.5-2.3-1.3-3.2C91.6,57.8,90.5,57.3,89.3,57.3z     "
           id="path56" /></g><g
         id="g64"><path
           d="M78.4,73.7c1.4,0,2.6,0.6,3.5,1.5c0.9,0.9,1.5,2.2,1.5,3.5s-0.6,2.6-1.5,3.5c-0.9,0.9-2.2,1.5-3.5,1.5     c-1.4,0-2.6-0.6-3.5-1.5s-1.5-2.2-1.5-3.5s0.6-2.6,1.5-3.5S77,73.7,78.4,73.7z"
           id="path60" /><path
           fill="#000000"
           d="M78.4,84.2c-1.5,0-2.9-0.6-3.9-1.6s-1.6-2.4-1.6-3.9s0.6-2.9,1.6-3.9s2.4-1.6,3.9-1.6s2.9,0.6,3.9,1.6     s1.6,2.4,1.6,3.9s-0.6,2.9-1.6,3.9S79.9,84.2,78.4,84.2z M78.4,74.2c-1.2,0-2.3,0.5-3.2,1.3c-0.8,0.9-1.3,2-1.3,3.2     s0.5,2.3,1.3,3.2c0.9,0.8,2,1.3,3.2,1.3s2.3-0.5,3.2-1.3c0.8-0.9,1.3-2,1.3-3.2s-0.5-2.3-1.3-3.2C80.7,74.7,79.6,74.2,78.4,74.2z     "
           id="path62" /></g><g
         id="g70"><path
           d="M60,85.1c1.4,0,2.6,0.6,3.5,1.5c0.9,0.9,1.5,2.2,1.5,3.5s-0.6,2.6-1.5,3.5c-0.9,0.9-2.2,1.5-3.5,1.5s-2.6-0.6-3.5-1.5     c-0.9-0.9-1.5-2.2-1.5-3.5s0.6-2.6,1.5-3.5C57.4,85.7,58.6,85.1,60,85.1z"
           id="path66" /><path
           fill="#000000"
           d="M60,95.6c-1.5,0-2.9-0.6-3.9-1.6s-1.6-2.4-1.6-3.9s0.6-2.9,1.6-3.9s2.4-1.6,3.9-1.6s2.9,0.6,3.9,1.6     s1.6,2.4,1.6,3.9S64.9,93,63.9,94S61.5,95.6,60,95.6z M60,85.6c-1.2,0-2.3,0.5-3.2,1.3c-0.8,0.9-1.3,2-1.3,3.2s0.5,2.3,1.3,3.2     c0.9,0.8,2,1.3,3.2,1.3s2.3-0.5,3.2-1.3c0.8-0.9,1.3-2,1.3-3.2s-0.5-2.3-1.3-3.2C62.3,86.1,61.2,85.6,60,85.6z"
           id="path68" /></g><g
         id="g76"><path
           d="M38.4,84.2c1.4,0,2.6,0.6,3.5,1.5c0.9,0.9,1.5,2.2,1.5,3.5s-0.6,2.6-1.5,3.5c-0.9,0.9-2.2,1.5-3.5,1.5s-2.6-0.6-3.5-1.5     s-1.5-2.2-1.5-3.5s0.6-2.6,1.5-3.5S37,84.2,38.4,84.2z"
           id="path72" /><path
           fill="#000000"
           d="M38.4,94.7c-1.5,0-2.9-0.6-3.9-1.6s-1.6-2.4-1.6-3.9s0.6-2.9,1.6-3.9s2.4-1.6,3.9-1.6s2.9,0.6,3.9,1.6     s1.6,2.4,1.6,3.9s-0.6,2.9-1.6,3.9S39.8,94.7,38.4,94.7z M38.4,84.7c-1.2,0-2.3,0.5-3.2,1.3c-0.8,0.9-1.3,2-1.3,3.2     s0.5,2.3,1.3,3.2c0.9,0.8,2,1.3,3.2,1.3s2.3-0.5,3.2-1.3c0.8-0.9,1.3-2,1.3-3.2s-0.5-2.3-1.3-3.2C40.7,85.2,39.6,84.7,38.4,84.7z     "
           id="path74" /></g><g
         id="g82"><path
           d="M19.8,74.8c1.4,0,2.6,0.6,3.5,1.5c0.9,0.9,1.5,2.2,1.5,3.5s-0.6,2.6-1.5,3.5c-0.9,0.9-2.2,1.5-3.5,1.5s-2.6-0.6-3.5-1.5     c-0.9-0.9-1.5-2.2-1.5-3.5s0.6-2.6,1.5-3.5C17.2,75.4,18.4,74.8,19.8,74.8z"
           id="path78" /><path
           fill="#000000"
           d="M19.8,85.3c-1.5,0-2.9-0.6-3.9-1.6s-1.6-2.4-1.6-3.9s0.6-2.9,1.6-3.9s2.4-1.6,3.9-1.6s2.9,0.6,3.9,1.6     s1.6,2.4,1.6,3.9s-0.6,2.9-1.6,3.9S21.3,85.3,19.8,85.3z M19.8,75.3c-1.2,0-2.3,0.5-3.2,1.3c-0.8,0.9-1.3,2-1.3,3.2     s0.5,2.3,1.3,3.2c0.9,0.8,2,1.3,3.2,1.3s2.3-0.5,3.2-1.3c0.8-0.9,1.3-2,1.3-3.2s-0.5-2.3-1.3-3.2C22.1,75.8,21,75.3,19.8,75.3z"
           id="path80" /></g><g
         id="g88"><path
           d="M9.3,55.4c1.4,0,2.6,0.6,3.5,1.5c0.9,0.9,1.5,2.2,1.5,3.5s-0.6,2.6-1.5,3.5c-0.9,0.9-2.2,1.5-3.5,1.5s-2.6-0.6-3.5-1.5     c-0.9-0.9-1.5-2.2-1.5-3.5s0.6-2.6,1.5-3.5C6.7,56,7.9,55.4,9.3,55.4z"
           id="path84" /><path
           fill="#000000"
           d="M9.3,65.9c-1.5,0-2.9-0.6-3.9-1.6s-1.6-2.4-1.6-3.9s0.6-2.9,1.6-3.9s2.4-1.6,3.9-1.6s2.9,0.6,3.9,1.6     s1.6,2.4,1.6,3.9s-0.6,2.9-1.6,3.9S10.8,65.9,9.3,65.9z M9.3,55.9c-1.2,0-2.3,0.5-3.2,1.3c-0.8,0.9-1.3,2-1.3,3.2     s0.5,2.3,1.3,3.2c0.9,0.8,2,1.3,3.2,1.3s2.3-0.5,3.2-1.3c0.8-0.9,1.3-2,1.3-3.2s-0.5-2.3-1.3-3.2C11.6,56.4,10.5,55.9,9.3,55.9z"
           id="path86" /></g><g
         id="g94"><path
           d="M9.3,34.3c1.4,0,2.6,0.6,3.5,1.5c0.9,0.9,1.5,2.2,1.5,3.5s-0.6,2.6-1.5,3.5c-0.9,0.9-2.2,1.5-3.5,1.5s-2.6-0.6-3.5-1.5     c-0.9-0.9-1.5-2.2-1.5-3.5s0.6-2.6,1.5-3.5C6.7,34.9,7.9,34.3,9.3,34.3z"
           id="path90" /><path
           fill="#000000"
           d="M9.3,44.8c-1.5,0-2.9-0.6-3.9-1.6s-1.6-2.4-1.6-3.9s0.6-2.9,1.6-3.9s2.4-1.6,3.9-1.6s2.9,0.6,3.9,1.6     s1.6,2.4,1.6,3.9s-0.6,2.9-1.6,3.9S10.8,44.8,9.3,44.8z M9.3,34.8c-1.2,0-2.3,0.5-3.2,1.3c-0.8,0.9-1.3,2-1.3,3.2     s0.5,2.3,1.3,3.2c0.9,0.8,2,1.3,3.2,1.3s2.3-0.5,3.2-1.3c0.8-0.9,1.3-2,1.3-3.2s-0.5-2.3-1.3-3.2C11.6,35.3,10.5,34.8,9.3,34.8z"
           id="path92" /></g><g
         id="g100"><path
           d="M19.8,15.8c1.4,0,2.6,0.6,3.5,1.5c0.9,0.9,1.5,2.2,1.5,3.5s-0.6,2.6-1.5,3.5c-0.9,0.9-2.2,1.5-3.5,1.5s-2.6-0.6-3.5-1.5     c-0.9-0.9-1.5-2.2-1.5-3.5s0.6-2.6,1.5-3.5C17.2,16.4,18.4,15.8,19.8,15.8z"
           id="path96" /><path
           fill="#000000"
           d="M19.8,26.3c-1.5,0-2.9-0.6-3.9-1.6s-1.6-2.4-1.6-3.9s0.6-2.9,1.6-3.9s2.4-1.6,3.9-1.6s2.9,0.6,3.9,1.6     s1.6,2.4,1.6,3.9s-0.6,2.9-1.6,3.9S21.3,26.3,19.8,26.3z M19.8,16.3c-1.2,0-2.3,0.5-3.2,1.3c-0.8,0.9-1.3,2-1.3,3.2     s0.5,2.3,1.3,3.2c0.9,0.8,2,1.3,3.2,1.3s2.3-0.5,3.2-1.3c0.8-0.9,1.3-2,1.3-3.2s-0.5-2.3-1.3-3.2C22.1,16.8,21,16.3,19.8,16.3z"
           id="path98" /></g></g></g></svg>