<?xml version="1.0" encoding="UTF-8"?>
<svg version="1.1" viewBox="0 0 24 24" xmlns="http://www.w3.org/2000/svg">
 <title>OSM-Wikidata Map Framework</title>
 <g transform="translate(1.194 -.50746)" stroke-width=".023174">
  <path d="m12.802 2.9567a5.6119 5.7612 0 0 0-2.0859 1.7324v6.9805a5.6119 5.7612 0 0 0 2.0859 1.7324v-10.445zm-2.7812 2.9375a5.6119 5.7612 0 0 0-0.46875 2.2852 5.6119 5.7612 0 0 0 0.46875 2.2852v-4.5703z" fill="#900"/>
  <path d="m15.163 2.4176a5.6119 5.7612 0 0 0-0.27539 0.019531v11.484a5.6119 5.7612 0 0 0 0.27539 0.019531 5.6119 5.7612 0 0 0 0.41992-0.03125v-11.475a5.6119 5.7612 0 0 0-0.41992-0.017578zm-0.9707 0.097656a5.6119 5.7612 0 0 0-0.69531 0.16992v10.988a5.6119 5.7612 0 0 0 0.69531 0.16992v-11.328z" fill="#396"/>
  <path d="m16.279 2.5329v11.279a5.6119 5.7612 0 0 0 2.0859-0.91406v-9.4492a5.6119 5.7612 0 0 0-2.0859-0.91602zm2.7812 1.502v8.2715a5.6119 5.7612 0 0 0 0.69531-0.83203v-6.6035a5.6119 5.7612 0 0 0-0.69531-0.83594zm1.3906 2.209v3.8281a5.6119 5.7612 0 0 0 0.32617-1.8926 5.6119 5.7612 0 0 0-0.32617-1.9355z" fill="#069"/>
 </g>
 <path d="M23.947 6.615C23.609 4.4 22.429 2.518 20.615 1.3 17.313-.922 12.843-.233 10.348 2.881a7.621 7.621 0 0 0-1.671 4.773c0 .593.067 1.171.185 1.674.181.8.582 1.767 1.007 2.429l.218.343-1.746 1.744-.277-.14c-.242-.124-.319-.14-.621-.14-.65-.002-.464-.159-4.069 3.449C-.194 20.585.002 20.354.002 20.999c-.004.58.067.689 1.184 1.802.938.934 1.12 1.079 1.473 1.168l.001.001c.255.065.675.019.946-.106.212-.097.638-.505 3.402-3.261 3.586-3.582 3.433-3.398 3.43-4.049 0-.301-.015-.376-.14-.617l-.14-.28 1.746-1.744.343.218c1.338.858 3.087 1.294 4.662 1.163 1.107-.093 1.924-.32 2.885-.803l.04-.017a6.745 6.745 0 0 0 1.905-1.384l.001-.001a7.56 7.56 0 0 0 2.207-4.401c.071-.494.071-1.607 0-2.073zm-1.848 3.826-.017.038a6.456 6.456 0 0 1-4.592 3.472l.001.002c-.524.095-1.558.115-2.068.037l-.035-.004a6.422 6.422 0 0 1-3.867-2.129A6.353 6.353 0 0 1 9.945 7.66c0-1.393.447-2.682 1.193-3.713.309-.437 1.036-1.164 1.482-1.481a6.59 6.59 0 0 1 2.462-1.07c.606-.129 1.835-.142 2.417-.025.839.168 1.731.532 2.37.962 2.686 1.801 3.623 5.208 2.23 8.108z" fill="#404A5D"/>
 <path d="m2.712 5.459c0.013 0.019 0.994 0.315 2.183 0.654h5e-3l2.185 0.629c0.034 3e-3 -1.2-4.325-1.248-4.376-0.041-0.042-4.33-1.271-4.356-1.246-0.016 0.018 1.191 4.277 1.231 4.339zm19.368 9.203c-0.013-0.037-0.105 9e-3 -0.265 0.134-1.133 0.857-2.572 1.486-3.913 1.713l-0.156 0.028 0.044 0.156 2e-3 9e-3c0.016 0.065 0.036 0.127 0.057 0.178l-1e-3 2e-3c0.012 0.021 4.464-1.227 4.497-1.261 7e-3 -9e-3 -0.211-0.794-0.265-0.959zm-4.853 2.801c-0.172-0.084-4.396-1.262-4.419-1.236-0.05 0.053-1.284 4.421-1.259 4.449l-0.574-0.158c0.729 0.233 1.462 0.455 2.772 0.809l-1e-3 -1e-3c1.192 0.344 2.194 0.628 2.222 0.631 1.225-4.3757 0.11584-0.36562 1.259-4.494zm5.03-1.17c-0.017-0.019-4.299 1.177-4.346 1.211-0.019 0.014-1.248 4.294-1.248 4.347v1e-3c0 0.019 0.044 0.03 0.098 0.019 0.133-0.027 4.244-1.199 4.264-1.218 0.032-0.023 1.251-4.342 1.232-4.36zm-20.775-5.004c0.085 0.424 1.215 4.251 1.265 4.29l1e-3 1e-3c0.037 0.029 0.077 0.054 0.093 0.054l0.025-0.023c0.46-0.439 0.913-0.885 1.367-1.344 0.755-0.755 1.441-1.42 1.525-1.479 0.136-0.094 0.153-0.125 0.125-0.223-0.03-0.111-0.101-0.136-2.225-0.74-2.03-0.579-2.192-0.619-2.176-0.536zm8.423-9.967c-0.036 0.014-0.827 0.244-1.762 0.509l-1.695 0.483 0.078 0.28 0.52 1.806v2e-3c0.391 1.365 0.506 1.683 0.506 1.39l4e-3 -0.026c0.033-0.193 0.079-0.382 0.128-0.535l0.014-0.061c0.36616-1.3062 1.0329-2.5086 1.947-3.511 0.177-0.196 0.294-0.352 0.26-0.337zm0.438 1.567 6e-3 -7e-3 6e-3 -9e-3zm-2.946 5.841-0.421 1.476c-0.14495 0.51231-0.29329 1.0237-0.445 1.534l1e-3 -1e-3c-0.016 0.04 1e-3 0.05 0.059 0.034 0.045-0.014 0.397-0.115 0.787-0.224 0.387-0.111 0.712-0.206 0.72-0.212-0.051846-0.18438-0.11224-0.36624-0.181-0.545-0.20425-0.56631-0.35949-1.1491-0.464-1.742zm-3.828 2.472c1.188 0.34 2.199 0.622 2.249 0.625 0.08 4e-3 0.147-0.2 0.724-2.22 0.349-1.222 0.628-2.23 0.619-2.239-0.047-0.041-4.453-1.275-4.475-1.252-0.024 0.027-1.303 4.448-1.286 4.46 3e-3 3e-3 0.98 0.283 2.169 0.626zm5.87 9.877c0.788-0.223 1.446-0.42 1.466-0.436 0.039-0.039 1.271-4.335 1.248-4.36-9e-3 -0.01-0.099 6e-3 -0.202 0.034l-0.182 0.051-0.011 0.307c-5e-3 0.17-0.032 0.404-0.058 0.522-0.067 0.283-0.301 0.797-0.473 1.015-0.075 0.101-0.829 0.876-1.676 1.728l1e-3 2e-3 -1.539 1.542z" fill="#95ca6e"/>
</svg>
