<?xml version="1.0" encoding="UTF-8" standalone="no"?><svg xmlns="http://www.w3.org/2000/svg" xmlns:xlink="http://www.w3.org/1999/xlink" contentStyleType="text/css" height="1008px" preserveAspectRatio="none" style="width:1697px;height:1008px;background:#FFFFFF;" version="1.1" viewBox="0 0 1697 1008" width="1697px" zoomAndPan="magnify"><defs/><g><!--MD5=[5578876a42f8f4c41147be644f58dfed]
cluster oem--><g id="cluster_oem"><rect fill="none" height="895" rx="2.5" ry="2.5" style="stroke:#181818;stroke-width:1.0;" width="1499" x="16.94" y="107.5"/><path d="M260.94,107.5 L260.94,118.1094 L250.94,128.1094 L16.94,128.1094 " fill="none" style="stroke:#181818;stroke-width:1.0;"/><text fill="#000000" font-family="sans-serif" font-size="14" font-weight="bold" lengthAdjust="spacing" textLength="234" x="19.94" y="123.0332">OSM-Wikidata Map Framework v2</text></g><!--MD5=[84c872707aedbc31b57a5ef23a125eea]
cluster be--><g id="cluster_be"><polygon fill="none" points="41.94,220.5,51.94,210.5,1491.94,210.5,1491.94,913.5,1481.94,923.5,41.94,923.5,41.94,220.5" style="stroke:#181818;stroke-width:1.0;"/><line style="stroke:#181818;stroke-width:1.0;" x1="1481.94" x2="1491.94" y1="220.5" y2="210.5"/><line style="stroke:#181818;stroke-width:1.0;" x1="41.94" x2="1481.94" y1="220.5" y2="220.5"/><line style="stroke:#181818;stroke-width:1.0;" x1="1481.94" x2="1481.94" y1="220.5" y2="923.5"/><text fill="#000000" font-family="sans-serif" font-size="14" font-weight="bold" lengthAdjust="spacing" textLength="66" x="729.94" y="238.0332">Back-end</text></g><!--MD5=[975d7fda8cf98ff1a26ca528bf10cecf]
cluster App--><g id="cluster_App"><path d="M214.44,315.5 L242.44,315.5 A3.75,3.75 0 0 1 244.94,318 L251.94,339.1094 L1465.44,339.1094 A2.5,2.5 0 0 1 1467.94,341.6094 L1467.94,897 A2.5,2.5 0 0 1 1465.44,899.5 L214.44,899.5 A2.5,2.5 0 0 1 211.94,897 L211.94,318 A2.5,2.5 0 0 1 214.44,315.5 " fill="none" style="stroke:#000000;stroke-width:1.5;"/><line style="stroke:#000000;stroke-width:1.5;" x1="211.94" x2="251.94" y1="339.1094" y2="339.1094"/><text fill="#000000" font-family="sans-serif" font-size="14" font-weight="bold" lengthAdjust="spacing" textLength="27" x="215.94" y="332.0332">App</text></g><!--MD5=[de8aee2ea1552a39abc6c09322004344]
cluster Query--><g id="cluster_Query"><path d="M356.44,359.5 L399.44,359.5 A3.75,3.75 0 0 1 401.94,362 L408.94,383.1094 L1441.44,383.1094 A2.5,2.5 0 0 1 1443.94,385.6094 L1443.94,873 A2.5,2.5 0 0 1 1441.44,875.5 L356.44,875.5 A2.5,2.5 0 0 1 353.94,873 L353.94,362 A2.5,2.5 0 0 1 356.44,359.5 " fill="none" style="stroke:#000000;stroke-width:1.5;"/><line style="stroke:#000000;stroke-width:1.5;" x1="353.94" x2="408.94" y1="383.1094" y2="383.1094"/><text fill="#000000" font-family="sans-serif" font-size="14" font-weight="bold" lengthAdjust="spacing" textLength="42" x="357.94" y="376.0332">Query</text></g><!--MD5=[3b1c5d592432108e13f237fcb01b3c2d]
cluster PostGIS--><g id="cluster_PostGIS"><path d="M380.44,403.5 L436.44,403.5 A3.75,3.75 0 0 1 438.94,406 L445.94,427.1094 L1113.44,427.1094 A2.5,2.5 0 0 1 1115.94,429.6094 L1115.94,669 A2.5,2.5 0 0 1 1113.44,671.5 L380.44,671.5 A2.5,2.5 0 0 1 377.94,669 L377.94,406 A2.5,2.5 0 0 1 380.44,403.5 " fill="none" style="stroke:#000000;stroke-width:1.5;"/><line style="stroke:#000000;stroke-width:1.5;" x1="377.94" x2="445.94" y1="427.1094" y2="427.1094"/><text fill="#000000" font-family="sans-serif" font-size="14" font-weight="bold" lengthAdjust="spacing" textLength="55" x="381.94" y="420.0332">PostGIS</text></g><!--MD5=[7f52850a9739709e5baa4f1a3478cb52]
cluster Wikidata--><g id="cluster_Wikidata"><path d="M1142.44,595.5 L1202.44,595.5 A3.75,3.75 0 0 1 1204.94,598 L1211.94,619.1094 L1417.44,619.1094 A2.5,2.5 0 0 1 1419.94,621.6094 L1419.94,849 A2.5,2.5 0 0 1 1417.44,851.5 L1142.44,851.5 A2.5,2.5 0 0 1 1139.94,849 L1139.94,598 A2.5,2.5 0 0 1 1142.44,595.5 " fill="none" style="stroke:#000000;stroke-width:1.5;"/><line style="stroke:#000000;stroke-width:1.5;" x1="1139.94" x2="1211.94" y1="619.1094" y2="619.1094"/><text fill="#000000" font-family="sans-serif" font-size="14" font-weight="bold" lengthAdjust="spacing" textLength="59" x="1143.94" y="612.0332">Wikidata</text></g><!--MD5=[7468467f3b6b392f1d176d828c753b77]
entity db--><g id="elem_db"><path d="M222.94,949.5 C222.94,939.5 282.94,939.5 282.94,939.5 C282.94,939.5 342.94,939.5 342.94,949.5 L342.94,976.1094 C342.94,986.1094 282.94,986.1094 282.94,986.1094 C282.94,986.1094 222.94,986.1094 222.94,976.1094 L222.94,949.5 " fill="#F1F1F1" style="stroke:#181818;stroke-width:0.5;"/><path d="M222.94,949.5 C222.94,959.5 282.94,959.5 282.94,959.5 C282.94,959.5 342.94,959.5 342.94,949.5 " fill="none" style="stroke:#181818;stroke-width:0.5;"/><text fill="#000000" font-family="sans-serif" font-size="14" lengthAdjust="spacing" textLength="100" x="232.94" y="978.0332">PostgreSQL DB</text></g><!--MD5=[b6678c732d1ff6484754a56c6e4a5c5c]
entity fe--><g id="elem_fe"><polygon fill="#F1F1F1" points="239.44,153.5,249.44,143.5,342.44,143.5,342.44,181.1094,332.44,191.1094,239.44,191.1094,239.44,153.5" style="stroke:#181818;stroke-width:0.5;"/><line style="stroke:#181818;stroke-width:0.5;" x1="332.44" x2="342.44" y1="153.5" y2="143.5"/><line style="stroke:#181818;stroke-width:0.5;" x1="239.44" x2="332.44" y1="153.5" y2="153.5"/><line style="stroke:#181818;stroke-width:0.5;" x1="332.44" x2="332.44" y1="153.5" y2="191.1094"/><text fill="#000000" font-family="sans-serif" font-size="14" lengthAdjust="spacing" textLength="63" x="254.44" y="178.0332">Front-end</text></g><!--MD5=[5e99d1268bda2ca7be4146f70741f77c]
entity globalMap--><g id="elem_globalMap"><rect fill="#F1F1F1" height="47.6094" rx="2.5" ry="2.5" style="stroke:#181818;stroke-width:0.5;" width="138" x="57.94" y="619.5"/><rect fill="#F1F1F1" height="10" style="stroke:#181818;stroke-width:0.5;" width="15" x="175.94" y="624.5"/><rect fill="#F1F1F1" height="2" style="stroke:#181818;stroke-width:0.5;" width="4" x="173.94" y="626.5"/><rect fill="#F1F1F1" height="2" style="stroke:#181818;stroke-width:0.5;" width="4" x="173.94" y="630.5"/><text fill="#000000" font-family="sans-serif" font-size="14" lengthAdjust="spacing" textLength="98" x="72.94" y="654.0332">global-map.php</text></g><!--MD5=[70cfbf776cca5f9c3d1aec9958cace0f]
entity elements--><g id="elem_elements"><rect fill="#F1F1F1" height="47.6094" rx="2.5" ry="2.5" style="stroke:#181818;stroke-width:0.5;" width="125" x="70.44" y="427.5"/><rect fill="#F1F1F1" height="10" style="stroke:#181818;stroke-width:0.5;" width="15" x="175.44" y="432.5"/><rect fill="#F1F1F1" height="2" style="stroke:#181818;stroke-width:0.5;" width="4" x="173.44" y="434.5"/><rect fill="#F1F1F1" height="2" style="stroke:#181818;stroke-width:0.5;" width="4" x="173.44" y="438.5"/><text fill="#000000" font-family="sans-serif" font-size="14" lengthAdjust="spacing" textLength="85" x="85.44" y="462.0332">elements.php</text></g><!--MD5=[f73e5ab3c096fc51db1e5674003c39d8]
entity etymologyMap--><g id="elem_etymologyMap"><rect fill="#F1F1F1" height="47.6094" rx="2.5" ry="2.5" style="stroke:#181818;stroke-width:0.5;" width="159" x="748.44" y="251.5"/><rect fill="#F1F1F1" height="10" style="stroke:#181818;stroke-width:0.5;" width="15" x="887.44" y="256.5"/><rect fill="#F1F1F1" height="2" style="stroke:#181818;stroke-width:0.5;" width="4" x="885.44" y="258.5"/><rect fill="#F1F1F1" height="2" style="stroke:#181818;stroke-width:0.5;" width="4" x="885.44" y="262.5"/><text fill="#000000" font-family="sans-serif" font-size="14" lengthAdjust="spacing" textLength="119" x="763.44" y="286.0332">etymologyMap.php</text></g><!--MD5=[8aaf477cf9b50a1d50e25883b72bb19a]
entity stats--><g id="elem_stats"><rect fill="#F1F1F1" height="47.6094" rx="2.5" ry="2.5" style="stroke:#181818;stroke-width:0.5;" width="98" x="447.94" y="251.5"/><rect fill="#F1F1F1" height="10" style="stroke:#181818;stroke-width:0.5;" width="15" x="525.94" y="256.5"/><rect fill="#F1F1F1" height="2" style="stroke:#181818;stroke-width:0.5;" width="4" x="523.94" y="258.5"/><rect fill="#F1F1F1" height="2" style="stroke:#181818;stroke-width:0.5;" width="4" x="523.94" y="262.5"/><text fill="#000000" font-family="sans-serif" font-size="14" lengthAdjust="spacing" textLength="58" x="462.94" y="286.0332">stats.php</text></g><!--MD5=[b30b38ce4569dacde3f8306bd4ec7604]
entity index--><g id="elem_index"><rect fill="#F1F1F1" height="47.6094" rx="2.5" ry="2.5" style="stroke:#181818;stroke-width:0.5;" width="101" x="240.44" y="251.5"/><rect fill="#F1F1F1" height="10" style="stroke:#181818;stroke-width:0.5;" width="15" x="321.44" y="256.5"/><rect fill="#F1F1F1" height="2" style="stroke:#181818;stroke-width:0.5;" width="4" x="319.44" y="258.5"/><rect fill="#F1F1F1" height="2" style="stroke:#181818;stroke-width:0.5;" width="4" x="319.44" y="262.5"/><text fill="#000000" font-family="sans-serif" font-size="14" lengthAdjust="spacing" textLength="61" x="255.44" y="286.0332">index.php</text></g><!--MD5=[2caa4bbe785f3341408a3b68c7788e88]
entity PostGIS_PDO--><g id="elem_PostGIS_PDO"><rect fill="#F1F1F1" height="23.6094" rx="2.5" ry="2.5" style="stroke:#181818;stroke-width:0.5;" width="109" x="228.44" y="727.5"/><text fill="#000000" font-family="sans-serif" font-size="14" lengthAdjust="spacing" textLength="89" x="238.44" y="745.0332">PostGIS_PDO</text></g><!--MD5=[60ec45d1f627101003d5c0d3b25501fa]
entity BBoxEtymologyPostGISQuery--><g id="elem_BBoxEtymologyPostGISQuery"><rect fill="#F1F1F1" height="23.6094" rx="2.5" ry="2.5" style="stroke:#181818;stroke-width:0.5;" width="207" x="892.44" y="439.5"/><text fill="#000000" font-family="sans-serif" font-size="14" lengthAdjust="spacing" textLength="187" x="902.44" y="457.0332">BBoxEtymologyPostGISQuery</text></g><!--MD5=[ec4259bd46afb9905825c4a96bdd60bd]
entity BBoxGenderStatsPostGISQuery--><g id="elem_BBoxGenderStatsPostGISQuery"><rect fill="#F1F1F1" height="23.6094" rx="2.5" ry="2.5" style="stroke:#181818;stroke-width:0.5;" width="222" x="634.94" y="439.5"/><text fill="#000000" font-family="sans-serif" font-size="14" lengthAdjust="spacing" textLength="202" x="644.94" y="457.0332">BBoxGenderStatsPostGISQuery</text></g><!--MD5=[b12534fbaeb29a28fa12ab0f5bfda8f0]
entity BBoxTypeStatsPostGISQuery--><g id="elem_BBoxTypeStatsPostGISQuery"><rect fill="#F1F1F1" height="23.6094" rx="2.5" ry="2.5" style="stroke:#181818;stroke-width:0.5;" width="206" x="393.94" y="439.5"/><text fill="#000000" font-family="sans-serif" font-size="14" lengthAdjust="spacing" textLength="186" x="403.94" y="457.0332">BBoxTypeStatsPostGISQuery</text></g><!--MD5=[adafd2404b54a96f819b76eb4a30cc7a]
entity BBoxEtymologyCenterPostGISQuery--><g id="elem_BBoxEtymologyCenterPostGISQuery"><rect fill="#F1F1F1" height="23.6094" rx="2.5" ry="2.5" style="stroke:#181818;stroke-width:0.5;" width="250" x="393.94" y="535.5"/><text fill="#000000" font-family="sans-serif" font-size="14" lengthAdjust="spacing" textLength="230" x="403.94" y="553.0332">BBoxEtymologyCenterPostGISQuery</text></g><!--MD5=[2d3cf94f08458a61bd474115555020a8]
entity BBoxTextPostGISQuery--><g id="elem_BBoxTextPostGISQuery"><rect fill="#F1F1F1" height="23.6094" rx="2.5" ry="2.5" style="stroke:#181818;stroke-width:0.5;" width="169" x="679.44" y="535.5"/><text fill="#000000" font-family="sans-serif" font-size="14" lengthAdjust="spacing" textLength="149" x="689.44" y="553.0332">BBoxTextPostGISQuery</text></g><!--MD5=[6c0acac0ce473c0059f0f3743afd8c50]
entity PostGISQuery--><g id="elem_PostGISQuery"><rect fill="#F1F1F1" height="23.6094" rx="2.5" ry="2.5" style="stroke:#181818;stroke-width:0.5;" width="110" x="463.94" y="631.5"/><text fill="#000000" font-family="sans-serif" font-size="14" lengthAdjust="spacing" textLength="90" x="473.94" y="649.0332">PostGISQuery</text></g><!--MD5=[1069ae53f71770a7ef2eb08b457d0afb]
entity EtymologyIDListJSONWikidataQuery--><g id="elem_EtymologyIDListJSONWikidataQuery"><rect fill="#F1F1F1" height="23.6094" rx="2.5" ry="2.5" style="stroke:#181818;stroke-width:0.5;" width="248" x="1155.94" y="631.5"/><text fill="#000000" font-family="sans-serif" font-size="14" lengthAdjust="spacing" textLength="228" x="1165.94" y="649.0332">EtymologyIDListJSONWikidataQuery</text></g><!--MD5=[2005ab9f6e43529002bd1a282aac215f]
entity JSONWikidataQuery--><g id="elem_JSONWikidataQuery"><rect fill="#F1F1F1" height="23.6094" rx="2.5" ry="2.5" style="stroke:#181818;stroke-width:0.5;" width="148" x="1222.94" y="727.5"/><text fill="#000000" font-family="sans-serif" font-size="14" lengthAdjust="spacing" textLength="128" x="1232.94" y="745.0332">JSONWikidataQuery</text></g><!--MD5=[61651887e9e31674afc1674cd52ad479]
entity WikidataQuery--><g id="elem_WikidataQuery"><rect fill="#F1F1F1" height="23.6094" rx="2.5" ry="2.5" style="stroke:#181818;stroke-width:0.5;" width="113" x="1273.44" y="811.5"/><text fill="#000000" font-family="sans-serif" font-size="14" lengthAdjust="spacing" textLength="93" x="1283.44" y="829.0332">WikidataQuery</text></g><!--MD5=[8fc3522a43f8c7199df5e09e5bb0188e]
entity user--><g id="elem_user"><ellipse cx="290.94" cy="14" fill="#F1F1F1" rx="8" ry="8" style="stroke:#181818;stroke-width:0.5;"/><path d="M290.94,22 L290.94,49 M277.94,30 L303.94,30 M290.94,49 L277.94,64 M290.94,49 L303.94,64 " fill="none" style="stroke:#181818;stroke-width:0.5;"/><text fill="#000000" font-family="sans-serif" font-size="14" lengthAdjust="spacing" textLength="29" x="276.44" y="80.0332">User</text></g><!--MD5=[d1ed0d2940ccad314a24ccbc4df5340e]
entity wikidata--><g id="elem_wikidata"><rect fill="#F1F1F1" height="37.6094" rx="2.5" ry="2.5" style="stroke:#181818;stroke-width:0.5;" width="159" x="1532.44" y="944"/><text fill="#000000" font-family="sans-serif" font-size="14" lengthAdjust="spacing" textLength="139" x="1542.44" y="968.5332">Wikidata SPARQL API</text></g><!--MD5=[d8007bc76b5a4ce79ed798c0340fe526]
link index to fe--><g id="link_index_fe"><path d="M290.94,246.12 C290.94,230.79 290.94,211.92 290.94,196.63 " fill="none" id="index-fe" style="stroke:#181818;stroke-width:1.0;"/><polygon fill="#181818" points="290.94,191.5,286.94,200.5,290.94,196.5,294.94,200.5,290.94,191.5" style="stroke:#181818;stroke-width:1.0;"/><polygon fill="#181818" points="290.94,251.18,294.94,242.18,290.94,246.18,286.94,242.18,290.94,251.18" style="stroke:#181818;stroke-width:1.0;"/></g><!--MD5=[ae8039fdc28b678563ce6715a84a2765]
link user to fe--><g id="link_user_fe"><path d="M290.94,83.79 C290.94,101.33 290.94,121.76 290.94,137.93 " fill="none" id="user-to-fe" style="stroke:#181818;stroke-width:1.0;"/><polygon fill="#181818" points="290.94,143.24,294.94,134.24,290.94,138.24,286.94,134.24,290.94,143.24" style="stroke:#181818;stroke-width:1.0;"/></g><!--MD5=[f81a54cfe7bbc4bb9cb1bf30917be9cd]
link fe to globalMap--><g id="link_fe_globalMap"><path d="M239.24,175.7 C214.41,180.7 184.92,188.98 160.94,202.5 C102.63,235.39 78.99,245.83 52.94,307.5 C6,418.6 79.62,563.55 112.44,619.28 " fill="none" id="fe-globalMap" style="stroke:#181818;stroke-width:1.0;"/><path d="M57.59,475.3865 A10,10 0 0 0 44.0128 479.3438" fill="none" style="stroke:#181818;stroke-width:1.5;"/><ellipse cx="52.78" cy="484.1538" fill="#FFFFFF" rx="6" ry="6" style="stroke:#181818;stroke-width:1.5;"/></g><!--MD5=[41703f603401155b6d1b3155db2233bd]
link fe to etymologyMap--><g id="link_fe_etymologyMap"><path d="M342.61,172.73 C397.77,177.75 487.56,187.41 563.94,202.5 C629.19,215.39 702.03,235.72 754.64,251.49 " fill="none" id="fe-etymologyMap" style="stroke:#181818;stroke-width:1.0;"/><path d="M558.3735,194.1925 A10,10 0 0 0 555.6325 208.0665" fill="none" style="stroke:#181818;stroke-width:1.5;"/><ellipse cx="563.94" cy="202.5" fill="#FFFFFF" rx="6" ry="6" style="stroke:#181818;stroke-width:1.5;"/></g><!--MD5=[46c6f6c2714a93f849c268b65b83d583]
link fe to elements--><g id="link_fe_elements"><path d="M239.25,188.88 C233.23,192.76 227.59,197.28 222.94,202.5 C163.08,269.71 142.09,379.86 135.56,427.43 " fill="none" id="fe-elements" style="stroke:#181818;stroke-width:1.0;"/><path d="M168.1551,317.778 A10,10 0 0 0 154.6992 313.4261" fill="none" style="stroke:#181818;stroke-width:1.5;"/><ellipse cx="159.2512" cy="322.33" fill="#FFFFFF" rx="6" ry="6" style="stroke:#181818;stroke-width:1.5;"/></g><!--MD5=[438a73eeae6156579b7c6f581aeea913]
link fe to stats--><g id="link_fe_stats"><path d="M337.45,191.62 C344.65,195.24 352.01,198.96 358.94,202.5 C390.59,218.67 426.13,237.22 453.22,251.45 " fill="none" id="fe-stats" style="stroke:#181818;stroke-width:1.0;"/><path d="M404.7783,218.1668 A10,10 0 0 0 398.2543 230.7142" fill="none" style="stroke:#181818;stroke-width:1.5;"/><ellipse cx="407.79" cy="227.7025" fill="#FFFFFF" rx="6" ry="6" style="stroke:#181818;stroke-width:1.5;"/></g><!--MD5=[35e2108ca744f65c942e6e6099355814]
link etymologyMap to BBoxEtymologyPostGISQuery--><g id="link_etymologyMap_BBoxEtymologyPostGISQuery"><path d="M865.12,299.56 C868.54,302.11 871.87,304.78 874.94,307.5 C921.12,348.48 965.35,407.32 985.13,435 " fill="none" id="etymologyMap-to-BBoxEtymologyPostGISQuery" style="stroke:#181818;stroke-width:1.0;stroke-dasharray:7.0,7.0;"/><polygon fill="#181818" points="988.09,439.16,986.1426,429.5056,985.196,435.0827,979.6189,434.1361,988.09,439.16" style="stroke:#181818;stroke-width:1.0;"/></g><!--MD5=[1680931530baa5213aa0c52515530ccf]
link stats to BBoxGenderStatsPostGISQuery--><g id="link_stats_BBoxGenderStatsPostGISQuery"><path d="M546.04,282.35 C569.12,286.72 596.25,294.33 617.94,307.5 C672.82,340.83 717.6,405 736.4,434.7 " fill="none" id="stats-to-BBoxGenderStatsPostGISQuery" style="stroke:#181818;stroke-width:1.0;stroke-dasharray:7.0,7.0;"/><polygon fill="#181818" points="739.19,439.16,737.8268,429.4059,736.5464,434.916,731.0364,433.6357,739.19,439.16" style="stroke:#181818;stroke-width:1.0;"/></g><!--MD5=[e1e61c8df5795b41a621af7c60b4ae4b]
link stats to BBoxTypeStatsPostGISQuery--><g id="link_stats_BBoxTypeStatsPostGISQuery"><path d="M496.94,299.61 C496.94,335.29 496.94,402.92 496.94,434.06 " fill="none" id="stats-to-BBoxTypeStatsPostGISQuery" style="stroke:#181818;stroke-width:1.0;stroke-dasharray:7.0,7.0;"/><polygon fill="#181818" points="496.94,439.43,500.94,430.43,496.94,434.43,492.94,430.43,496.94,439.43" style="stroke:#181818;stroke-width:1.0;"/></g><!--MD5=[101c7b076cc2d69ec5c82032f182be4a]
link elements to BBoxEtymologyCenterPostGISQuery--><g id="link_elements_BBoxEtymologyCenterPostGISQuery"><path d="M195.82,467.81 C271.96,486.36 398.69,517.22 468.67,534.26 " fill="none" id="elements-to-BBoxEtymologyCenterPostGISQuery" style="stroke:#181818;stroke-width:1.0;stroke-dasharray:7.0,7.0;"/><polygon fill="#181818" points="473.61,535.46,465.8154,529.4397,468.7526,534.2742,463.9181,537.2115,473.61,535.46" style="stroke:#181818;stroke-width:1.0;"/></g><!--MD5=[5516547e25ccd4a810c702b8e666d252]
link BBoxTextPostGISQuery to PostGISQuery--><g id="link_BBoxTextPostGISQuery_PostGISQuery"><path d="M734.87,559.65 C693.43,575.55 616.86,604.93 566.93,624.09 " fill="none" id="BBoxTextPostGISQuery-to-PostGISQuery" style="stroke:#181818;stroke-width:1.0;"/><polygon fill="none" points="569.15,630.73,547.97,631.36,564.13,617.66,569.15,630.73" style="stroke:#181818;stroke-width:1.0;"/></g><!--MD5=[6c2a24c684a2f1a7ca7300a93666f9b8]
link BBoxEtymologyPostGISQuery to BBoxTextPostGISQuery--><g id="link_BBoxEtymologyPostGISQuery_BBoxTextPostGISQuery"><path d="M968.42,463.65 C929.35,479.48 857.31,508.67 810.02,527.83 " fill="none" id="BBoxEtymologyPostGISQuery-to-BBoxTextPostGISQuery" style="stroke:#181818;stroke-width:1.0;"/><polygon fill="none" points="812.59,534.34,791.43,535.36,807.34,521.36,812.59,534.34" style="stroke:#181818;stroke-width:1.0;"/></g><!--MD5=[0d320dbec4a867324ff912c26d5cf1d2]
link BBoxGenderStatsPostGISQuery to BBoxTextPostGISQuery--><g id="link_BBoxGenderStatsPostGISQuery_BBoxTextPostGISQuery"><path d="M748.08,463.65 C750.51,476.37 754.6,497.72 758.01,515.56 " fill="none" id="BBoxGenderStatsPostGISQuery-to-BBoxTextPostGISQuery" style="stroke:#181818;stroke-width:1.0;"/><polygon fill="none" points="764.92,514.4,761.81,535.36,751.17,517.04,764.92,514.4" style="stroke:#181818;stroke-width:1.0;"/></g><!--MD5=[d5cbf4d20ec8117ccfd84d30082583bb]
link BBoxTypeStatsPostGISQuery to BBoxTextPostGISQuery--><g id="link_BBoxTypeStatsPostGISQuery_BBoxTextPostGISQuery"><path d="M528.35,463.56 C574.05,479.65 659.32,509.67 713.77,528.84 " fill="none" id="BBoxTypeStatsPostGISQuery-to-BBoxTextPostGISQuery" style="stroke:#181818;stroke-width:1.0;"/><polygon fill="none" points="716.11,522.24,732.65,535.48,711.46,535.44,716.11,522.24" style="stroke:#181818;stroke-width:1.0;"/></g><!--MD5=[3a01885db6cf62c97e5e4a213a0e16d1]
link BBoxEtymologyCenterPostGISQuery to PostGISQuery--><g id="link_BBoxEtymologyCenterPostGISQuery_PostGISQuery"><path d="M518.94,559.65 C518.94,572.3 518.94,593.48 518.94,611.26 " fill="none" id="BBoxEtymologyCenterPostGISQuery-to-PostGISQuery" style="stroke:#181818;stroke-width:1.0;"/><polygon fill="none" points="525.94,611.36,518.94,631.36,511.94,611.36,525.94,611.36" style="stroke:#181818;stroke-width:1.0;"/></g><!--MD5=[9e7c38a86a670f54a45ea3721c360122]
link EtymologyIDListJSONWikidataQuery to JSONWikidataQuery--><g id="link_EtymologyIDListJSONWikidataQuery_JSONWikidataQuery"><path d="M1281.96,655.65 C1284.26,668.37 1288.12,689.72 1291.34,707.56 " fill="none" id="EtymologyIDListJSONWikidataQuery-to-JSONWikidataQuery" style="stroke:#181818;stroke-width:1.0;"/><polygon fill="none" points="1298.25,706.44,1294.93,727.36,1284.48,708.93,1298.25,706.44" style="stroke:#181818;stroke-width:1.0;"/></g><!--MD5=[de05f3684ee6973dd216fc5a63931ffe]
link JSONWikidataQuery to WikidataQuery--><g id="link_JSONWikidataQuery_WikidataQuery"><path d="M1301.39,751.56 C1305.62,762.07 1312.18,778.37 1317.94,792.69 " fill="none" id="JSONWikidataQuery-to-WikidataQuery" style="stroke:#181818;stroke-width:1.0;"/><polygon fill="none" points="1324.48,790.19,1325.45,811.35,1311.49,795.41,1324.48,790.19" style="stroke:#181818;stroke-width:1.0;"/></g><!--MD5=[63af0f4813f9f8ae4b5b0dcb59294f4b]
link globalMap to PostGIS_PDO--><g id="link_globalMap_PostGIS_PDO"><path d="M165.5,667.74 C195.23,685.65 235.33,709.81 260.14,724.76 " fill="none" id="globalMap-to-PostGIS_PDO" style="stroke:#181818;stroke-width:1.0;stroke-dasharray:7.0,7.0;"/><polygon fill="#181818" points="264.59,727.44,258.9424,719.3712,260.3063,724.8612,254.8164,726.2251,264.59,727.44" style="stroke:#181818;stroke-width:1.0;"/></g><!--MD5=[50fa71085f2d8f67f9d9d28b519dc4f4]
link PostGISQuery to PostGIS_PDO--><g id="link_PostGISQuery_PostGIS_PDO"><path d="M502.42,655.6 C490.87,663.03 474.89,672.67 459.94,679.5 C417.12,699.07 365.86,715.43 329.55,725.93 " fill="none" id="PostGISQuery-to-PostGIS_PDO" style="stroke:#181818;stroke-width:1.0;stroke-dasharray:7.0,7.0;"/><polygon fill="#181818" points="324.31,727.43,334.0653,728.7845,329.1149,726.047,331.8524,721.0966,324.31,727.43" style="stroke:#181818;stroke-width:1.0;"/></g><!--MD5=[c45eae8d2d6ac15a68e8f88c3e9db4ae]
link PostGIS_PDO to db--><g id="link_PostGIS_PDO_db"><path d="M282.94,751.79 C282.94,786.52 282.94,892.28 282.94,939.18 " fill="none" id="PostGIS_PDO-db" style="stroke:#181818;stroke-width:1.0;"/><path d="M290.0111,833.8502 A10,10 0 0 0 275.8689 833.8502" fill="none" style="stroke:#181818;stroke-width:1.5;"/><ellipse cx="282.94" cy="840.9213" fill="#FFFFFF" rx="6" ry="6" style="stroke:#181818;stroke-width:1.5;"/></g><!--MD5=[f8738ca4d6c42074893278b59295010d]
link BBoxTextPostGISQuery to EtymologyIDListJSONWikidataQuery--><g id="link_BBoxTextPostGISQuery_EtymologyIDListJSONWikidataQuery"><path d="M848.69,552.81 C920.5,557.67 1025.87,567.65 1115.94,587.5 C1163.04,597.88 1215.59,616.88 1248.21,629.6 " fill="none" id="BBoxTextPostGISQuery-to-EtymologyIDListJSONWikidataQuery" style="stroke:#181818;stroke-width:1.0;stroke-dasharray:7.0,7.0;"/><polygon fill="#181818" points="1252.88,631.43,1245.9645,624.4174,1248.2259,629.6026,1243.0407,631.864,1252.88,631.43" style="stroke:#181818;stroke-width:1.0;"/></g><!--MD5=[7a287dc161d13a88565441307136d465]
link WikidataQuery to wikidata--><g id="link_WikidataQuery_wikidata"><path d="M1352.54,835.52 C1401.03,859.16 1515.45,914.95 1574.79,943.89 " fill="none" id="WikidataQuery-wikidata" style="stroke:#181818;stroke-width:1.0;"/><path d="M1456.3395,878.2627 A10,10 0 0 0 1450.1414 890.9742" fill="none" style="stroke:#181818;stroke-width:1.5;"/><ellipse cx="1459.5962" cy="887.7175" fill="#FFFFFF" rx="6" ry="6" style="stroke:#181818;stroke-width:1.5;"/></g><!--MD5=[57e9044c5c800bc535713cbd9f4605cc]
@startuml v2

actor user as "User"
frame oem as "OSM-Wikidata Map Framework v2" {
    database db as "PostgreSQL DB"
    node fe as "Front-end"
    node be as "Back-end" {
        component globalMap as "global-map.php"
        component elements as "elements.php"
        component etymologyMap as "etymologyMap.php"
        component stats as "stats.php"
        component index as "index.php"
        package App {
            card PostGIS_PDO
            package Query {
                package PostGIS {
                    card BBoxEtymologyPostGISQuery
                    card BBoxGenderStatsPostGISQuery
                    card BBoxTypeStatsPostGISQuery
                    card BBoxEtymologyCenterPostGISQuery
                    card BBoxTextPostGISQuery
                    card PostGISQuery
                }
                package Wikidata {
                    card EtymologyIDListJSONWikidataQuery
                    card JSONWikidataQuery
                    card WikidataQuery
                }
            }
        }
    }
}
agent wikidata as "Wikidata SPARQL API"

index <- -> fe

user - -> fe

fe -(0- globalMap
fe -(0- etymologyMap
fe -(0- elements
fe -(0- stats


etymologyMap ..> BBoxEtymologyPostGISQuery
stats ..> BBoxGenderStatsPostGISQuery
stats ..> BBoxTypeStatsPostGISQuery
elements ..> BBoxEtymologyCenterPostGISQuery

BBoxTextPostGISQuery - -|> PostGISQuery
BBoxEtymologyPostGISQuery - -|> BBoxTextPostGISQuery
BBoxGenderStatsPostGISQuery - -|> BBoxTextPostGISQuery
BBoxTypeStatsPostGISQuery - -|> BBoxTextPostGISQuery
BBoxEtymologyCenterPostGISQuery - -|> PostGISQuery

EtymologyIDListJSONWikidataQuery - -|> JSONWikidataQuery
JSONWikidataQuery - -|> WikidataQuery

globalMap ..> PostGIS_PDO
PostGISQuery ..> PostGIS_PDO
PostGIS_PDO - -(0- db
BBoxTextPostGISQuery ..> EtymologyIDListJSONWikidataQuery

WikidataQuery -(0- wikidata

@enduml

PlantUML version 1.2022.7(Mon Aug 22 19:01:30 CEST 2022)
(GPL source distribution)
Java Runtime: Java(TM) SE Runtime Environment
JVM: Java HotSpot(TM) 64-Bit Server VM
Default Encoding: Cp1252
Language: it
Country: IT
--></g></svg>