<?xml version="1.0" encoding="UTF-8" standalone="no"?><svg xmlns="http://www.w3.org/2000/svg" xmlns:xlink="http://www.w3.org/1999/xlink" contentStyleType="text/css" height="755px" preserveAspectRatio="none" style="width:1798px;height:755px;background:#FFFFFF;" version="1.1" viewBox="0 0 1798 755" width="1798px" zoomAndPan="magnify"><defs/><g><!--MD5=[979da56a7f83e2393dc758167ae295d0]
cluster Server--><g id="cluster_Server"><rect fill="none" height="590" rx="2.5" ry="2.5" style="stroke:#181818;stroke-width:1.0;" width="1517" x="7" y="150.5"/><rect fill="none" height="10" style="stroke:#181818;stroke-width:1.0;" width="15" x="1504" y="155.5"/><rect fill="none" height="2" style="stroke:#181818;stroke-width:1.0;" width="4" x="1502" y="157.5"/><rect fill="none" height="2" style="stroke:#181818;stroke-width:1.0;" width="4" x="1502" y="161.5"/><text fill="#000000" font-family="sans-serif" font-size="14" font-weight="bold" lengthAdjust="spacing" textLength="48" x="741.5" y="178.0332">Server</text></g><!--MD5=[5ec7eedd57310648f8059ffb2621ca4b]
cluster docker--><g id="cluster_docker"><rect fill="none" height="284" rx="2.5" ry="2.5" style="stroke:#181818;stroke-width:1.0;" width="1285" x="215" y="211.5"/><text fill="#000000" font-family="sans-serif" font-size="14" font-weight="bold" lengthAdjust="spacing" textLength="222" x="746.5" y="228.0332">Docker Compose - profile 'prod'</text></g><!--MD5=[1378079a3eb208dbe7e22fc54a3fce11]
cluster promtail--><g id="cluster_promtail"><polygon fill="none" points="875,265.5,885,255.5,1476,255.5,1476,358.5,1466,368.5,875,368.5,875,265.5" style="stroke:#181818;stroke-width:1.0;"/><line style="stroke:#181818;stroke-width:1.0;" x1="1466" x2="1476" y1="265.5" y2="255.5"/><line style="stroke:#181818;stroke-width:1.0;" x1="875" x2="1466" y1="265.5" y2="265.5"/><line style="stroke:#181818;stroke-width:1.0;" x1="1466" x2="1466" y1="265.5" y2="368.5"/><text fill="#000000" font-family="sans-serif" font-size="14" font-weight="bold" lengthAdjust="spacing" textLength="57" x="1143" y="283.0332">promtail</text></g><!--MD5=[5a8b7ee3eae4de21b4edbcb4d9e5d3d3]
cluster oem-web-prod--><g id="cluster_oem-web-prod"><polygon fill="none" points="231,334.5,241,324.5,859,324.5,859,469.5,849,479.5,231,479.5,231,334.5" style="stroke:#181818;stroke-width:1.0;"/><line style="stroke:#181818;stroke-width:1.0;" x1="849" x2="859" y1="334.5" y2="324.5"/><line style="stroke:#181818;stroke-width:1.0;" x1="231" x2="849" y1="334.5" y2="334.5"/><line style="stroke:#181818;stroke-width:1.0;" x1="849" x2="849" y1="334.5" y2="479.5"/><text fill="#000000" font-family="sans-serif" font-size="14" font-weight="bold" lengthAdjust="spacing" textLength="102" x="490" y="352.0332">oem-web-prod</text></g><!--MD5=[6388e1a0d028400310670bd3eeb67932]
cluster Grafana--><g id="cluster_Grafana"><path d="M1699.8522,654.9499 C1702.5266,648.6585 1707.239,647.1196 1712.514,652.0033 C1716.3729,645.2805 1720.5516,643.9737 1726.2759,649.9878 C1729.3359,642.3463 1736.0496,641.6146 1740.2634,648.9071 C1744.5767,642.3245 1749.2542,643.9557 1752.9805,649.5217 C1758.4241,644.1308 1764.0722,644.5249 1767.924,651.4526 C1774.2915,646.0761 1779.2126,647.7552 1781.5143,655.6242 C1789.2101,658.4649 1788.7236,665.0485 1783.1509,669.4588 C1789.1374,674.1298 1789.01,678.221 1782.1558,681.8618 C1789.1323,684.6719 1791.0138,690.8022 1784.4645,695.8454 C1790.4008,699.7551 1790.6269,706.1767 1784.017,709.6806 C1789.5131,714.9058 1790.6158,719.4653 1782.9408,723.6778 C1788.8015,729.4211 1789.5823,735.3638 1780.6513,738.8792 C1776.961,744.7399 1771.7849,744.3852 1768.0502,738.9287 C1765.2986,746.9346 1758.479,746.3577 1754.1718,740.4842 C1750.4721,746.7323 1744.2218,748.108 1740.1773,740.8412 C1736.2869,747.2238 1730.1049,747.1347 1727.0016,740.0699 C1721.4783,747.3513 1716.8486,746.7481 1711.8988,739.4747 C1707.4933,744.9546 1703.8738,744.1274 1700.1571,738.7312 C1693.0924,735.4393 1690.3757,730.5094 1696.707,724.066 C1688.6799,721.8946 1688.4598,717.5257 1692.9178,711.5687 C1684.2672,708.2304 1684.0598,701.5286 1691.2947,696.4814 C1686.634,690.7681 1686.8234,686.4624 1694.2613,683.5179 C1688.0382,677.8992 1689.3662,672.0088 1696.8766,668.8365 C1690.9773,663.6036 1692.0406,657.2448 1699.8522,654.9499 " fill="none" style="stroke:#181818;stroke-width:1.0;"/><text fill="#000000" font-family="sans-serif" font-size="14" font-weight="bold" lengthAdjust="spacing" textLength="55" x="1711.5" y="673.0332">Grafana</text></g><g id="cluster_##22"><path d="M1549.4661,675.4069 C1552.1266,670.151 1556.6623,669.3333 1560.9839,673.3417 C1563.9403,668.028 1567.3132,666.9637 1571.4617,672.1525 C1573.1563,666.2643 1577.8769,666.4292 1581.3341,670.3849 C1584.5749,663.4987 1588.5195,662.8179 1594.0098,668.0275 C1597.0791,661.8642 1600.3203,661.8648 1604.5482,666.9411 C1608.7771,662.8308 1611.9614,663.8344 1614.115,669.0663 C1618.5112,664.0097 1623.096,664.6785 1626.2141,670.4893 C1630.5999,665.4251 1634.3324,665.9456 1637.9884,671.3131 C1642.5946,667.1152 1646.0549,668.1528 1648.2224,673.8384 C1652.1571,669.6405 1655.8117,669.9692 1658.3091,675.3516 C1667.2217,679.3263 1667.9649,683.8287 1660.5535,690.2607 C1667.7834,693.8081 1669.2762,700.5891 1662.1351,705.6168 C1669.6526,711.1826 1670.1145,718.6702 1661.0175,723.1787 C1668.1272,729.8497 1666.856,734.6042 1658.0513,738.1147 C1656.1038,743.2246 1651.8202,743.6258 1648.5436,739.48 C1644.4577,744.3027 1641.3309,743.2009 1637.9957,738.6365 C1634.3716,743.7619 1630.3983,744.1828 1626.295,739.1907 C1622.488,744.6334 1618.2987,743.5976 1615.2181,738.4323 C1612.0177,743.7462 1608.5393,743.3901 1604.9288,738.8611 C1602.0545,744.517 1596.875,744.6908 1593.4846,739.4006 C1590.5542,744.401 1586.1429,743.7579 1583.1347,739.4876 C1579.6823,744.8838 1575.6625,745.7449 1571.9339,739.7594 C1567.5382,744.2415 1563.7199,744.8166 1560.4134,738.5879 C1557.3807,743.8919 1552.5334,742.9222 1549.6203,738.4558 C1541.6591,734.9838 1539.5319,730.1642 1545.9856,723.2472 C1537.9874,719.3923 1535.4019,711.6483 1543.5731,705.5848 C1536.5378,699.8675 1537.9237,693.4937 1546.3061,690.5856 C1539.2237,684.3541 1541.9305,678.595 1549.4661,675.4069 " fill="none" style="stroke:#181818;stroke-width:1.0;"/></g><text fill="#000000" font-family="sans-serif" font-size="14" lengthAdjust="spacing" textLength="16" x="276" y="129.4238">80</text><rect fill="#F1F1F1" height="12" style="stroke:#181818;stroke-width:1.5;" width="12" x="278" y="144.5"/><!--MD5=[a8169eed548a0c7d82578bde971bff5e]
entity iniLoc--><g id="elem_iniLoc"><path d="M277,689 L277,721.6094 A2.5,2.5 0 0 0 279.5,724.1094 L474.5,724.1094 A2.5,2.5 0 0 0 477,721.6094 L477,696.5 L467,686.5 L279.5,686.5 A2.5,2.5 0 0 0 277,689 " fill="#F1F1F1" style="stroke:#181818;stroke-width:0.5;"/><path d="M467,686.5 L467,694 A2.5,2.5 0 0 0 469.5,696.5 L477,696.5 " fill="#F1F1F1" style="stroke:#181818;stroke-width:0.5;"/><text fill="#000000" font-family="sans-serif" font-size="14" lengthAdjust="spacing" textLength="180" x="287" y="711.0332">web/open-etymology-map.ini</text></g><!--MD5=[fe722160842ab3083f161a2a7f9d8b06]
entity promLoc--><g id="elem_promLoc"><path d="M25.5,542.5 L66.5,542.5 A3.75,3.75 0 0 1 69,545 L76,563.5 L100.5,563.5 A2.5,2.5 0 0 1 103,566 L103,595.6094 A2.5,2.5 0 0 1 100.5,598.1094 L25.5,598.1094 A2.5,2.5 0 0 1 23,595.6094 L23,545 A2.5,2.5 0 0 1 25.5,542.5 " fill="#F1F1F1" style="stroke:#181818;stroke-width:0.5;"/><line style="stroke:#181818;stroke-width:0.5;" x1="23" x2="76" y1="563.5" y2="563.5"/><text fill="#000000" font-family="sans-serif" font-size="14" lengthAdjust="spacing" textLength="50" x="33" y="585.0332">promtail</text></g><!--MD5=[3b39491c4ae0f967d0fda10cc6fa8ffe]
entity logLoc--><g id="elem_logLoc"><path d="M141,542.5 L182,542.5 A3.75,3.75 0 0 1 184.5,545 L191.5,563.5 L213,563.5 A2.5,2.5 0 0 1 215.5,566 L215.5,595.6094 A2.5,2.5 0 0 1 213,598.1094 L141,598.1094 A2.5,2.5 0 0 1 138.5,595.6094 L138.5,545 A2.5,2.5 0 0 1 141,542.5 " fill="#F1F1F1" style="stroke:#181818;stroke-width:0.5;"/><line style="stroke:#181818;stroke-width:0.5;" x1="138.5" x2="191.5" y1="563.5" y2="563.5"/><text fill="#000000" font-family="sans-serif" font-size="14" lengthAdjust="spacing" textLength="47" x="148.5" y="585.0332">/var/log</text></g><!--MD5=[8a1bc4818159efcbc0ef1e4cbabd56ff]
entity contLoc--><g id="elem_contLoc"><path d="M1148,542.5 L1189,542.5 A3.75,3.75 0 0 1 1191.5,545 L1198.5,563.5 L1332,563.5 A2.5,2.5 0 0 1 1334.5,566 L1334.5,595.6094 A2.5,2.5 0 0 1 1332,598.1094 L1148,598.1094 A2.5,2.5 0 0 1 1145.5,595.6094 L1145.5,545 A2.5,2.5 0 0 1 1148,542.5 " fill="#F1F1F1" style="stroke:#181818;stroke-width:0.5;"/><line style="stroke:#181818;stroke-width:0.5;" x1="1145.5" x2="1198.5" y1="563.5" y2="563.5"/><text fill="#000000" font-family="sans-serif" font-size="14" lengthAdjust="spacing" textLength="159" x="1155.5" y="585.0332">/var/lib/docker/containers</text></g><!--MD5=[875c34bedf132272c73e8bf9e31e6d44]
entity promInst--><g id="elem_promInst"><rect fill="#F1F1F1" height="47.6094" rx="2.5" ry="2.5" style="stroke:#181818;stroke-width:0.5;" width="90" x="1370" y="300.5"/><rect fill="#F1F1F1" height="10" style="stroke:#181818;stroke-width:0.5;" width="15" x="1440" y="305.5"/><rect fill="#F1F1F1" height="2" style="stroke:#181818;stroke-width:0.5;" width="4" x="1438" y="307.5"/><rect fill="#F1F1F1" height="2" style="stroke:#181818;stroke-width:0.5;" width="4" x="1438" y="311.5"/><text fill="#000000" font-family="sans-serif" font-size="14" lengthAdjust="spacing" textLength="50" x="1385" y="335.0332">promtail</text></g><!--MD5=[1a8b14acf4dc880aa72774a119d7c5e8]
entity promRem--><g id="elem_promRem"><path d="M894,296.5 L935,296.5 A3.75,3.75 0 0 1 937.5,299 L944.5,317.5 L996,317.5 A2.5,2.5 0 0 1 998.5,320 L998.5,349.6094 A2.5,2.5 0 0 1 996,352.1094 L894,352.1094 A2.5,2.5 0 0 1 891.5,349.6094 L891.5,299 A2.5,2.5 0 0 1 894,296.5 " fill="#F1F1F1" style="stroke:#181818;stroke-width:0.5;"/><line style="stroke:#181818;stroke-width:0.5;" x1="891.5" x2="944.5" y1="317.5" y2="317.5"/><text fill="#000000" font-family="sans-serif" font-size="14" lengthAdjust="spacing" textLength="77" x="901.5" y="339.0332">/etc/promtail</text></g><!--MD5=[25ffd4bc1314c23ec09359623d3cc278]
entity logRem--><g id="elem_logRem"><path d="M1036,296.5 L1077,296.5 A3.75,3.75 0 0 1 1079.5,299 L1086.5,317.5 L1108,317.5 A2.5,2.5 0 0 1 1110.5,320 L1110.5,349.6094 A2.5,2.5 0 0 1 1108,352.1094 L1036,352.1094 A2.5,2.5 0 0 1 1033.5,349.6094 L1033.5,299 A2.5,2.5 0 0 1 1036,296.5 " fill="#F1F1F1" style="stroke:#181818;stroke-width:0.5;"/><line style="stroke:#181818;stroke-width:0.5;" x1="1033.5" x2="1086.5" y1="317.5" y2="317.5"/><text fill="#000000" font-family="sans-serif" font-size="14" lengthAdjust="spacing" textLength="47" x="1043.5" y="339.0332">/var/log</text></g><!--MD5=[9e1b1bfa93650452d9caff88db08b3e1]
entity contRem--><g id="elem_contRem"><path d="M1148,296.5 L1189,296.5 A3.75,3.75 0 0 1 1191.5,299 L1198.5,317.5 L1332,317.5 A2.5,2.5 0 0 1 1334.5,320 L1334.5,349.6094 A2.5,2.5 0 0 1 1332,352.1094 L1148,352.1094 A2.5,2.5 0 0 1 1145.5,349.6094 L1145.5,299 A2.5,2.5 0 0 1 1148,296.5 " fill="#F1F1F1" style="stroke:#181818;stroke-width:0.5;"/><line style="stroke:#181818;stroke-width:0.5;" x1="1145.5" x2="1198.5" y1="317.5" y2="317.5"/><text fill="#000000" font-family="sans-serif" font-size="14" lengthAdjust="spacing" textLength="159" x="1155.5" y="339.0332">/var/lib/docker/containers</text></g><text fill="#000000" font-family="sans-serif" font-size="14" lengthAdjust="spacing" textLength="16" x="623" y="303.4238">80</text><rect fill="#F1F1F1" height="12" style="stroke:#181818;stroke-width:1.5;" width="12" x="625" y="318.5"/><!--MD5=[a0fef4f34cb3559b44f1c4ed44c10eb8]
entity Apache--><g id="elem_Apache"><rect fill="#F1F1F1" height="47.6094" rx="2.5" ry="2.5" style="stroke:#181818;stroke-width:0.5;" width="88" x="755" y="415.5"/><rect fill="#F1F1F1" height="10" style="stroke:#181818;stroke-width:0.5;" width="15" x="823" y="420.5"/><rect fill="#F1F1F1" height="2" style="stroke:#181818;stroke-width:0.5;" width="4" x="821" y="422.5"/><rect fill="#F1F1F1" height="2" style="stroke:#181818;stroke-width:0.5;" width="4" x="821" y="426.5"/><text fill="#000000" font-family="sans-serif" font-size="14" lengthAdjust="spacing" textLength="48" x="770" y="450.0332">Apache</text></g><!--MD5=[1d74834b301146432ddf9bdce26c5d3d]
entity iniRem--><g id="elem_iniRem"><path d="M247,423 L247,455.6094 A2.5,2.5 0 0 0 249.5,458.1094 L504.5,458.1094 A2.5,2.5 0 0 0 507,455.6094 L507,430.5 L497,420.5 L249.5,420.5 A2.5,2.5 0 0 0 247,423 " fill="#F1F1F1" style="stroke:#181818;stroke-width:0.5;"/><path d="M497,420.5 L497,428 A2.5,2.5 0 0 0 499.5,430.5 L507,430.5 " fill="#F1F1F1" style="stroke:#181818;stroke-width:0.5;"/><text fill="#000000" font-family="sans-serif" font-size="14" lengthAdjust="spacing" textLength="240" x="257" y="445.0332">/var/www/html/open-etymology-map.ini</text></g><!--MD5=[331b67947ba2840a66d34c20f83daee9]
entity Loki--><g id="elem_Loki"><rect fill="#F1F1F1" height="47.6094" rx="2.5" ry="2.5" style="stroke:#181818;stroke-width:0.5;" width="66" x="1706" y="681.5"/><rect fill="#F1F1F1" height="10" style="stroke:#181818;stroke-width:0.5;" width="15" x="1752" y="686.5"/><rect fill="#F1F1F1" height="2" style="stroke:#181818;stroke-width:0.5;" width="4" x="1750" y="688.5"/><rect fill="#F1F1F1" height="2" style="stroke:#181818;stroke-width:0.5;" width="4" x="1750" y="692.5"/><text fill="#000000" font-family="sans-serif" font-size="14" lengthAdjust="spacing" textLength="26" x="1721" y="716.0332">Loki</text></g><!--MD5=[7468467f3b6b392f1d176d828c753b77]
entity db--><g id="elem_db"><path d="M1556,692 C1556,682 1603,682 1603,682 C1603,682 1650,682 1650,692 L1650,718.6094 C1650,728.6094 1603,728.6094 1603,728.6094 C1603,728.6094 1556,728.6094 1556,718.6094 L1556,692 " fill="#F1F1F1" style="stroke:#181818;stroke-width:0.5;"/><path d="M1556,692 C1556,702 1603,702 1603,702 C1603,702 1650,702 1650,692 " fill="none" style="stroke:#181818;stroke-width:0.5;"/><text fill="#000000" font-family="sans-serif" font-size="14" lengthAdjust="spacing" textLength="74" x="1566" y="720.5332">PostGIS DB</text></g><!--MD5=[e9dede37b31fdda9664526f66258b036]
entity Browser--><g id="elem_Browser"><ellipse cx="284" cy="14" fill="#F1F1F1" rx="8" ry="8" style="stroke:#181818;stroke-width:0.5;"/><path d="M284,22 L284,49 M271,30 L297,30 M284,49 L271,64 M284,49 L297,64 " fill="none" style="stroke:#181818;stroke-width:0.5;"/><text fill="#000000" font-family="sans-serif" font-size="14" lengthAdjust="spacing" textLength="51" x="258.5" y="80.0332">Browser</text></g><!--MD5=[ce73862c0858b25560dc7c009d66c067]
link iniRem to iniLoc--><g id="link_iniRem_iniLoc"><path d="M377,458.65 C377,506.87 377,637.85 377,686.23 " fill="none" id="iniRem-iniLoc" style="stroke:#181818;stroke-width:1.0;"/><text fill="#000000" font-family="sans-serif" font-size="13" lengthAdjust="spacing" textLength="40" x="378" y="575.9951">volume</text></g><!--MD5=[50db60e91649bd4b7930dc70ac143265]
link promRem to promLoc--><g id="link_promRem_promLoc"><path d="M912.57,352.64 C899.3,362.09 883.25,371.56 867,376.5 C829.47,387.91 199.77,378.54 161,384.5 C126.12,389.86 107.9,380.64 85,407.5 C52.78,445.3 54.33,507.12 58.54,542.46 " fill="none" id="promRem-promLoc" style="stroke:#181818;stroke-width:1.0;"/><text fill="#000000" font-family="sans-serif" font-size="13" lengthAdjust="spacing" textLength="40" x="86" y="444.9951">volume</text></g><!--MD5=[22fcf1e33b40493c5e2fc9dd2c31ffd5]
link logRem to logLoc--><g id="link_logRem_logLoc"><path d="M1049.61,352.61 C1040.27,361.94 1028.66,371.32 1016,376.5 C930.88,411.3 255.2,343.68 189,407.5 C153.17,442.05 161.04,505.96 169.39,542.33 " fill="none" id="logRem-logLoc" style="stroke:#181818;stroke-width:1.0;"/><text fill="#000000" font-family="sans-serif" font-size="13" lengthAdjust="spacing" textLength="40" x="190" y="444.9951">volume</text></g><!--MD5=[5ab18d128b9e03ee7a87eeb6c6f98176]
link contRem to contLoc--><g id="link_contRem_contLoc"><path d="M1240,352.54 C1240,399.45 1240,495.35 1240,542.33 " fill="none" id="contRem-contLoc" style="stroke:#181818;stroke-width:1.0;"/><text fill="#000000" font-family="sans-serif" font-size="13" lengthAdjust="spacing" textLength="40" x="1241" y="444.9951">volume</text></g><!--MD5=[eb490ff470c5a146dc7f61e77394fe28]
link Apache to db--><g id="link_Apache_db"><path d="M809.74,463.51 C817.79,477.84 830.3,495.09 847,503.5 C878.07,519.14 1442.4,494.97 1473,511.5 C1539.05,547.19 1577.71,632.77 1593.94,677 " fill="none" id="Apache-to-db" style="stroke:#181818;stroke-width:1.0;"/><polygon fill="#181818" points="1595.72,681.92,1596.4203,672.0961,1594.0193,677.2181,1588.8973,674.8172,1595.72,681.92" style="stroke:#181818;stroke-width:1.0;"/></g><!--MD5=[5a991882528c63219e1b5976c28aec7f]
link Browser to 80docker--><g id="link_Browser_80docker"><path d="M284,83.64 C284,103.54 284,126.38 284,139.25 " fill="none" id="Browser-to-80docker" style="stroke:#181818;stroke-width:1.0;"/><polygon fill="#181818" points="284,144.42,288,135.42,284,139.42,280,135.42,284,144.42" style="stroke:#181818;stroke-width:1.0;"/></g><!--MD5=[cb2118ce9ce00fc0fce55828fc161e98]
link 80docker to 80webProd--><g id="link_80docker_80webProd"><path d="M290.25,151.3 C332.3,150.11 573.57,145.54 621,195.5 C652.12,228.27 640.22,289.42 633.92,313.44 " fill="none" id="80docker-to-80webProd" style="stroke:#181818;stroke-width:1.0;"/><polygon fill="#181818" points="632.54,318.47,638.7901,310.8584,633.8701,313.6502,631.0783,308.7302,632.54,318.47" style="stroke:#181818;stroke-width:1.0;"/></g><!--MD5=[61323abf26bab5d1b04916da505b1a4b]
link 80webProd to Apache--><g id="link_80webProd_Apache"><path d="M637.38,329.79 C657.26,343.16 719.18,384.81 760.35,412.5 " fill="none" id="80webProd-to-Apache" style="stroke:#181818;stroke-width:1.0;"/><polygon fill="#181818" points="764.52,415.31,759.2899,406.9646,760.373,412.5168,754.8207,413.5999,764.52,415.31" style="stroke:#181818;stroke-width:1.0;"/></g><!--MD5=[6c9defcba7df4322285ad52fbcdac593]
link promInst to Loki--><g id="link_promInst_Loki"><path d="M1460.03,343.82 C1481,353.79 1505.37,367.57 1524,384.5 C1622.24,473.78 1697.31,616.79 1726.14,676.69 " fill="none" id="promInst-to-Loki" style="stroke:#181818;stroke-width:1.0;"/><polygon fill="#181818" points="1728.3,681.2,1728.0287,671.3549,1726.1442,676.6886,1720.8105,674.8041,1728.3,681.2" style="stroke:#181818;stroke-width:1.0;"/></g><!--MD5=[e81b29b1898554611e56465f08d904ba]
@startuml prod_deployment

component Server {
  port "80" as 80docker
  rectangle "Docker Compose - profile 'prod'" as docker {
    node promtail {
      component promtail as promInst
      folder "/etc/promtail" as promRem
      folder "/var/log" as logRem
      folder "/var/lib/docker/containers" as contRem
    }
    node "oem-web-prod" {
      port "80" as 80webProd
      component Apache
      file "/var/www/html/open-etymology-map.ini" as iniRem
    }
  }
  file "web/open-etymology-map.ini" as iniLoc
  folder "promtail" as promLoc
  folder "/var/log" as logLoc
  folder "/var/lib/docker/containers" as contLoc
}
cloud Grafana {
  component Loki
}
actor Browser
cloud {
  database "PostGIS DB" as db
}

iniRem - - - iniLoc : volume
promRem - - - promLoc : volume
logRem - - - logLoc : volume
contRem - - - contLoc : volume

Apache - - -> db

Browser - -> 80docker

80docker - -> 80webProd

80webProd - -> Apache
promInst - - - -> Loki

@enduml

PlantUML version 1.2022.7(Mon Aug 22 19:01:30 CEST 2022)
(GPL source distribution)
Java Runtime: Java(TM) SE Runtime Environment
JVM: Java HotSpot(TM) 64-Bit Server VM
Default Encoding: Cp1252
Language: it
Country: IT
--></g></svg>