<?xml version="1.0" encoding="UTF-8" standalone="no"?><svg xmlns="http://www.w3.org/2000/svg" xmlns:xlink="http://www.w3.org/1999/xlink" contentStyleType="text/css" height="755px" preserveAspectRatio="none" style="width:1766px;height:755px;background:#FFFFFF;" version="1.1" viewBox="0 0 1766 755" width="1766px" zoomAndPan="magnify"><defs/><g><!--MD5=[979da56a7f83e2393dc758167ae295d0]
cluster Server--><g id="cluster_Server"><rect height="590" rx="2.5" ry="2.5" style="stroke:#181818;stroke-width:1.0;fill:none;" width="1485" x="7" y="150.5"/><rect height="10" style="stroke:#181818;stroke-width:1.0;fill:none;" width="15" x="1472" y="155.5"/><rect height="2" style="stroke:#181818;stroke-width:1.0;fill:none;" width="4" x="1470" y="157.5"/><rect height="2" style="stroke:#181818;stroke-width:1.0;fill:none;" width="4" x="1470" y="161.5"/><text fill="#000000" font-family="sans-serif" font-size="14" font-weight="bold" lengthAdjust="spacing" textLength="48" x="725.5" y="178.0332">Server</text></g><!--MD5=[5ec7eedd57310648f8059ffb2621ca4b]
cluster docker--><g id="cluster_docker"><rect height="284" rx="2.5" ry="2.5" style="stroke:#181818;stroke-width:1.0;fill:none;" width="1253" x="215" y="211.5"/><text fill="#000000" font-family="sans-serif" font-size="14" font-weight="bold" lengthAdjust="spacing" textLength="222" x="730.5" y="228.0332">Docker Compose - profile 'prod'</text></g><!--MD5=[1378079a3eb208dbe7e22fc54a3fce11]
cluster promtail--><g id="cluster_promtail"><polygon points="843,265.5,853,255.5,1444,255.5,1444,358.5,1434,368.5,843,368.5,843,265.5" style="stroke:#181818;stroke-width:1.0;fill:none;"/><line style="stroke:#181818;stroke-width:1.0;fill:none;" x1="1434" x2="1444" y1="265.5" y2="255.5"/><line style="stroke:#181818;stroke-width:1.0;fill:none;" x1="843" x2="1434" y1="265.5" y2="265.5"/><line style="stroke:#181818;stroke-width:1.0;fill:none;" x1="1434" x2="1434" y1="265.5" y2="368.5"/><text fill="#000000" font-family="sans-serif" font-size="14" font-weight="bold" lengthAdjust="spacing" textLength="57" x="1111" y="283.0332">promtail</text></g><!--MD5=[dc009d6ea4916a30dfe1f8646118063d]
cluster web_prod--><g id="cluster_web_prod"><polygon points="231,334.5,241,324.5,827,324.5,827,469.5,817,479.5,231,479.5,231,334.5" style="stroke:#181818;stroke-width:1.0;fill:none;"/><line style="stroke:#181818;stroke-width:1.0;fill:none;" x1="817" x2="827" y1="334.5" y2="324.5"/><line style="stroke:#181818;stroke-width:1.0;fill:none;" x1="231" x2="817" y1="334.5" y2="334.5"/><line style="stroke:#181818;stroke-width:1.0;fill:none;" x1="817" x2="817" y1="334.5" y2="479.5"/><text fill="#000000" font-family="sans-serif" font-size="14" font-weight="bold" lengthAdjust="spacing" textLength="70" x="490" y="352.0332">web_prod</text></g><!--MD5=[6388e1a0d028400310670bd3eeb67932]
cluster Grafana--><g id="cluster_Grafana"><path d="M1667.8522,654.9499 C1670.5266,648.6585 1675.239,647.1196 1680.514,652.0033 C1684.3729,645.2805 1688.5516,643.9737 1694.2759,649.9878 C1697.3359,642.3463 1704.0496,641.6146 1708.2634,648.9071 C1712.5767,642.3245 1717.2542,643.9557 1720.9805,649.5217 C1726.4241,644.1308 1732.0722,644.5249 1735.924,651.4526 C1742.2915,646.0761 1747.2126,647.7552 1749.5143,655.6242 C1757.2101,658.4649 1756.7236,665.0485 1751.1509,669.4588 C1757.1374,674.1298 1757.01,678.221 1750.1558,681.8618 C1757.1323,684.6719 1759.0138,690.8022 1752.4645,695.8454 C1758.4008,699.7551 1758.6269,706.1767 1752.017,709.6806 C1757.5131,714.9058 1758.6158,719.4653 1750.9408,723.6778 C1756.8015,729.4211 1757.5823,735.3638 1748.6513,738.8792 C1744.961,744.7399 1739.7849,744.3852 1736.0502,738.9287 C1733.2986,746.9346 1726.479,746.3577 1722.1718,740.4842 C1718.4721,746.7323 1712.2218,748.108 1708.1773,740.8412 C1704.2869,747.2238 1698.1049,747.1347 1695.0016,740.0699 C1689.4783,747.3513 1684.8486,746.7481 1679.8988,739.4747 C1675.4933,744.9546 1671.8738,744.1274 1668.1571,738.7312 C1661.0924,735.4393 1658.3757,730.5094 1664.707,724.066 C1656.6799,721.8946 1656.4598,717.5257 1660.9178,711.5687 C1652.2672,708.2304 1652.0598,701.5286 1659.2947,696.4814 C1654.634,690.7681 1654.8234,686.4624 1662.2613,683.5179 C1656.0382,677.8992 1657.3662,672.0088 1664.8766,668.8365 C1658.9773,663.6036 1660.0406,657.2448 1667.8522,654.9499 " style="stroke:#181818;stroke-width:1.0;fill:none;"/><text fill="#000000" font-family="sans-serif" font-size="14" font-weight="bold" lengthAdjust="spacing" textLength="55" x="1679.5" y="673.0332">Grafana</text></g><g id="cluster_##22"><path d="M1517.4661,675.4069 C1520.1266,670.151 1524.6623,669.3333 1528.9839,673.3417 C1531.9403,668.028 1535.3132,666.9637 1539.4617,672.1525 C1541.1563,666.2643 1545.8769,666.4292 1549.3341,670.3849 C1552.5749,663.4987 1556.5195,662.8179 1562.0098,668.0275 C1565.0791,661.8642 1568.3203,661.8648 1572.5482,666.9411 C1576.7771,662.8308 1579.9614,663.8344 1582.115,669.0663 C1586.5112,664.0097 1591.096,664.6785 1594.2141,670.4893 C1598.5999,665.4251 1602.3324,665.9456 1605.9884,671.3131 C1610.5946,667.1152 1614.0549,668.1528 1616.2224,673.8384 C1620.1571,669.6405 1623.8117,669.9692 1626.3091,675.3516 C1635.2217,679.3263 1635.9649,683.8287 1628.5535,690.2607 C1635.7834,693.8081 1637.2762,700.5891 1630.1351,705.6168 C1637.6526,711.1826 1638.1145,718.6702 1629.0175,723.1787 C1636.1272,729.8497 1634.856,734.6042 1626.0513,738.1147 C1624.1038,743.2246 1619.8202,743.6258 1616.5436,739.48 C1612.4577,744.3027 1609.3309,743.2009 1605.9957,738.6365 C1602.3716,743.7619 1598.3983,744.1828 1594.295,739.1907 C1590.488,744.6334 1586.2987,743.5976 1583.2181,738.4323 C1580.0177,743.7462 1576.5393,743.3901 1572.9288,738.8611 C1570.0545,744.517 1564.875,744.6908 1561.4846,739.4006 C1558.5542,744.401 1554.1429,743.7579 1551.1347,739.4876 C1547.6823,744.8838 1543.6625,745.7449 1539.9339,739.7594 C1535.5382,744.2415 1531.7199,744.8166 1528.4134,738.5879 C1525.3807,743.8919 1520.5334,742.9222 1517.6203,738.4558 C1509.6591,734.9838 1507.5319,730.1642 1513.9856,723.2472 C1505.9874,719.3923 1503.4019,711.6483 1511.5731,705.5848 C1504.5378,699.8675 1505.9237,693.4937 1514.3061,690.5856 C1507.2237,684.3541 1509.9305,678.595 1517.4661,675.4069 " style="stroke:#181818;stroke-width:1.0;fill:none;"/></g><text fill="#000000" font-family="sans-serif" font-size="14" lengthAdjust="spacing" textLength="16" x="272" y="129.4238">80</text><rect fill="#181818" height="12" style="stroke:#F1F1F1;stroke-width:1.5;" width="12" x="274" y="144.5"/><!--MD5=[a8169eed548a0c7d82578bde971bff5e]
entity iniLoc--><g id="elem_iniLoc"><path d="M277,689 L277,721.6094 A2.5,2.5 0 0 0 279.5,724.1094 L474.5,724.1094 A2.5,2.5 0 0 0 477,721.6094 L477,696.5 L467,686.5 L279.5,686.5 A2.5,2.5 0 0 0 277,689 " fill="#F1F1F1" style="stroke:#181818;stroke-width:0.5;"/><path d="M467,686.5 L467,694 A2.5,2.5 0 0 0 469.5,696.5 L477,696.5 " fill="#F1F1F1" style="stroke:#181818;stroke-width:0.5;"/><text fill="#000000" font-family="sans-serif" font-size="14" lengthAdjust="spacing" textLength="180" x="287" y="711.0332">web/open-etymology-map.ini</text></g><!--MD5=[fe722160842ab3083f161a2a7f9d8b06]
entity promLoc--><g id="elem_promLoc"><path d="M25.5,542.5 L66.5,542.5 A3.75,3.75 0 0 1 69,545 L76,563.5 L100.5,563.5 A2.5,2.5 0 0 1 103,566 L103,595.6094 A2.5,2.5 0 0 1 100.5,598.1094 L25.5,598.1094 A2.5,2.5 0 0 1 23,595.6094 L23,545 A2.5,2.5 0 0 1 25.5,542.5 " fill="#F1F1F1" style="stroke:#181818;stroke-width:0.5;"/><line style="stroke:#181818;stroke-width:0.5;" x1="23" x2="76" y1="563.5" y2="563.5"/><text fill="#000000" font-family="sans-serif" font-size="14" lengthAdjust="spacing" textLength="50" x="33" y="585.0332">promtail</text></g><!--MD5=[3b39491c4ae0f967d0fda10cc6fa8ffe]
entity logLoc--><g id="elem_logLoc"><path d="M141,542.5 L182,542.5 A3.75,3.75 0 0 1 184.5,545 L191.5,563.5 L213,563.5 A2.5,2.5 0 0 1 215.5,566 L215.5,595.6094 A2.5,2.5 0 0 1 213,598.1094 L141,598.1094 A2.5,2.5 0 0 1 138.5,595.6094 L138.5,545 A2.5,2.5 0 0 1 141,542.5 " fill="#F1F1F1" style="stroke:#181818;stroke-width:0.5;"/><line style="stroke:#181818;stroke-width:0.5;" x1="138.5" x2="191.5" y1="563.5" y2="563.5"/><text fill="#000000" font-family="sans-serif" font-size="14" lengthAdjust="spacing" textLength="47" x="148.5" y="585.0332">/var/log</text></g><!--MD5=[8a1bc4818159efcbc0ef1e4cbabd56ff]
entity contLoc--><g id="elem_contLoc"><path d="M1116,542.5 L1157,542.5 A3.75,3.75 0 0 1 1159.5,545 L1166.5,563.5 L1300,563.5 A2.5,2.5 0 0 1 1302.5,566 L1302.5,595.6094 A2.5,2.5 0 0 1 1300,598.1094 L1116,598.1094 A2.5,2.5 0 0 1 1113.5,595.6094 L1113.5,545 A2.5,2.5 0 0 1 1116,542.5 " fill="#F1F1F1" style="stroke:#181818;stroke-width:0.5;"/><line style="stroke:#181818;stroke-width:0.5;" x1="1113.5" x2="1166.5" y1="563.5" y2="563.5"/><text fill="#000000" font-family="sans-serif" font-size="14" lengthAdjust="spacing" textLength="159" x="1123.5" y="585.0332">/var/lib/docker/containers</text></g><!--MD5=[875c34bedf132272c73e8bf9e31e6d44]
entity promInst--><g id="elem_promInst"><rect fill="#F1F1F1" height="47.6094" rx="2.5" ry="2.5" style="stroke:#181818;stroke-width:0.5;" width="90" x="1338" y="300.5"/><rect fill="#F1F1F1" height="10" style="stroke:#181818;stroke-width:0.5;" width="15" x="1408" y="305.5"/><rect fill="#F1F1F1" height="2" style="stroke:#181818;stroke-width:0.5;" width="4" x="1406" y="307.5"/><rect fill="#F1F1F1" height="2" style="stroke:#181818;stroke-width:0.5;" width="4" x="1406" y="311.5"/><text fill="#000000" font-family="sans-serif" font-size="14" lengthAdjust="spacing" textLength="50" x="1353" y="335.0332">promtail</text></g><!--MD5=[1a8b14acf4dc880aa72774a119d7c5e8]
entity promRem--><g id="elem_promRem"><path d="M862,296.5 L903,296.5 A3.75,3.75 0 0 1 905.5,299 L912.5,317.5 L964,317.5 A2.5,2.5 0 0 1 966.5,320 L966.5,349.6094 A2.5,2.5 0 0 1 964,352.1094 L862,352.1094 A2.5,2.5 0 0 1 859.5,349.6094 L859.5,299 A2.5,2.5 0 0 1 862,296.5 " fill="#F1F1F1" style="stroke:#181818;stroke-width:0.5;"/><line style="stroke:#181818;stroke-width:0.5;" x1="859.5" x2="912.5" y1="317.5" y2="317.5"/><text fill="#000000" font-family="sans-serif" font-size="14" lengthAdjust="spacing" textLength="77" x="869.5" y="339.0332">/etc/promtail</text></g><!--MD5=[25ffd4bc1314c23ec09359623d3cc278]
entity logRem--><g id="elem_logRem"><path d="M1004,296.5 L1045,296.5 A3.75,3.75 0 0 1 1047.5,299 L1054.5,317.5 L1076,317.5 A2.5,2.5 0 0 1 1078.5,320 L1078.5,349.6094 A2.5,2.5 0 0 1 1076,352.1094 L1004,352.1094 A2.5,2.5 0 0 1 1001.5,349.6094 L1001.5,299 A2.5,2.5 0 0 1 1004,296.5 " fill="#F1F1F1" style="stroke:#181818;stroke-width:0.5;"/><line style="stroke:#181818;stroke-width:0.5;" x1="1001.5" x2="1054.5" y1="317.5" y2="317.5"/><text fill="#000000" font-family="sans-serif" font-size="14" lengthAdjust="spacing" textLength="47" x="1011.5" y="339.0332">/var/log</text></g><!--MD5=[9e1b1bfa93650452d9caff88db08b3e1]
entity contRem--><g id="elem_contRem"><path d="M1116,296.5 L1157,296.5 A3.75,3.75 0 0 1 1159.5,299 L1166.5,317.5 L1300,317.5 A2.5,2.5 0 0 1 1302.5,320 L1302.5,349.6094 A2.5,2.5 0 0 1 1300,352.1094 L1116,352.1094 A2.5,2.5 0 0 1 1113.5,349.6094 L1113.5,299 A2.5,2.5 0 0 1 1116,296.5 " fill="#F1F1F1" style="stroke:#181818;stroke-width:0.5;"/><line style="stroke:#181818;stroke-width:0.5;" x1="1113.5" x2="1166.5" y1="317.5" y2="317.5"/><text fill="#000000" font-family="sans-serif" font-size="14" lengthAdjust="spacing" textLength="159" x="1123.5" y="339.0332">/var/lib/docker/containers</text></g><text fill="#000000" font-family="sans-serif" font-size="14" lengthAdjust="spacing" textLength="16" x="607" y="303.4238">80</text><rect fill="#181818" height="12" style="stroke:#F1F1F1;stroke-width:1.5;" width="12" x="609" y="318.5"/><!--MD5=[a0fef4f34cb3559b44f1c4ed44c10eb8]
entity Apache--><g id="elem_Apache"><rect fill="#F1F1F1" height="47.6094" rx="2.5" ry="2.5" style="stroke:#181818;stroke-width:0.5;" width="88" x="723" y="415.5"/><rect fill="#F1F1F1" height="10" style="stroke:#181818;stroke-width:0.5;" width="15" x="791" y="420.5"/><rect fill="#F1F1F1" height="2" style="stroke:#181818;stroke-width:0.5;" width="4" x="789" y="422.5"/><rect fill="#F1F1F1" height="2" style="stroke:#181818;stroke-width:0.5;" width="4" x="789" y="426.5"/><text fill="#000000" font-family="sans-serif" font-size="14" lengthAdjust="spacing" textLength="48" x="738" y="450.0332">Apache</text></g><!--MD5=[1d74834b301146432ddf9bdce26c5d3d]
entity iniRem--><g id="elem_iniRem"><path d="M247,423 L247,455.6094 A2.5,2.5 0 0 0 249.5,458.1094 L504.5,458.1094 A2.5,2.5 0 0 0 507,455.6094 L507,430.5 L497,420.5 L249.5,420.5 A2.5,2.5 0 0 0 247,423 " fill="#F1F1F1" style="stroke:#181818;stroke-width:0.5;"/><path d="M497,420.5 L497,428 A2.5,2.5 0 0 0 499.5,430.5 L507,430.5 " fill="#F1F1F1" style="stroke:#181818;stroke-width:0.5;"/><text fill="#000000" font-family="sans-serif" font-size="14" lengthAdjust="spacing" textLength="240" x="257" y="445.0332">/var/www/html/open-etymology-map.ini</text></g><!--MD5=[331b67947ba2840a66d34c20f83daee9]
entity Loki--><g id="elem_Loki"><rect fill="#F1F1F1" height="47.6094" rx="2.5" ry="2.5" style="stroke:#181818;stroke-width:0.5;" width="66" x="1674" y="681.5"/><rect fill="#F1F1F1" height="10" style="stroke:#181818;stroke-width:0.5;" width="15" x="1720" y="686.5"/><rect fill="#F1F1F1" height="2" style="stroke:#181818;stroke-width:0.5;" width="4" x="1718" y="688.5"/><rect fill="#F1F1F1" height="2" style="stroke:#181818;stroke-width:0.5;" width="4" x="1718" y="692.5"/><text fill="#000000" font-family="sans-serif" font-size="14" lengthAdjust="spacing" textLength="26" x="1689" y="716.0332">Loki</text></g><!--MD5=[7468467f3b6b392f1d176d828c753b77]
entity db--><g id="elem_db"><path d="M1524,692 C1524,682 1571,682 1571,682 C1571,682 1618,682 1618,692 L1618,718.6094 C1618,728.6094 1571,728.6094 1571,728.6094 C1571,728.6094 1524,728.6094 1524,718.6094 L1524,692 " fill="#F1F1F1" style="stroke:#181818;stroke-width:0.5;"/><path d="M1524,692 C1524,702 1571,702 1571,702 C1571,702 1618,702 1618,692 " fill="none" style="stroke:#181818;stroke-width:0.5;"/><text fill="#000000" font-family="sans-serif" font-size="14" lengthAdjust="spacing" textLength="74" x="1534" y="720.5332">PostGIS DB</text></g><!--MD5=[e9dede37b31fdda9664526f66258b036]
entity Browser--><g id="elem_Browser"><ellipse cx="280" cy="14" fill="#F1F1F1" rx="8" ry="8" style="stroke:#181818;stroke-width:0.5;"/><path d="M280,22 L280,49 M267,30 L293,30 M280,49 L267,64 M280,49 L293,64 " fill="none" style="stroke:#181818;stroke-width:0.5;"/><text fill="#000000" font-family="sans-serif" font-size="14" lengthAdjust="spacing" textLength="51" x="254.5" y="80.0332">Browser</text></g><!--MD5=[ce73862c0858b25560dc7c009d66c067]
link iniRem to iniLoc--><g id="link_iniRem_iniLoc"><path d="M377,458.65 C377,506.87 377,637.85 377,686.23 " fill="none" id="iniRem-iniLoc" style="stroke:#181818;stroke-width:1.0;"/><text fill="#000000" font-family="sans-serif" font-size="13" lengthAdjust="spacing" textLength="40" x="378" y="575.9951">volume</text></g><!--MD5=[50db60e91649bd4b7930dc70ac143265]
link promRem to promLoc--><g id="link_promRem_promLoc"><path d="M880.56,352.64 C867.29,362.08 851.25,371.55 835,376.5 C799.18,387.4 198.01,378.8 161,384.5 C126.12,389.87 107.9,380.64 85,407.5 C52.78,445.3 54.33,507.12 58.54,542.46 " fill="none" id="promRem-promLoc" style="stroke:#181818;stroke-width:1.0;"/><text fill="#000000" font-family="sans-serif" font-size="13" lengthAdjust="spacing" textLength="40" x="86" y="444.9951">volume</text></g><!--MD5=[22fcf1e33b40493c5e2fc9dd2c31ffd5]
link logRem to logLoc--><g id="link_logRem_logLoc"><path d="M1017.6,352.6 C1008.27,361.93 996.65,371.32 984,376.5 C902.2,410.01 252.59,346.09 189,407.5 C153.19,442.08 161.06,505.98 169.39,542.34 " fill="none" id="logRem-logLoc" style="stroke:#181818;stroke-width:1.0;"/><text fill="#000000" font-family="sans-serif" font-size="13" lengthAdjust="spacing" textLength="40" x="190" y="444.9951">volume</text></g><!--MD5=[5ab18d128b9e03ee7a87eeb6c6f98176]
link contRem to contLoc--><g id="link_contRem_contLoc"><path d="M1208,352.54 C1208,399.45 1208,495.35 1208,542.33 " fill="none" id="contRem-contLoc" style="stroke:#181818;stroke-width:1.0;"/><text fill="#000000" font-family="sans-serif" font-size="13" lengthAdjust="spacing" textLength="40" x="1209" y="444.9951">volume</text></g><!--MD5=[eb490ff470c5a146dc7f61e77394fe28]
link Apache to db--><g id="link_Apache_db"><path d="M777.74,463.51 C785.79,477.84 798.3,495.09 815,503.5 C846.07,519.14 1410.4,494.97 1441,511.5 C1507.05,547.19 1545.71,632.77 1561.94,677 " fill="none" id="Apache-to-db" style="stroke:#181818;stroke-width:1.0;"/><polygon fill="#181818" points="1563.72,681.92,1564.4203,672.0961,1562.0193,677.2181,1556.8973,674.8172,1563.72,681.92" style="stroke:#181818;stroke-width:1.0;"/></g><!--MD5=[5a991882528c63219e1b5976c28aec7f]
link Browser to 80docker--><g id="link_Browser_80docker"><path d="M280,83.64 C280,103.54 280,126.38 280,139.25 " fill="none" id="Browser-to-80docker" style="stroke:#181818;stroke-width:1.0;"/><polygon fill="#181818" points="280,144.42,284,135.42,280,139.42,276,135.42,280,144.42" style="stroke:#181818;stroke-width:1.0;"/></g><!--MD5=[cb2118ce9ce00fc0fce55828fc161e98]
link 80docker to 80webProd--><g id="link_80docker_80webProd"><path d="M286.03,151.34 C326.59,150.4 559.34,147.18 605,195.5 C636.04,228.35 624.19,289.45 617.91,313.45 " fill="none" id="80docker-to-80webProd" style="stroke:#181818;stroke-width:1.0;"/><polygon fill="#181818" points="616.53,318.47,622.7801,310.8584,617.8601,313.6502,615.0683,308.7302,616.53,318.47" style="stroke:#181818;stroke-width:1.0;"/></g><!--MD5=[61323abf26bab5d1b04916da505b1a4b]
link 80webProd to Apache--><g id="link_80webProd_Apache"><path d="M621.15,330.07 C639.45,343.68 694.63,384.7 731.63,412.2 " fill="none" id="80webProd-to-Apache" style="stroke:#181818;stroke-width:1.0;"/><polygon fill="#181818" points="736.04,415.49,731.2057,406.9093,732.028,412.506,726.4313,413.3284,736.04,415.49" style="stroke:#181818;stroke-width:1.0;"/></g><!--MD5=[6c9defcba7df4322285ad52fbcdac593]
link promInst to Loki--><g id="link_promInst_Loki"><path d="M1428.03,343.82 C1449,353.79 1473.37,367.57 1492,384.5 C1590.24,473.78 1665.31,616.79 1694.14,676.69 " fill="none" id="promInst-to-Loki" style="stroke:#181818;stroke-width:1.0;"/><polygon fill="#181818" points="1696.3,681.2,1696.0287,671.3549,1694.1442,676.6886,1688.8105,674.8041,1696.3,681.2" style="stroke:#181818;stroke-width:1.0;"/></g><!--MD5=[60db932566f43d118b6a9c8eb82586a2]
@startuml prod_deployment

component Server {
  port "80" as 80docker
  rectangle "Docker Compose - profile 'prod'" as docker {
    node promtail {
      component promtail as promInst
      folder "/etc/promtail" as promRem
      folder "/var/log" as logRem
      folder "/var/lib/docker/containers" as contRem
    }
    node web_prod {
      port "80" as 80webProd
      component Apache
      file "/var/www/html/open-etymology-map.ini" as iniRem
    }
  }
  file "web/open-etymology-map.ini" as iniLoc
  folder "promtail" as promLoc
  folder "/var/log" as logLoc
  folder "/var/lib/docker/containers" as contLoc
}
cloud Grafana {
  component Loki
}
actor Browser
cloud {
  database "PostGIS DB" as db
}

iniRem - - - iniLoc : volume
promRem - - - promLoc : volume
logRem - - - logLoc : volume
contRem - - - contLoc : volume

Apache - - -> db

Browser - -> 80docker

80docker - -> 80webProd

80webProd - -> Apache
promInst - - - -> Loki

@enduml

PlantUML version 1.2022.5(Sat Apr 30 12:55:52 CEST 2022)
(GPL source distribution)
Java Runtime: Java(TM) SE Runtime Environment
JVM: Java HotSpot(TM) 64-Bit Server VM
Default Encoding: Cp1252
Language: it
Country: IT
--></g></svg>