<?xml version="1.0" encoding="UTF-8" standalone="no"?><svg xmlns="http://www.w3.org/2000/svg" xmlns:xlink="http://www.w3.org/1999/xlink" contentStyleType="text/css" height="810px" preserveAspectRatio="none" style="width:1929px;height:810px;background:#FFFFFF;" version="1.1" viewBox="0 0 1929 810" width="1929px" zoomAndPan="magnify"><defs/><g><!--MD5=[979da56a7f83e2393dc758167ae295d0]
cluster Server--><g id="cluster_Server"><rect height="614" rx="2.5" ry="2.5" style="stroke:#181818;stroke-width:1.0;fill:none;" width="1798" x="7" y="190.5"/><rect height="10" style="stroke:#181818;stroke-width:1.0;fill:none;" width="15" x="1785" y="195.5"/><rect height="2" style="stroke:#181818;stroke-width:1.0;fill:none;" width="4" x="1783" y="197.5"/><rect height="2" style="stroke:#181818;stroke-width:1.0;fill:none;" width="4" x="1783" y="201.5"/><text fill="#000000" font-family="sans-serif" font-size="14" font-weight="bold" lengthAdjust="spacing" textLength="48" x="882" y="218.0332">Server</text></g><!--MD5=[5ec7eedd57310648f8059ffb2621ca4b]
cluster docker--><g id="cluster_docker"><rect height="509" rx="2.5" ry="2.5" style="stroke:#181818;stroke-width:1.0;fill:none;" width="1253" x="103" y="271.5"/><text fill="#000000" font-family="sans-serif" font-size="14" font-weight="bold" lengthAdjust="spacing" textLength="326" x="566.5" y="288.0332">Docker Compose - profile 'prod_with_local_db'</text></g><!--MD5=[5b05362f9085fa3961b071650a506521]
cluster postgis_db--><g id="cluster_postgis_db"><polygon points="342,622.5,352,612.5,541,612.5,541,754.5,531,764.5,342,764.5,342,622.5" style="stroke:#181818;stroke-width:1.0;fill:none;"/><line style="stroke:#181818;stroke-width:1.0;fill:none;" x1="531" x2="541" y1="622.5" y2="612.5"/><line style="stroke:#181818;stroke-width:1.0;fill:none;" x1="342" x2="531" y1="622.5" y2="622.5"/><line style="stroke:#181818;stroke-width:1.0;fill:none;" x1="531" x2="531" y1="622.5" y2="764.5"/><text fill="#000000" font-family="sans-serif" font-size="14" font-weight="bold" lengthAdjust="spacing" textLength="78" x="398.5" y="640.0332">postgis_db</text></g><!--MD5=[1378079a3eb208dbe7e22fc54a3fce11]
cluster promtail--><g id="cluster_promtail"><polygon points="731,325.5,741,315.5,1332,315.5,1332,418.5,1322,428.5,731,428.5,731,325.5" style="stroke:#181818;stroke-width:1.0;fill:none;"/><line style="stroke:#181818;stroke-width:1.0;fill:none;" x1="1322" x2="1332" y1="325.5" y2="315.5"/><line style="stroke:#181818;stroke-width:1.0;fill:none;" x1="731" x2="1322" y1="325.5" y2="325.5"/><line style="stroke:#181818;stroke-width:1.0;fill:none;" x1="1322" x2="1322" y1="325.5" y2="428.5"/><text fill="#000000" font-family="sans-serif" font-size="14" font-weight="bold" lengthAdjust="spacing" textLength="57" x="999" y="343.0332">promtail</text></g><!--MD5=[dc009d6ea4916a30dfe1f8646118063d]
cluster web_prod--><g id="cluster_web_prod"><polygon points="190,394.5,200,384.5,715,384.5,715,529.5,705,539.5,190,539.5,190,394.5" style="stroke:#181818;stroke-width:1.0;fill:none;"/><line style="stroke:#181818;stroke-width:1.0;fill:none;" x1="705" x2="715" y1="394.5" y2="384.5"/><line style="stroke:#181818;stroke-width:1.0;fill:none;" x1="190" x2="705" y1="394.5" y2="394.5"/><line style="stroke:#181818;stroke-width:1.0;fill:none;" x1="705" x2="705" y1="394.5" y2="539.5"/><text fill="#000000" font-family="sans-serif" font-size="14" font-weight="bold" lengthAdjust="spacing" textLength="70" x="413.5" y="412.0332">web_prod</text></g><!--MD5=[6388e1a0d028400310670bd3eeb67932]
cluster Grafana--><g id="cluster_Grafana"><path d="M1830.8522,139.9499 C1833.5266,133.6585 1838.239,132.1196 1843.514,137.0033 C1847.3729,130.2805 1851.5516,128.9737 1857.2759,134.9878 C1860.3359,127.3463 1867.0496,126.6146 1871.2634,133.9071 C1875.5767,127.3245 1880.2542,128.9557 1883.9805,134.5217 C1889.4241,129.1308 1895.0722,129.5249 1898.924,136.4526 C1905.2915,131.0761 1910.2126,132.7552 1912.5143,140.6242 C1920.2101,143.4649 1919.7236,150.0485 1914.1509,154.4588 C1920.1374,159.1298 1920.01,163.221 1913.1558,166.8618 C1920.1323,169.6719 1922.0138,175.8022 1915.4645,180.8454 C1921.4008,184.7551 1921.6269,191.1767 1915.017,194.6806 C1920.5131,199.9058 1921.6158,204.4653 1913.9408,208.6778 C1919.8015,214.4211 1920.5823,220.3638 1911.6513,223.8792 C1907.961,229.7399 1902.7849,229.3852 1899.0502,223.9287 C1896.2986,231.9346 1889.479,231.3577 1885.1718,225.4842 C1881.4721,231.7323 1875.2218,233.108 1871.1773,225.8412 C1867.2869,232.2238 1861.1049,232.1347 1858.0016,225.0699 C1852.4783,232.3513 1847.8486,231.7481 1842.8988,224.4747 C1838.4933,229.9546 1834.8738,229.1274 1831.1571,223.7312 C1824.0924,220.4393 1821.3757,215.5094 1827.707,209.066 C1819.6799,206.8946 1819.4598,202.5257 1823.9178,196.5687 C1815.2672,193.2304 1815.0598,186.5286 1822.2947,181.4814 C1817.634,175.7681 1817.8234,171.4624 1825.2613,168.5179 C1819.0382,162.8992 1820.3662,157.0088 1827.8766,153.8365 C1821.9773,148.6036 1823.0406,142.2448 1830.8522,139.9499 " style="stroke:#181818;stroke-width:1.0;fill:none;"/><text fill="#000000" font-family="sans-serif" font-size="14" font-weight="bold" lengthAdjust="spacing" textLength="55" x="1842.5" y="158.0332">Grafana</text></g><text fill="#000000" font-family="sans-serif" font-size="14" lengthAdjust="spacing" textLength="16" x="142" y="169.4238">80</text><rect fill="#181818" height="12" style="stroke:#F1F1F1;stroke-width:1.5;" width="12" x="144" y="184.5"/><!--MD5=[a8169eed548a0c7d82578bde971bff5e]
entity iniLoc--><g id="elem_iniLoc"><path d="M1372,708.5 L1372,741.1094 A2.5,2.5 0 0 0 1374.5,743.6094 L1569.5,743.6094 A2.5,2.5 0 0 0 1572,741.1094 L1572,716 L1562,706 L1374.5,706 A2.5,2.5 0 0 0 1372,708.5 " fill="#F1F1F1" style="stroke:#181818;stroke-width:0.5;"/><path d="M1562,706 L1562,713.5 A2.5,2.5 0 0 0 1564.5,716 L1572,716 " fill="#F1F1F1" style="stroke:#181818;stroke-width:0.5;"/><text fill="#000000" font-family="sans-serif" font-size="14" lengthAdjust="spacing" textLength="180" x="1382" y="730.5332">web/open-etymology-map.ini</text></g><!--MD5=[fe722160842ab3083f161a2a7f9d8b06]
entity promLoc--><g id="elem_promLoc"><path d="M1374.5,584.5 L1415.5,584.5 A3.75,3.75 0 0 1 1418,587 L1425,605.5 L1449.5,605.5 A2.5,2.5 0 0 1 1452,608 L1452,637.6094 A2.5,2.5 0 0 1 1449.5,640.1094 L1374.5,640.1094 A2.5,2.5 0 0 1 1372,637.6094 L1372,587 A2.5,2.5 0 0 1 1374.5,584.5 " fill="#F1F1F1" style="stroke:#181818;stroke-width:0.5;"/><line style="stroke:#181818;stroke-width:0.5;" x1="1372" x2="1425" y1="605.5" y2="605.5"/><text fill="#000000" font-family="sans-serif" font-size="14" lengthAdjust="spacing" textLength="50" x="1382" y="627.0332">promtail</text></g><!--MD5=[3b39491c4ae0f967d0fda10cc6fa8ffe]
entity logLoc--><g id="elem_logLoc"><path d="M1490,584.5 L1531,584.5 A3.75,3.75 0 0 1 1533.5,587 L1540.5,605.5 L1562,605.5 A2.5,2.5 0 0 1 1564.5,608 L1564.5,637.6094 A2.5,2.5 0 0 1 1562,640.1094 L1490,640.1094 A2.5,2.5 0 0 1 1487.5,637.6094 L1487.5,587 A2.5,2.5 0 0 1 1490,584.5 " fill="#F1F1F1" style="stroke:#181818;stroke-width:0.5;"/><line style="stroke:#181818;stroke-width:0.5;" x1="1487.5" x2="1540.5" y1="605.5" y2="605.5"/><text fill="#000000" font-family="sans-serif" font-size="14" lengthAdjust="spacing" textLength="47" x="1497.5" y="627.0332">/var/log</text></g><!--MD5=[8a1bc4818159efcbc0ef1e4cbabd56ff]
entity contLoc--><g id="elem_contLoc"><path d="M1602,584.5 L1643,584.5 A3.75,3.75 0 0 1 1645.5,587 L1652.5,605.5 L1786,605.5 A2.5,2.5 0 0 1 1788.5,608 L1788.5,637.6094 A2.5,2.5 0 0 1 1786,640.1094 L1602,640.1094 A2.5,2.5 0 0 1 1599.5,637.6094 L1599.5,587 A2.5,2.5 0 0 1 1602,584.5 " fill="#F1F1F1" style="stroke:#181818;stroke-width:0.5;"/><line style="stroke:#181818;stroke-width:0.5;" x1="1599.5" x2="1652.5" y1="605.5" y2="605.5"/><text fill="#000000" font-family="sans-serif" font-size="14" lengthAdjust="spacing" textLength="159" x="1609.5" y="627.0332">/var/lib/docker/containers</text></g><text fill="#000000" font-family="sans-serif" font-size="14" lengthAdjust="spacing" textLength="32" x="344" y="591.4238">5432</text><rect fill="#181818" height="12" style="stroke:#F1F1F1;stroke-width:1.5;" width="12" x="354" y="606.5"/><!--MD5=[7468467f3b6b392f1d176d828c753b77]
entity db--><g id="elem_db"><path d="M431,711.5 C431,701.5 478,701.5 478,701.5 C478,701.5 525,701.5 525,711.5 L525,738.1094 C525,748.1094 478,748.1094 478,748.1094 C478,748.1094 431,748.1094 431,738.1094 L431,711.5 " fill="#F1F1F1" style="stroke:#181818;stroke-width:0.5;"/><path d="M431,711.5 C431,721.5 478,721.5 478,721.5 C478,721.5 525,721.5 525,711.5 " fill="none" style="stroke:#181818;stroke-width:0.5;"/><text fill="#000000" font-family="sans-serif" font-size="14" lengthAdjust="spacing" textLength="74" x="441" y="740.0332">PostGIS DB</text></g><!--MD5=[875c34bedf132272c73e8bf9e31e6d44]
entity promInst--><g id="elem_promInst"><rect fill="#F1F1F1" height="47.6094" rx="2.5" ry="2.5" style="stroke:#181818;stroke-width:0.5;" width="90" x="1226" y="360.5"/><rect fill="#F1F1F1" height="10" style="stroke:#181818;stroke-width:0.5;" width="15" x="1296" y="365.5"/><rect fill="#F1F1F1" height="2" style="stroke:#181818;stroke-width:0.5;" width="4" x="1294" y="367.5"/><rect fill="#F1F1F1" height="2" style="stroke:#181818;stroke-width:0.5;" width="4" x="1294" y="371.5"/><text fill="#000000" font-family="sans-serif" font-size="14" lengthAdjust="spacing" textLength="50" x="1241" y="395.0332">promtail</text></g><!--MD5=[1a8b14acf4dc880aa72774a119d7c5e8]
entity promRem--><g id="elem_promRem"><path d="M750,356.5 L791,356.5 A3.75,3.75 0 0 1 793.5,359 L800.5,377.5 L852,377.5 A2.5,2.5 0 0 1 854.5,380 L854.5,409.6094 A2.5,2.5 0 0 1 852,412.1094 L750,412.1094 A2.5,2.5 0 0 1 747.5,409.6094 L747.5,359 A2.5,2.5 0 0 1 750,356.5 " fill="#F1F1F1" style="stroke:#181818;stroke-width:0.5;"/><line style="stroke:#181818;stroke-width:0.5;" x1="747.5" x2="800.5" y1="377.5" y2="377.5"/><text fill="#000000" font-family="sans-serif" font-size="14" lengthAdjust="spacing" textLength="77" x="757.5" y="399.0332">/etc/promtail</text></g><!--MD5=[25ffd4bc1314c23ec09359623d3cc278]
entity logRem--><g id="elem_logRem"><path d="M892,356.5 L933,356.5 A3.75,3.75 0 0 1 935.5,359 L942.5,377.5 L964,377.5 A2.5,2.5 0 0 1 966.5,380 L966.5,409.6094 A2.5,2.5 0 0 1 964,412.1094 L892,412.1094 A2.5,2.5 0 0 1 889.5,409.6094 L889.5,359 A2.5,2.5 0 0 1 892,356.5 " fill="#F1F1F1" style="stroke:#181818;stroke-width:0.5;"/><line style="stroke:#181818;stroke-width:0.5;" x1="889.5" x2="942.5" y1="377.5" y2="377.5"/><text fill="#000000" font-family="sans-serif" font-size="14" lengthAdjust="spacing" textLength="47" x="899.5" y="399.0332">/var/log</text></g><!--MD5=[9e1b1bfa93650452d9caff88db08b3e1]
entity contRem--><g id="elem_contRem"><path d="M1004,356.5 L1045,356.5 A3.75,3.75 0 0 1 1047.5,359 L1054.5,377.5 L1188,377.5 A2.5,2.5 0 0 1 1190.5,380 L1190.5,409.6094 A2.5,2.5 0 0 1 1188,412.1094 L1004,412.1094 A2.5,2.5 0 0 1 1001.5,409.6094 L1001.5,359 A2.5,2.5 0 0 1 1004,356.5 " fill="#F1F1F1" style="stroke:#181818;stroke-width:0.5;"/><line style="stroke:#181818;stroke-width:0.5;" x1="1001.5" x2="1054.5" y1="377.5" y2="377.5"/><text fill="#000000" font-family="sans-serif" font-size="14" lengthAdjust="spacing" textLength="159" x="1011.5" y="399.0332">/var/lib/docker/containers</text></g><text fill="#000000" font-family="sans-serif" font-size="14" lengthAdjust="spacing" textLength="16" x="200" y="363.4238">80</text><rect fill="#181818" height="12" style="stroke:#F1F1F1;stroke-width:1.5;" width="12" x="202" y="378.5"/><!--MD5=[a0fef4f34cb3559b44f1c4ed44c10eb8]
entity Apache--><g id="elem_Apache"><rect fill="#F1F1F1" height="47.6094" rx="2.5" ry="2.5" style="stroke:#181818;stroke-width:0.5;" width="88" x="316" y="475.5"/><rect fill="#F1F1F1" height="10" style="stroke:#181818;stroke-width:0.5;" width="15" x="384" y="480.5"/><rect fill="#F1F1F1" height="2" style="stroke:#181818;stroke-width:0.5;" width="4" x="382" y="482.5"/><rect fill="#F1F1F1" height="2" style="stroke:#181818;stroke-width:0.5;" width="4" x="382" y="486.5"/><text fill="#000000" font-family="sans-serif" font-size="14" lengthAdjust="spacing" textLength="48" x="331" y="510.0332">Apache</text></g><!--MD5=[1d74834b301146432ddf9bdce26c5d3d]
entity iniRem--><g id="elem_iniRem"><path d="M439,483 L439,515.6094 A2.5,2.5 0 0 0 441.5,518.1094 L696.5,518.1094 A2.5,2.5 0 0 0 699,515.6094 L699,490.5 L689,480.5 L441.5,480.5 A2.5,2.5 0 0 0 439,483 " fill="#F1F1F1" style="stroke:#181818;stroke-width:0.5;"/><path d="M689,480.5 L689,488 A2.5,2.5 0 0 0 691.5,490.5 L699,490.5 " fill="#F1F1F1" style="stroke:#181818;stroke-width:0.5;"/><text fill="#000000" font-family="sans-serif" font-size="14" lengthAdjust="spacing" textLength="240" x="449" y="505.0332">/var/www/html/open-etymology-map.ini</text></g><!--MD5=[331b67947ba2840a66d34c20f83daee9]
entity Loki--><g id="elem_Loki"><rect fill="#F1F1F1" height="47.6094" rx="2.5" ry="2.5" style="stroke:#181818;stroke-width:0.5;" width="66" x="1837" y="166.5"/><rect fill="#F1F1F1" height="10" style="stroke:#181818;stroke-width:0.5;" width="15" x="1883" y="171.5"/><rect fill="#F1F1F1" height="2" style="stroke:#181818;stroke-width:0.5;" width="4" x="1881" y="173.5"/><rect fill="#F1F1F1" height="2" style="stroke:#181818;stroke-width:0.5;" width="4" x="1881" y="177.5"/><text fill="#000000" font-family="sans-serif" font-size="14" lengthAdjust="spacing" textLength="26" x="1852" y="201.0332">Loki</text></g><!--MD5=[e9dede37b31fdda9664526f66258b036]
entity Browser--><g id="elem_Browser"><ellipse cx="150" cy="14" fill="#F1F1F1" rx="8" ry="8" style="stroke:#181818;stroke-width:0.5;"/><path d="M150,22 L150,49 M137,30 L163,30 M150,49 L137,64 M150,49 L163,64 " fill="none" style="stroke:#181818;stroke-width:0.5;"/><text fill="#000000" font-family="sans-serif" font-size="14" lengthAdjust="spacing" textLength="51" x="124.5" y="80.0332">Browser</text></g><!--MD5=[ca91e133679fb377bc773829be79666e]
reverse link Loki to promInst--><g id="link_Loki_promInst"><path d="M1842.45,218.22 C1833.6,225.66 1823.39,233.15 1813,238.5 C1641.96,326.56 1412.24,365.05 1316.18,378.04 " fill="none" id="Loki-backto-promInst" style="stroke:#181818;stroke-width:1.0;"/><polygon fill="#181818" points="1846.67,214.59,1837.2335,217.4101,1842.8737,217.844,1842.4399,223.4841,1846.67,214.59" style="stroke:#181818;stroke-width:1.0;"/></g><!--MD5=[ce73862c0858b25560dc7c009d66c067]
link iniRem to iniLoc--><g id="link_iniRem_iniLoc"><path d="M628.86,518.59 C651.96,525.39 678.64,533.04 703,539.5 C952.65,605.74 1250.66,674.26 1391.14,705.94 " fill="none" id="iniRem-iniLoc" style="stroke:#181818;stroke-width:1.0;"/><text fill="#000000" font-family="sans-serif" font-size="13" lengthAdjust="spacing" textLength="40" x="1107" y="617.9951">volume</text></g><!--MD5=[50db60e91649bd4b7930dc70ac143265]
link promRem to promLoc--><g id="link_promRem_promLoc"><path d="M826.35,412.76 C860.88,448.08 926.32,508.75 995,539.5 C1124.24,597.37 1295.26,608.91 1371.88,611.08 " fill="none" id="promRem-promLoc" style="stroke:#181818;stroke-width:1.0;"/><text fill="#000000" font-family="sans-serif" font-size="13" lengthAdjust="spacing" textLength="40" x="996" y="504.9951">volume</text></g><!--MD5=[22fcf1e33b40493c5e2fc9dd2c31ffd5]
link logRem to logLoc--><g id="link_logRem_logLoc"><path d="M953.18,412.72 C962.23,421.27 972.95,430.14 984,436.5 C1115.69,512.31 1164.4,496.04 1310,539.5 C1380.78,560.63 1400.91,558.36 1470,584.5 C1475.65,586.64 1481.51,589.13 1487.22,591.73 " fill="none" id="logRem-logLoc" style="stroke:#181818;stroke-width:1.0;"/><text fill="#000000" font-family="sans-serif" font-size="13" lengthAdjust="spacing" textLength="40" x="1311" y="504.9951">volume</text></g><!--MD5=[5ab18d128b9e03ee7a87eeb6c6f98176]
link contRem to contLoc--><g id="link_contRem_contLoc"><path d="M1149.66,412.58 C1168.13,421.12 1189.16,430.01 1209,436.5 C1272.47,457.24 1292.32,447.43 1356,467.5 C1459.11,500 1573.86,552.59 1639.63,584.42 " fill="none" id="contRem-contLoc" style="stroke:#181818;stroke-width:1.0;"/><text fill="#000000" font-family="sans-serif" font-size="13" lengthAdjust="spacing" textLength="40" x="1543" y="504.9951">volume</text></g><!--MD5=[1276741ab19b315a499829bc13fea030]
link Apache to 5432db--><g id="link_Apache_5432db"><path d="M360,523.77 C360,547.53 360,583.35 360,600.96 " fill="none" id="Apache-to-5432db" style="stroke:#181818;stroke-width:1.0;"/><polygon fill="#181818" points="360,606.19,364,597.19,360,601.19,356,597.19,360,606.19" style="stroke:#181818;stroke-width:1.0;"/></g><!--MD5=[5a991882528c63219e1b5976c28aec7f]
link Browser to 80docker--><g id="link_Browser_80docker"><path d="M150,83.71 C150,115.73 150,159.27 150,179.01 " fill="none" id="Browser-to-80docker" style="stroke:#181818;stroke-width:1.0;"/><polygon fill="#181818" points="150,184.33,154,175.33,150,179.33,146,175.33,150,184.33" style="stroke:#181818;stroke-width:1.0;"/></g><!--MD5=[cb2118ce9ce00fc0fce55828fc161e98]
link 80docker to 80webProd--><g id="link_80docker_80webProd"><path d="M155.41,196.51 C165.83,206.53 188.49,230.29 198,255.5 C213.6,296.85 211.03,350.93 209.08,373.22 " fill="none" id="80docker-to-80webProd" style="stroke:#181818;stroke-width:1.0;"/><polygon fill="#181818" points="208.59,378.4,213.4195,369.8165,209.0607,373.4222,205.455,369.0634,208.59,378.4" style="stroke:#181818;stroke-width:1.0;"/></g><!--MD5=[61323abf26bab5d1b04916da505b1a4b]
link 80webProd to Apache--><g id="link_80webProd_Apache"><path d="M214.15,390.07 C232.45,403.68 287.63,444.7 324.63,472.2 " fill="none" id="80webProd-to-Apache" style="stroke:#181818;stroke-width:1.0;"/><polygon fill="#181818" points="329.04,475.49,324.2057,466.9093,325.028,472.506,319.4313,473.3284,329.04,475.49" style="stroke:#181818;stroke-width:1.0;"/></g><!--MD5=[f13cc59805c65a88679534905da7efc3]
link 5432db to db--><g id="link_5432db_db"><path d="M361.07,618.9 C362.41,624.67 365.15,633.89 370,640.5 C387.17,663.87 412.59,683.97 434.46,698.59 " fill="none" id="5432db-to-db" style="stroke:#181818;stroke-width:1.0;"/><polygon fill="#181818" points="438.79,701.44,433.4676,693.1531,434.6122,698.693,429.0724,699.8376,438.79,701.44" style="stroke:#181818;stroke-width:1.0;"/></g><!--MD5=[440935c7956bb3c4c72eb0c24919b3bf]
@startuml prod_with_local_db_deployment

actor Browser
component Server {
  port "80" as 80docker
  rectangle "Docker Compose - profile 'prod_with_local_db'" as docker {
    node postgis_db {
      port 5432 as 5432db
      database "PostGIS DB" as db
    }
    node promtail {
      component promtail as promInst
      folder "/etc/promtail" as promRem
      folder "/var/log" as logRem
      folder "/var/lib/docker/containers" as contRem
    }
    node web_prod {
      port "80" as 80webProd
      component Apache
      file "/var/www/html/open-etymology-map.ini" as iniRem
    }
  }
  file "web/open-etymology-map.ini" as iniLoc
  folder "promtail" as promLoc
  folder "/var/log" as logLoc
  folder "/var/lib/docker/containers" as contLoc
}
cloud Grafana {
  component Loki
}
Loki <- - promInst

iniRem - - - iniLoc : volume
promRem - - - promLoc : volume
logRem - - - logLoc : volume
contRem - - - contLoc : volume

Apache - -> 5432db

Browser - -> 80docker

80docker - -> 80webProd

80webProd - -> Apache
5432db - -> db

@enduml

PlantUML version 1.2022.5(Sat Apr 30 12:55:52 CEST 2022)
(GPL source distribution)
Java Runtime: Java(TM) SE Runtime Environment
JVM: Java HotSpot(TM) 64-Bit Server VM
Default Encoding: Cp1252
Language: it
Country: IT
--></g></svg>