<?xml version="1.0" encoding="UTF-8" standalone="no"?><svg xmlns="http://www.w3.org/2000/svg" xmlns:xlink="http://www.w3.org/1999/xlink" contentStyleType="text/css" height="947px" preserveAspectRatio="none" style="width:1506px;height:947px;background:#FFFFFF;" version="1.1" viewBox="0 0 1506 947" width="1506px" zoomAndPan="magnify"><defs/><g><!--MD5=[5578876a42f8f4c41147be644f58dfed]
cluster oem--><g id="cluster_oem"><rect fill="none" height="690" rx="2.5" ry="2.5" style="stroke:#181818;stroke-width:1.0;" width="1493" x="7" y="99.5"/><path d="M185,99.5 L185,110.1094 L175,120.1094 L7,120.1094 " fill="none" style="stroke:#181818;stroke-width:1.0;"/><text fill="#000000" font-family="sans-serif" font-size="14" font-weight="bold" lengthAdjust="spacing" textLength="168" x="10" y="115.0332">Open Etymology Map v1</text></g><!--MD5=[c21c88c89c113efa47e55bb6e03756fb]
cluster Front-end--><g id="cluster_Front-end"><polygon fill="none" points="370,153.5,380,143.5,516,143.5,516,238.5,506,248.5,370,248.5,370,153.5" style="stroke:#181818;stroke-width:1.0;"/><line style="stroke:#181818;stroke-width:1.0;" x1="506" x2="516" y1="153.5" y2="143.5"/><line style="stroke:#181818;stroke-width:1.0;" x1="370" x2="506" y1="153.5" y2="153.5"/><line style="stroke:#181818;stroke-width:1.0;" x1="506" x2="506" y1="153.5" y2="248.5"/><text fill="#000000" font-family="sans-serif" font-size="14" font-weight="bold" lengthAdjust="spacing" textLength="70" x="404" y="171.0332">Front-end</text></g><!--MD5=[bd3e414d327666ab00b5b076a3f21f31]
cluster Back-end--><g id="cluster_Back-end"><polygon fill="none" points="31,282.5,41,272.5,1476,272.5,1476,755.5,1466,765.5,31,765.5,31,282.5" style="stroke:#181818;stroke-width:1.0;"/><line style="stroke:#181818;stroke-width:1.0;" x1="1466" x2="1476" y1="282.5" y2="272.5"/><line style="stroke:#181818;stroke-width:1.0;" x1="31" x2="1466" y1="282.5" y2="282.5"/><line style="stroke:#181818;stroke-width:1.0;" x1="1466" x2="1466" y1="282.5" y2="765.5"/><text fill="#000000" font-family="sans-serif" font-size="14" font-weight="bold" lengthAdjust="spacing" textLength="66" x="716.5" y="300.0332">Back-end</text></g><!--MD5=[db7ab26660d42d654379265bbd03f21a]
cluster App\Query\Combined--><g id="cluster_App\Query\Combined"><path d="M57.5,385.5 L206.5,385.5 A3.75,3.75 0 0 1 209,388 L216,409.1094 L575.5,409.1094 A2.5,2.5 0 0 1 578,411.6094 L578,555 A2.5,2.5 0 0 1 575.5,557.5 L57.5,557.5 A2.5,2.5 0 0 1 55,555 L55,388 A2.5,2.5 0 0 1 57.5,385.5 " fill="none" style="stroke:#000000;stroke-width:1.5;"/><line style="stroke:#000000;stroke-width:1.5;" x1="55" x2="216" y1="409.1094" y2="409.1094"/><text fill="#000000" font-family="sans-serif" font-size="14" font-weight="bold" lengthAdjust="spacing" textLength="148" x="59" y="402.0332">App\Query\Combined</text></g><!--MD5=[09f1715a920b94723ee11652b4bc2e82]
cluster App\Query\Wikidata--><g id="cluster_App\Query\Wikidata"><path d="M741.5,481.5 L878.5,481.5 A3.75,3.75 0 0 1 881,484 L888,505.1094 L1449.5,505.1094 A2.5,2.5 0 0 1 1452,507.6094 L1452,655 A2.5,2.5 0 0 1 1449.5,657.5 L741.5,657.5 A2.5,2.5 0 0 1 739,655 L739,484 A2.5,2.5 0 0 1 741.5,481.5 " fill="none" style="stroke:#000000;stroke-width:1.5;"/><line style="stroke:#000000;stroke-width:1.5;" x1="739" x2="888" y1="505.1094" y2="505.1094"/><text fill="#000000" font-family="sans-serif" font-size="14" font-weight="bold" lengthAdjust="spacing" textLength="136" x="743" y="498.0332">App\Query\Wikidata</text></g><!--MD5=[72af0b753e5076754831c0f0a7586d0f]
cluster App\Query\Overpass--><g id="cluster_App\Query\Overpass"><path d="M172.5,581.5 L318.5,581.5 A3.75,3.75 0 0 1 321,584 L328,605.1094 L712.5,605.1094 A2.5,2.5 0 0 1 715,607.6094 L715,739 A2.5,2.5 0 0 1 712.5,741.5 L172.5,741.5 A2.5,2.5 0 0 1 170,739 L170,584 A2.5,2.5 0 0 1 172.5,581.5 " fill="none" style="stroke:#000000;stroke-width:1.5;"/><line style="stroke:#000000;stroke-width:1.5;" x1="170" x2="328" y1="605.1094" y2="605.1094"/><text fill="#000000" font-family="sans-serif" font-size="14" font-weight="bold" lengthAdjust="spacing" textLength="145" x="174" y="598.0332">App\Query\Overpass</text></g><!--MD5=[b30b38ce4569dacde3f8306bd4ec7604]
entity index--><g id="elem_index"><rect fill="#F1F1F1" height="47.6094" rx="2.5" ry="2.5" style="stroke:#181818;stroke-width:0.5;" width="101" x="392.5" y="184.5"/><rect fill="#F1F1F1" height="10" style="stroke:#181818;stroke-width:0.5;" width="15" x="473.5" y="189.5"/><rect fill="#F1F1F1" height="2" style="stroke:#181818;stroke-width:0.5;" width="4" x="471.5" y="191.5"/><rect fill="#F1F1F1" height="2" style="stroke:#181818;stroke-width:0.5;" width="4" x="471.5" y="195.5"/><text fill="#000000" font-family="sans-serif" font-size="14" lengthAdjust="spacing" textLength="61" x="407.5" y="219.0332">index.php</text></g><!--MD5=[f73e5ab3c096fc51db1e5674003c39d8]
entity etymologyMap--><g id="elem_etymologyMap"><rect fill="#F1F1F1" height="47.6094" rx="2.5" ry="2.5" style="stroke:#181818;stroke-width:0.5;" width="159" x="150.5" y="313.5"/><rect fill="#F1F1F1" height="10" style="stroke:#181818;stroke-width:0.5;" width="15" x="289.5" y="318.5"/><rect fill="#F1F1F1" height="2" style="stroke:#181818;stroke-width:0.5;" width="4" x="287.5" y="320.5"/><rect fill="#F1F1F1" height="2" style="stroke:#181818;stroke-width:0.5;" width="4" x="287.5" y="324.5"/><text fill="#000000" font-family="sans-serif" font-size="14" lengthAdjust="spacing" textLength="119" x="165.5" y="348.0332">etymologyMap.php</text></g><!--MD5=[70cfbf776cca5f9c3d1aec9958cace0f]
entity elements--><g id="elem_elements"><rect fill="#F1F1F1" height="47.6094" rx="2.5" ry="2.5" style="stroke:#181818;stroke-width:0.5;" width="125" x="594.5" y="505.5"/><rect fill="#F1F1F1" height="10" style="stroke:#181818;stroke-width:0.5;" width="15" x="699.5" y="510.5"/><rect fill="#F1F1F1" height="2" style="stroke:#181818;stroke-width:0.5;" width="4" x="697.5" y="512.5"/><rect fill="#F1F1F1" height="2" style="stroke:#181818;stroke-width:0.5;" width="4" x="697.5" y="516.5"/><text fill="#000000" font-family="sans-serif" font-size="14" lengthAdjust="spacing" textLength="85" x="609.5" y="540.0332">elements.php</text></g><!--MD5=[8aaf477cf9b50a1d50e25883b72bb19a]
entity stats--><g id="elem_stats"><rect fill="#F1F1F1" height="47.6094" rx="2.5" ry="2.5" style="stroke:#181818;stroke-width:0.5;" width="98" x="394" y="313.5"/><rect fill="#F1F1F1" height="10" style="stroke:#181818;stroke-width:0.5;" width="15" x="472" y="318.5"/><rect fill="#F1F1F1" height="2" style="stroke:#181818;stroke-width:0.5;" width="4" x="470" y="320.5"/><rect fill="#F1F1F1" height="2" style="stroke:#181818;stroke-width:0.5;" width="4" x="470" y="324.5"/><text fill="#000000" font-family="sans-serif" font-size="14" lengthAdjust="spacing" textLength="58" x="409" y="348.0332">stats.php</text></g><!--MD5=[9af49e2486a06602a2b6cc9b3c780264]
entity BBoxGeoJSONEtymologyQuery--><g id="elem_BBoxGeoJSONEtymologyQuery"><rect fill="#F1F1F1" height="23.6094" rx="2.5" ry="2.5" style="stroke:#181818;stroke-width:0.5;" width="218" x="71" y="421.5"/><text fill="#000000" font-family="sans-serif" font-size="14" lengthAdjust="spacing" textLength="198" x="81" y="439.0332">BBoxGeoJSONEtymologyQuery</text></g><!--MD5=[8e9584e1f379aea85b0a195841f2a96d]
entity BBoxStatsOverpassWikidataQuery--><g id="elem_BBoxStatsOverpassWikidataQuery"><rect fill="#F1F1F1" height="23.6094" rx="2.5" ry="2.5" style="stroke:#181818;stroke-width:0.5;" width="238" x="324" y="421.5"/><text fill="#000000" font-family="sans-serif" font-size="14" lengthAdjust="spacing" textLength="218" x="334" y="439.0332">BBoxStatsOverpassWikidataQuery</text></g><!--MD5=[9c2e6f000f35adefd94edff513d2543d]
entity BBoxJSONOverpassWikidataQuery--><g id="elem_BBoxJSONOverpassWikidataQuery"><rect fill="#F1F1F1" height="23.6094" rx="2.5" ry="2.5" style="stroke:#181818;stroke-width:0.5;" width="241" x="174.5" y="517.5"/><text fill="#000000" font-family="sans-serif" font-size="14" lengthAdjust="spacing" textLength="221" x="184.5" y="535.0332">BBoxJSONOverpassWikidataQuery</text></g><!--MD5=[61651887e9e31674afc1674cd52ad479]
entity WikidataQuery--><g id="elem_WikidataQuery"><rect fill="#F1F1F1" height="23.6094" rx="2.5" ry="2.5" style="stroke:#181818;stroke-width:0.5;" width="113" x="1070.5" y="617.5"/><text fill="#000000" font-family="sans-serif" font-size="14" lengthAdjust="spacing" textLength="93" x="1080.5" y="635.0332">WikidataQuery</text></g><!--MD5=[e0343232eded16251bac21c2e1f056d1]
entity EtymologyIDListXMLWikidataQuery--><g id="elem_EtymologyIDListXMLWikidataQuery"><rect fill="#F1F1F1" height="23.6094" rx="2.5" ry="2.5" style="stroke:#181818;stroke-width:0.5;" width="240" x="755" y="517.5"/><text fill="#000000" font-family="sans-serif" font-size="14" lengthAdjust="spacing" textLength="220" x="765" y="535.0332">EtymologyIDListXMLWikidataQuery</text></g><!--MD5=[28ab33513d3656194e078a14d5c8b7e0]
entity TypeStatsWikidataQuery--><g id="elem_TypeStatsWikidataQuery"><rect fill="#F1F1F1" height="23.6094" rx="2.5" ry="2.5" style="stroke:#181818;stroke-width:0.5;" width="177" x="1258.5" y="517.5"/><text fill="#000000" font-family="sans-serif" font-size="14" lengthAdjust="spacing" textLength="157" x="1268.5" y="535.0332">TypeStatsWikidataQuery</text></g><!--MD5=[55246e9705443d6908f84c9cec429f3e]
entity GenderStatsWikidataQuery--><g id="elem_GenderStatsWikidataQuery"><rect fill="#F1F1F1" height="23.6094" rx="2.5" ry="2.5" style="stroke:#181818;stroke-width:0.5;" width="193" x="1030.5" y="517.5"/><text fill="#000000" font-family="sans-serif" font-size="14" lengthAdjust="spacing" textLength="173" x="1040.5" y="535.0332">GenderStatsWikidataQuery</text></g><!--MD5=[506b847261d51ddf0c7f59568a737c90]
entity OverpassQuery--><g id="elem_OverpassQuery"><rect fill="#F1F1F1" height="23.6094" rx="2.5" ry="2.5" style="stroke:#181818;stroke-width:0.5;" width="120" x="372" y="701.5"/><text fill="#000000" font-family="sans-serif" font-size="14" lengthAdjust="spacing" textLength="100" x="382" y="719.0332">OverpassQuery</text></g><!--MD5=[4da0787ff877122b0a2989759af1d5af]
entity BBoxEtymologyOverpassQuery--><g id="elem_BBoxEtymologyOverpassQuery"><rect fill="#F1F1F1" height="23.6094" rx="2.5" ry="2.5" style="stroke:#181818;stroke-width:0.5;" width="217" x="186.5" y="617.5"/><text fill="#000000" font-family="sans-serif" font-size="14" lengthAdjust="spacing" textLength="197" x="196.5" y="635.0332">BBoxEtymologyOverpassQuery</text></g><!--MD5=[9fe3ae8215f3ac506cb95281e1aea53f]
entity BBoxEtymologyCenterOverpassQuery--><g id="elem_BBoxEtymologyCenterOverpassQuery"><rect fill="#F1F1F1" height="23.6094" rx="2.5" ry="2.5" style="stroke:#181818;stroke-width:0.5;" width="260" x="439" y="617.5"/><text fill="#000000" font-family="sans-serif" font-size="14" lengthAdjust="spacing" textLength="240" x="449" y="635.0332">BBoxEtymologyCenterOverpassQuery</text></g><!--MD5=[8fc3522a43f8c7199df5e09e5bb0188e]
entity user--><g id="elem_user"><ellipse cx="443" cy="14" fill="#F1F1F1" rx="8" ry="8" style="stroke:#181818;stroke-width:0.5;"/><path d="M443,22 L443,49 M430,30 L456,30 M443,49 L430,64 M443,49 L456,64 " fill="none" style="stroke:#181818;stroke-width:0.5;"/><text fill="#000000" font-family="sans-serif" font-size="14" lengthAdjust="spacing" textLength="29" x="428.5" y="80.0332">User</text></g><!--MD5=[d1ed0d2940ccad314a24ccbc4df5340e]
entity wikidata--><g id="elem_wikidata"><rect fill="#F1F1F1" height="37.6094" rx="2.5" ry="2.5" style="stroke:#181818;stroke-width:0.5;" width="159" x="1047.5" y="805.5"/><text fill="#000000" font-family="sans-serif" font-size="14" lengthAdjust="spacing" textLength="139" x="1057.5" y="830.0332">Wikidata SPARQL API</text></g><!--MD5=[21ccf45bc4f443d4761a528dedd167c7]
entity overpass--><g id="elem_overpass"><rect fill="#F1F1F1" height="37.6094" rx="2.5" ry="2.5" style="stroke:#181818;stroke-width:0.5;" width="106" x="379" y="903.5"/><text fill="#000000" font-family="sans-serif" font-size="14" lengthAdjust="spacing" textLength="86" x="389" y="928.0332">Overpass API</text></g><!--MD5=[0bedfecd6f244be9e1bb353175519a0a]
link user to index--><g id="link_user_index"><path d="M443,83.89 C443,113.19 443,152.88 443,179.3 " fill="none" id="user-to-index" style="stroke:#181818;stroke-width:1.0;"/><polygon fill="#181818" points="443,184.4,447,175.4,443,179.4,439,175.4,443,184.4" style="stroke:#181818;stroke-width:1.0;"/></g><!--MD5=[59fad06dcf8cdb9a073120c960e28739]
link index to etymologyMap--><g id="link_index_etymologyMap"><path d="M403.93,232.79 C365.5,255.71 307.17,290.49 268.82,313.35 " fill="none" id="index-etymologyMap" style="stroke:#181818;stroke-width:1.0;"/><path d="M346.0397,275.5446 A10,10 0 0 0 338.7971 263.3978" fill="none" style="stroke:#181818;stroke-width:1.5;"/><ellipse cx="336.345" cy="273.0925" fill="#FFFFFF" rx="6" ry="6" style="stroke:#181818;stroke-width:1.5;"/></g><!--MD5=[db332425fc4cf3f3050b8a38f9eae5ff]
link index to elements--><g id="link_index_elements"><path d="M475.67,232.65 C487.29,241.79 499.96,252.88 510,264.5 C577.57,342.7 628.19,456.88 647.94,505.36 " fill="none" id="index-elements" style="stroke:#181818;stroke-width:1.0;"/><path d="M599.8308,386.5134 A10,10 0 0 0 587.3409 393.1467" fill="none" style="stroke:#181818;stroke-width:1.5;"/><ellipse cx="596.9025" cy="396.075" fill="#FFFFFF" rx="6" ry="6" style="stroke:#181818;stroke-width:1.5;"/></g><!--MD5=[6636d7a4b834b7fe22a12a83027ea453]
link index to stats--><g id="link_index_stats"><path d="M443,232.79 C443,255.71 443,290.49 443,313.35 " fill="none" id="index-stats" style="stroke:#181818;stroke-width:1.0;"/><path d="M450.0711,266.0214 A10,10 0 0 0 435.9289 266.0214" fill="none" style="stroke:#181818;stroke-width:1.5;"/><ellipse cx="443" cy="273.0925" fill="#FFFFFF" rx="6" ry="6" style="stroke:#181818;stroke-width:1.5;"/></g><!--MD5=[780e85763bddb5ba97dad18215beecc8]
link elements to BBoxEtymologyCenterOverpassQuery--><g id="link_elements_BBoxEtymologyCenterOverpassQuery"><path d="M636.15,553.72 C619.56,572.2 596.84,597.5 582.54,613.42 " fill="none" id="elements-to-BBoxEtymologyCenterOverpassQuery" style="stroke:#181818;stroke-width:1.0;"/><polygon fill="#181818" points="579.1,617.26,588.0862,613.2291,582.4377,613.5372,582.1296,607.8887,579.1,617.26" style="stroke:#181818;stroke-width:1.0;"/></g><!--MD5=[72527aeead9daefa7f84e4b345b63f80]
link etymologyMap to BBoxGeoJSONEtymologyQuery--><g id="link_etymologyMap_BBoxGeoJSONEtymologyQuery"><path d="M217.64,361.74 C208.55,378.83 196.43,401.62 188.43,416.66 " fill="none" id="etymologyMap-to-BBoxGeoJSONEtymologyQuery" style="stroke:#181818;stroke-width:1.0;"/><polygon fill="#181818" points="185.88,421.44,193.6325,415.3655,188.224,417.0235,186.5661,411.6151,185.88,421.44" style="stroke:#181818;stroke-width:1.0;"/></g><!--MD5=[eb16826269c14c490b05273f38a1efdd]
link stats to BBoxStatsOverpassWikidataQuery--><g id="link_stats_BBoxStatsOverpassWikidataQuery"><path d="M443,361.74 C443,378.68 443,401.22 443,416.27 " fill="none" id="stats-to-BBoxStatsOverpassWikidataQuery" style="stroke:#181818;stroke-width:1.0;"/><polygon fill="#181818" points="443,421.44,447,412.44,443,416.44,439,412.44,443,421.44" style="stroke:#181818;stroke-width:1.0;"/></g><!--MD5=[37558cc48238f509fb471edfaf7e4091]
link BBoxGeoJSONEtymologyQuery to BBoxJSONOverpassWikidataQuery--><g id="link_BBoxGeoJSONEtymologyQuery_BBoxJSONOverpassWikidataQuery"><path d="M193.64,445.65 C211.28,460.07 242.47,485.56 265.61,504.48 " fill="none" id="BBoxGeoJSONEtymologyQuery-to-BBoxJSONOverpassWikidataQuery" style="stroke:#181818;stroke-width:1.0;"/><polygon fill="none" points="270.32,499.29,281.37,517.36,261.46,510.12,270.32,499.29" style="stroke:#181818;stroke-width:1.0;"/></g><!--MD5=[858f9b4c23b9b615a6e13506ccff998b]
link BBoxStatsOverpassWikidataQuery to BBoxJSONOverpassWikidataQuery--><g id="link_BBoxStatsOverpassWikidataQuery_BBoxJSONOverpassWikidataQuery"><path d="M425.44,445.65 C401.96,460.56 359.83,487.33 329.8,506.4 " fill="none" id="BBoxStatsOverpassWikidataQuery-to-BBoxJSONOverpassWikidataQuery" style="stroke:#181818;stroke-width:1.0;"/><polygon fill="none" points="333.17,512.55,312.54,517.36,325.67,500.73,333.17,512.55" style="stroke:#181818;stroke-width:1.0;"/></g><!--MD5=[5d7a2d8df4c0d74f13d2c54a0f1c8291]
link BBoxEtymologyOverpassQuery to OverpassQuery--><g id="link_BBoxEtymologyOverpassQuery_OverpassQuery"><path d="M313.48,641.56 C334.52,654.15 369.4,675.03 395.89,690.89 " fill="none" id="BBoxEtymologyOverpassQuery-to-OverpassQuery" style="stroke:#181818;stroke-width:1.0;"/><polygon fill="none" points="399.81,685.08,413.38,701.35,392.62,697.09,399.81,685.08" style="stroke:#181818;stroke-width:1.0;"/></g><!--MD5=[b618b01b98b6677538d969ce2261e93c]
link BBoxEtymologyCenterOverpassQuery to OverpassQuery--><g id="link_BBoxEtymologyCenterOverpassQuery_OverpassQuery"><path d="M550.52,641.56 C529.48,654.15 494.6,675.03 468.11,690.89 " fill="none" id="BBoxEtymologyCenterOverpassQuery-to-OverpassQuery" style="stroke:#181818;stroke-width:1.0;"/><polygon fill="none" points="471.38,697.09,450.62,701.35,464.19,685.08,471.38,697.09" style="stroke:#181818;stroke-width:1.0;"/></g><!--MD5=[809542b113105e203061e78335259e9f]
link EtymologyIDListXMLWikidataQuery to WikidataQuery--><g id="link_EtymologyIDListXMLWikidataQuery_WikidataQuery"><path d="M903.42,541.55 C946.26,558.21 1027.88,589.95 1079.76,610.13 " fill="none" id="EtymologyIDListXMLWikidataQuery-to-WikidataQuery" style="stroke:#181818;stroke-width:1.0;"/><polygon fill="none" points="1082.58,603.72,1098.69,617.49,1077.51,616.76,1082.58,603.72" style="stroke:#181818;stroke-width:1.0;"/></g><!--MD5=[9f9c7c9101e9757c70380be05c7e68df]
link TypeStatsWikidataQuery to WikidataQuery--><g id="link_TypeStatsWikidataQuery_WikidataQuery"><path d="M1322.19,541.55 C1285.29,557.99 1215.42,589.11 1170.06,609.32 " fill="none" id="TypeStatsWikidataQuery-to-WikidataQuery" style="stroke:#181818;stroke-width:1.0;"/><polygon fill="none" points="1172.84,615.75,1151.72,617.49,1167.14,602.96,1172.84,615.75" style="stroke:#181818;stroke-width:1.0;"/></g><!--MD5=[e3448c61eaddd692815cd63da12a6b26]
link GenderStatsWikidataQuery to WikidataQuery--><g id="link_GenderStatsWikidataQuery_WikidataQuery"><path d="M1127,541.74 C1127,555.18 1127,578.24 1127,597.2 " fill="none" id="GenderStatsWikidataQuery-to-WikidataQuery" style="stroke:#181818;stroke-width:1.0;"/><polygon fill="none" points="1134,597.39,1127,617.39,1120,597.39,1134,597.39" style="stroke:#181818;stroke-width:1.0;"/></g><!--MD5=[84f1482be99ce9e45ee5eae54b457b88]
link BBoxJSONOverpassWikidataQuery to BBoxEtymologyOverpassQuery--><g id="link_BBoxJSONOverpassWikidataQuery_BBoxEtymologyOverpassQuery"><path d="M295,541.74 C295,559.02 295,592.2 295,612.14 " fill="none" id="BBoxJSONOverpassWikidataQuery-to-BBoxEtymologyOverpassQuery" style="stroke:#181818;stroke-width:1.0;"/><polygon fill="#181818" points="295,617.39,299,608.39,295,612.39,291,608.39,295,617.39" style="stroke:#181818;stroke-width:1.0;"/></g><!--MD5=[662f4c02d08e00b667cc0da911b66ee1]
link BBoxGeoJSONEtymologyQuery to EtymologyIDListXMLWikidataQuery--><g id="link_BBoxGeoJSONEtymologyQuery_EtymologyIDListXMLWikidataQuery"><path d="M289.1,444.12 C295.15,444.6 301.15,445.06 307,445.5 C504.17,460.25 558.95,426.46 751,473.5 C787.46,482.43 826.58,501.56 850.92,514.73 " fill="none" id="BBoxGeoJSONEtymologyQuery-to-EtymologyIDListXMLWikidataQuery" style="stroke:#181818;stroke-width:1.0;"/><polygon fill="#181818" points="855.59,517.27,849.6151,509.4406,851.2038,514.8697,845.7746,516.4585,855.59,517.27" style="stroke:#181818;stroke-width:1.0;"/></g><!--MD5=[a0d179b1a241f8af99a298ad7a181e67]
link BBoxStatsOverpassWikidataQuery to GenderStatsWikidataQuery--><g id="link_BBoxStatsOverpassWikidataQuery_GenderStatsWikidataQuery"><path d="M562.06,437.34 C703.57,441.65 930.9,451.75 1013,473.5 C1046.71,482.43 1082.44,501.43 1104.73,514.58 " fill="none" id="BBoxStatsOverpassWikidataQuery-to-GenderStatsWikidataQuery" style="stroke:#181818;stroke-width:1.0;"/><polygon fill="#181818" points="1109.27,517.29,1103.5987,509.2379,1104.9788,514.7238,1099.4928,516.1039,1109.27,517.29" style="stroke:#181818;stroke-width:1.0;"/></g><!--MD5=[82da581f22c418500bc26525f32854ba]
link BBoxStatsOverpassWikidataQuery to TypeStatsWikidataQuery--><g id="link_BBoxStatsOverpassWikidataQuery_TypeStatsWikidataQuery"><path d="M562.2,434.11 C752.62,434.54 1116.63,439.92 1241,473.5 C1272.95,482.13 1306.28,501.38 1326.83,514.66 " fill="none" id="BBoxStatsOverpassWikidataQuery-to-TypeStatsWikidataQuery" style="stroke:#181818;stroke-width:1.0;"/><polygon fill="#181818" points="1331.02,517.39,1325.6649,509.1243,1326.8314,514.6595,1321.2961,515.8261,1331.02,517.39" style="stroke:#181818;stroke-width:1.0;"/></g><!--MD5=[4fe56c6dfccaa7325f791ed749cca143]
link OverpassQuery to overpass--><g id="link_OverpassQuery_overpass"><path d="M432,725.63 C432,759.47 432,861.39 432,903.25 " fill="none" id="OverpassQuery-overpass" style="stroke:#181818;stroke-width:1.0;"/><path d="M439.0711,804.3614 A10,10 0 0 0 424.9289 804.3614" fill="none" style="stroke:#181818;stroke-width:1.5;"/><ellipse cx="432" cy="811.4325" fill="#FFFFFF" rx="6" ry="6" style="stroke:#181818;stroke-width:1.5;"/></g><!--MD5=[7a287dc161d13a88565441307136d465]
link WikidataQuery to wikidata--><g id="link_WikidataQuery_wikidata"><path d="M1127,641.71 C1127,673.73 1127,765.82 1127,805.24 " fill="none" id="WikidataQuery-wikidata" style="stroke:#181818;stroke-width:1.0;"/><path d="M1134.0711,713.6289 A10,10 0 0 0 1119.9289 713.6289" fill="none" style="stroke:#181818;stroke-width:1.5;"/><ellipse cx="1127" cy="720.7" fill="#FFFFFF" rx="6" ry="6" style="stroke:#181818;stroke-width:1.5;"/></g><!--MD5=[2bad2fe96497d79dc02cc2f5996ad5da]
@startuml v1

actor user as "User"
frame oem as "Open Etymology Map v1" {
    node "Front-end" {
        component index as "index.php"
    }
    node "Back-end" {
        component etymologyMap as "etymologyMap.php"
        component elements as "elements.php"
        component stats as "stats.php"
        package "App\Query\Combined" {
            card BBoxGeoJSONEtymologyQuery
            card BBoxStatsOverpassWikidataQuery
            card BBoxJSONOverpassWikidataQuery
        }
        package "App\Query\Wikidata" {
            card WikidataQuery
            card EtymologyIDListXMLWikidataQuery
            card TypeStatsWikidataQuery
            card GenderStatsWikidataQuery
        }
        package "App\Query\Overpass" {
            card OverpassQuery
            card BBoxEtymologyOverpassQuery
            card BBoxEtymologyCenterOverpassQuery
        }
/'
        package "App\Query\Caching" {
            card CSVCachedBBoxGeoJSONQuery
            card CSVCachedBBoxJSONQuery
        }
        'file cache as "Cache"
'/
    }
}
agent wikidata as "Wikidata SPARQL API"
agent overpass as "Overpass API"

user - -> index
index -(0- etymologyMap
index -(0- elements
index -(0- stats

/'
stats  ..> CSVCachedBBoxJSONQuery
etymologyMap  ..> CSVCachedBBoxGeoJSONQuery
elements ..> CSVCachedBBoxGeoJSONQuery
CSVCachedBBoxGeoJSONQuery - -|> CSVCachedBBoxJSONQuery
CSVCachedBBoxJSONQuery - -> cache
'/

elements - -> BBoxEtymologyCenterOverpassQuery
etymologyMap - -> BBoxGeoJSONEtymologyQuery
stats - -> BBoxStatsOverpassWikidataQuery

BBoxGeoJSONEtymologyQuery - -|> BBoxJSONOverpassWikidataQuery
BBoxStatsOverpassWikidataQuery - -|> BBoxJSONOverpassWikidataQuery

BBoxEtymologyOverpassQuery - -|> OverpassQuery
BBoxEtymologyCenterOverpassQuery - -|> OverpassQuery

EtymologyIDListXMLWikidataQuery - -|> WikidataQuery
TypeStatsWikidataQuery - -|> WikidataQuery
GenderStatsWikidataQuery - -|> WikidataQuery

BBoxJSONOverpassWikidataQuery - -> BBoxEtymologyOverpassQuery
BBoxGeoJSONEtymologyQuery - -> EtymologyIDListXMLWikidataQuery
BBoxStatsOverpassWikidataQuery - -> GenderStatsWikidataQuery
BBoxStatsOverpassWikidataQuery - -> TypeStatsWikidataQuery

OverpassQuery - -(0- overpass
WikidataQuery - -(0- wikidata

@enduml

@startuml v1

actor user as "User"
frame oem as "Open Etymology Map v1" {
    node "Front-end" {
        component index as "index.php"
    }
    node "Back-end" {
        component etymologyMap as "etymologyMap.php"
        component elements as "elements.php"
        component stats as "stats.php"
        package "App\Query\Combined" {
            card BBoxGeoJSONEtymologyQuery
            card BBoxStatsOverpassWikidataQuery
            card BBoxJSONOverpassWikidataQuery
        }
        package "App\Query\Wikidata" {
            card WikidataQuery
            card EtymologyIDListXMLWikidataQuery
            card TypeStatsWikidataQuery
            card GenderStatsWikidataQuery
        }
        package "App\Query\Overpass" {
            card OverpassQuery
            card BBoxEtymologyOverpassQuery
            card BBoxEtymologyCenterOverpassQuery
        }
    }
}
agent wikidata as "Wikidata SPARQL API"
agent overpass as "Overpass API"

user - -> index
index -(0- etymologyMap
index -(0- elements
index -(0- stats


elements - -> BBoxEtymologyCenterOverpassQuery
etymologyMap - -> BBoxGeoJSONEtymologyQuery
stats - -> BBoxStatsOverpassWikidataQuery

BBoxGeoJSONEtymologyQuery - -|> BBoxJSONOverpassWikidataQuery
BBoxStatsOverpassWikidataQuery - -|> BBoxJSONOverpassWikidataQuery

BBoxEtymologyOverpassQuery - -|> OverpassQuery
BBoxEtymologyCenterOverpassQuery - -|> OverpassQuery

EtymologyIDListXMLWikidataQuery - -|> WikidataQuery
TypeStatsWikidataQuery - -|> WikidataQuery
GenderStatsWikidataQuery - -|> WikidataQuery

BBoxJSONOverpassWikidataQuery - -> BBoxEtymologyOverpassQuery
BBoxGeoJSONEtymologyQuery - -> EtymologyIDListXMLWikidataQuery
BBoxStatsOverpassWikidataQuery - -> GenderStatsWikidataQuery
BBoxStatsOverpassWikidataQuery - -> TypeStatsWikidataQuery

OverpassQuery - -(0- overpass
WikidataQuery - -(0- wikidata

@enduml

PlantUML version 1.2022.7(Mon Aug 22 19:01:30 CEST 2022)
(GPL source distribution)
Java Runtime: Java(TM) SE Runtime Environment
JVM: Java HotSpot(TM) 64-Bit Server VM
Default Encoding: Cp1252
Language: it
Country: IT
--></g></svg>