<?xml version="1.0" encoding="UTF-8" standalone="no"?><svg xmlns="http://www.w3.org/2000/svg" xmlns:xlink="http://www.w3.org/1999/xlink" contentStyleType="text/css" height="319px" preserveAspectRatio="none" style="width:421px;height:319px;background:#FFFFFF;" version="1.1" viewBox="0 0 421 319" width="421px" zoomAndPan="magnify"><defs/><g><g id="elem_wikia"><rect fill="#FFA2A2" height="43.2188" style="stroke:#181818;stroke-width:0.5;" width="154" x="41.5" y="269"/><text fill="#000000" font-family="sans-serif" font-size="14" font-weight="bold" lengthAdjust="spacing" textLength="140" x="48.5" y="285.5332">Wikidata item Q7186</text><line style="stroke:#181818;stroke-width:1.0;" x1="41.5" x2="195.5" y1="290.6094" y2="290.6094"/><text fill="#000000" font-family="sans-serif" font-size="14" lengthAdjust="spacing" textLength="30" x="46.5" y="307.1426">label</text><text fill="#000000" font-family="sans-serif" font-size="14" lengthAdjust="spacing" textLength="73" x="86.5" y="307.1426">Marie Curie</text><line style="stroke:#181818;stroke-width:1.0;" x1="81.5" x2="81.5" y1="290.6094" y2="312.2188"/></g><g id="elem_wikid"><rect fill="#A2D2FF" height="64.8281" style="stroke:#181818;stroke-width:0.5;" width="354" x="60.5" y="138"/><text fill="#000000" font-family="sans-serif" font-size="14" lengthAdjust="spacing" textLength="155" x="160" y="154.5332">Wikidata item Q1548496</text><line style="stroke:#181818;stroke-width:1.0;" x1="60.5" x2="414.5" y1="159.6094" y2="159.6094"/><text fill="#000000" font-family="sans-serif" font-size="14" lengthAdjust="spacing" textLength="30" x="112" y="176.1426">label</text><text fill="#000000" font-family="sans-serif" font-size="14" lengthAdjust="spacing" textLength="211" x="198.5" y="176.1426">Marie-Curie-Gymnasium Dresden</text><line style="stroke:#181818;stroke-width:1.0;" x1="193.5" x2="193.5" y1="159.6094" y2="181.2188"/><line style="stroke:#181818;stroke-width:1.0;" x1="60.5" x2="414.5" y1="181.2188" y2="181.2188"/><text fill="#000000" font-family="sans-serif" font-size="14" lengthAdjust="spacing" textLength="123" x="65.5" y="197.752">P138 (named after)</text><text fill="#000000" font-family="sans-serif" font-size="14" lengthAdjust="spacing" textLength="43" x="198.5" y="197.752">Q7186</text><line style="stroke:#181818;stroke-width:1.0;" x1="193.5" x2="193.5" y1="181.2188" y2="202.8281"/></g><g id="elem_osmd"><rect fill="#95D5B2" height="64.8281" style="stroke:#181818;stroke-width:0.5;" width="223" x="7" y="7"/><text fill="#000000" font-family="sans-serif" font-size="14" font-weight="bold" lengthAdjust="spacing" textLength="94" x="71.5" y="23.5332">OSM element</text><line style="stroke:#181818;stroke-width:1.0;" x1="7" x2="230" y1="28.6094" y2="28.6094"/><text fill="#000000" font-family="sans-serif" font-size="14" lengthAdjust="spacing" textLength="35" x="19.5" y="45.1426">name</text><text fill="#000000" font-family="sans-serif" font-size="14" lengthAdjust="spacing" textLength="153" x="72" y="45.1426">Marie-Curie-Gymnasium</text><line style="stroke:#181818;stroke-width:1.0;" x1="67" x2="67" y1="28.6094" y2="50.2188"/><line style="stroke:#181818;stroke-width:1.0;" x1="7" x2="230" y1="50.2188" y2="50.2188"/><text fill="#000000" font-family="sans-serif" font-size="14" lengthAdjust="spacing" textLength="50" x="12" y="66.752">wikidata</text><text fill="#000000" font-family="sans-serif" font-size="14" lengthAdjust="spacing" textLength="67" x="72" y="66.752">Q1548496</text><line style="stroke:#181818;stroke-width:1.0;" x1="67" x2="67" y1="50.2188" y2="71.8281"/></g><!--MD5=[ab3d711731cca3b3284616b132edc874]
link osmd to wikid--><g id="link_osmd_wikid"><path codeLine="16" d="M150.39,74.07 C166.26,91.28 185.51,112.14 201.86,129.87 " fill="none" id="osmd-to-wikid" style="stroke:#181818;stroke-width:1.0;stroke-dasharray:7.0,7.0;"/><polygon fill="#181818" points="205.52,133.83,202.3396,124.5088,202.1227,130.1615,196.47,129.9445,205.52,133.83" style="stroke:#181818;stroke-width:1.0;"/></g><!--MD5=[2b53ecf09e9ed6111752e8600f5673ce]
link wikid to wikia--><g id="link_wikid_wikia"><path codeLine="17" d="M202.76,205.09 C184.9,222.88 163.42,244.27 146.62,261 " fill="none" id="wikid-to-wikia" style="stroke:#181818;stroke-width:1.0;stroke-dasharray:7.0,7.0;"/><polygon fill="#181818" points="142.89,264.71,152.0895,261.193,146.4327,261.1816,146.4441,255.5248,142.89,264.71" style="stroke:#181818;stroke-width:1.0;"/></g><!--MD5=[d789b4e4dd23899a459430d3313610d1]
link osmd to wikia--><g id="link_osmd_wikia"><path codeLine="18" d="M77.01,74.28 C60.79,90.54 44.05,111.32 35.5,134 C24.37,163.53 23.51,175.81 35.5,205 C44.7,227.39 63.07,247 80.19,261.62 " fill="none" id="osmd-to-wikia" style="stroke:#181818;stroke-width:2.0;"/><polygon fill="#181818" points="84.05,264.85,79.7129,256.0075,80.2147,261.6421,74.5802,262.1439,84.05,264.85" style="stroke:#181818;stroke-width:2.0;"/></g><!--MD5=[d0153a057c52d37a3de2e18f71f32167]
@startuml osm_wikidata

map "**Wikidata item Q7186**" as wikia #ffa2a2 {
  label => Marie Curie
}

map "Wikidata item Q1548496" as wikid #a2d2ff {
  label => Marie-Curie-Gymnasium Dresden
  P138 (named after) => Q7186
}

map "**OSM element**" as osmd #95d5b2 {
  name => Marie-Curie-Gymnasium
  wikidata => Q1548496
}

osmd ..> wikid
wikid ..> wikia
osmd -[bold]-> wikia

@enduml

PlantUML version 1.2022.7(Mon Aug 22 19:01:30 CEST 2022)
(GPL source distribution)
Java Runtime: Java(TM) SE Runtime Environment
JVM: Java HotSpot(TM) 64-Bit Server VM
Default Encoding: Cp1252
Language: it
Country: IT
--></g></svg>