<?xml version="1.0" encoding="UTF-8" standalone="no"?><svg xmlns="http://www.w3.org/2000/svg" xmlns:xlink="http://www.w3.org/1999/xlink" contentStyleType="text/css" height="340px" preserveAspectRatio="none" style="width:409px;height:340px;background:#FFFFFF;" version="1.1" viewBox="0 0 409 340" width="409px" zoomAndPan="magnify"><defs/><g><g id="elem_wikia"><rect fill="#FFA2A2" height="43.2188" style="stroke:#181818;stroke-width:0.5;" width="154" x="21.03" y="290"/><text fill="#000000" font-family="sans-serif" font-size="14" font-weight="bold" lengthAdjust="spacing" textLength="140" x="28.03" y="306.5332">Wikidata item Q7186</text><line style="stroke:#181818;stroke-width:1.0;" x1="21.03" x2="175.03" y1="311.6094" y2="311.6094"/><text fill="#000000" font-family="sans-serif" font-size="14" lengthAdjust="spacing" textLength="30" x="26.03" y="328.1426">label</text><text fill="#000000" font-family="sans-serif" font-size="14" lengthAdjust="spacing" textLength="73" x="66.03" y="328.1426">Marie Curie</text><line style="stroke:#181818;stroke-width:1.0;" x1="61.03" x2="61.03" y1="311.6094" y2="333.2188"/></g><g id="elem_wikib"><rect fill="#FFA2A2" height="43.2188" style="stroke:#181818;stroke-width:0.5;" width="162" x="228.03" y="290"/><text fill="#000000" font-family="sans-serif" font-size="14" font-weight="bold" lengthAdjust="spacing" textLength="148" x="235.03" y="306.5332">Wikidata item Q37463</text><line style="stroke:#181818;stroke-width:1.0;" x1="228.03" x2="390.03" y1="311.6094" y2="311.6094"/><text fill="#000000" font-family="sans-serif" font-size="14" lengthAdjust="spacing" textLength="30" x="233.03" y="328.1426">label</text><text fill="#000000" font-family="sans-serif" font-size="14" lengthAdjust="spacing" textLength="76" x="273.03" y="328.1426">Pierre Curie</text><line style="stroke:#181818;stroke-width:1.0;" x1="268.03" x2="268.03" y1="311.6094" y2="333.2188"/></g><g id="elem_wikic"><rect fill="#FFA2A2" height="86.4375" style="stroke:#181818;stroke-width:0.5;" width="303" x="52.53" y="138"/><text fill="#000000" font-family="sans-serif" font-size="14" lengthAdjust="spacing" textLength="163" x="122.53" y="154.5332">Wikidata item Q11297474</text><line style="stroke:#181818;stroke-width:1.0;" x1="52.53" x2="355.53" y1="159.6094" y2="159.6094"/><text fill="#000000" font-family="sans-serif" font-size="14" lengthAdjust="spacing" textLength="30" x="96.53" y="176.1426">label</text><text fill="#000000" font-family="sans-serif" font-size="14" lengthAdjust="spacing" textLength="143" x="175.53" y="176.1426">Pierre and Marie Curie</text><line style="stroke:#181818;stroke-width:1.0;" x1="170.53" x2="170.53" y1="159.6094" y2="181.2188"/><line style="stroke:#181818;stroke-width:1.0;" x1="52.53" x2="355.53" y1="181.2188" y2="181.2188"/><text fill="#000000" font-family="sans-serif" font-size="14" lengthAdjust="spacing" textLength="108" x="57.53" y="197.752">P31 (instance of)</text><text fill="#000000" font-family="sans-serif" font-size="14" lengthAdjust="spacing" textLength="175" x="175.53" y="197.752">Q3046146 (married couple)</text><line style="stroke:#181818;stroke-width:1.0;" x1="170.53" x2="170.53" y1="181.2188" y2="202.8281"/><line style="stroke:#181818;stroke-width:1.0;" x1="52.53" x2="355.53" y1="202.8281" y2="202.8281"/><text fill="#000000" font-family="sans-serif" font-size="14" lengthAdjust="spacing" textLength="99" x="62.03" y="219.3613">P527 (has part)</text><text fill="#000000" font-family="sans-serif" font-size="14" lengthAdjust="spacing" textLength="98" x="175.53" y="219.3613">Q7186;Q37463</text><line style="stroke:#181818;stroke-width:1.0;" x1="170.53" x2="170.53" y1="202.8281" y2="224.4375"/></g><g id="elem_osmg"><rect fill="#95D5B2" height="64.8281" style="stroke:#181818;stroke-width:0.5;" width="338" x="35.03" y="7"/><text fill="#000000" font-family="sans-serif" font-size="14" font-weight="bold" lengthAdjust="spacing" textLength="94" x="157.03" y="23.5332">OSM element</text><line style="stroke:#181818;stroke-width:1.0;" x1="35.03" x2="373.03" y1="28.6094" y2="28.6094"/><text fill="#000000" font-family="sans-serif" font-size="14" lengthAdjust="spacing" textLength="35" x="101.03" y="45.1426">name</text><text fill="#000000" font-family="sans-serif" font-size="14" lengthAdjust="spacing" textLength="161" x="207.03" y="45.1426">Rue Pierre et Marie Curie</text><line style="stroke:#181818;stroke-width:1.0;" x1="202.03" x2="202.03" y1="28.6094" y2="50.2188"/><line style="stroke:#181818;stroke-width:1.0;" x1="35.03" x2="373.03" y1="50.2188" y2="50.2188"/><text fill="#000000" font-family="sans-serif" font-size="14" lengthAdjust="spacing" textLength="157" x="40.03" y="66.752">name:etymology:wikidata</text><text fill="#000000" font-family="sans-serif" font-size="14" lengthAdjust="spacing" textLength="75" x="207.03" y="66.752">Q11297474</text><line style="stroke:#181818;stroke-width:1.0;" x1="202.03" x2="202.03" y1="50.2188" y2="71.8281"/></g><!--MD5=[b5a20dbd29d595281723a6347a37779b]
link osmg to wikia--><g id="link_osmg_wikia"><path codeLine="19" d="M95.77,74.21 C68.64,88.33 42.8,107.71 27.03,134 C6,169.07 12.98,187.6 27.03,226 C34.9,247.49 50.96,267.27 65.82,282.23 " fill="none" id="osmg-to-wikia" style="stroke:#181818;stroke-width:2.0;"/><polygon fill="#181818" points="69.56,285.93,65.9688,276.7592,66.0031,282.416,60.3464,282.4502,69.56,285.93" style="stroke:#181818;stroke-width:2.0;"/></g><!--MD5=[0c0d4b6b5c3eb05c57cf54d59f267752]
link osmg to wikib--><g id="link_osmg_wikib"><path codeLine="20" d="M312.29,74.21 C339.42,88.33 365.26,107.71 381.03,134 C402.06,169.07 395.22,187.65 381.03,226 C373.11,247.42 357.01,267.07 342.04,281.97 " fill="none" id="osmg-to-wikib" style="stroke:#181818;stroke-width:2.0;"/><polygon fill="#181818" points="338.26,285.65,347.4946,282.2264,341.8382,282.1577,341.9069,276.5012,338.26,285.65" style="stroke:#181818;stroke-width:2.0;"/></g><!--MD5=[4c8e9189d8d8d7fa5b802ed4a7263291]
link osmg to wikic--><g id="link_osmg_wikic"><path codeLine="21" d="M204.03,74.34 C204.03,90.79 204.03,110.73 204.03,128.78 " fill="none" id="osmg-to-wikic" style="stroke:#181818;stroke-width:1.0;"/><polygon fill="#181818" points="204.03,133.81,208.03,124.81,204.03,128.81,200.03,124.81,204.03,133.81" style="stroke:#181818;stroke-width:1.0;"/></g><!--MD5=[d44ffb333fdcbdebfa2dff74d7ef98f2]
link wikic to wikia--><g id="link_wikic_wikia"><path codeLine="23" d="M166.96,226.12 C151.77,244.6 134.65,265.43 121.28,281.71 " fill="none" id="wikic-to-wikia" style="stroke:#181818;stroke-width:1.0;stroke-dasharray:7.0,7.0;"/><polygon fill="#181818" points="117.96,285.75,126.7576,281.3226,121.1285,281.8821,120.569,276.253,117.96,285.75" style="stroke:#181818;stroke-width:1.0;"/></g><!--MD5=[a1773aad14d97ddd291780be15f4b7cb]
link wikic to wikib--><g id="link_wikic_wikib"><path codeLine="24" d="M240.75,226.12 C255.8,244.6 272.75,265.43 286,281.71 " fill="none" id="wikic-to-wikib" style="stroke:#181818;stroke-width:1.0;stroke-dasharray:7.0,7.0;"/><polygon fill="#181818" points="289.29,285.75,286.7191,276.2426,286.137,281.8694,280.5102,281.2873,289.29,285.75" style="stroke:#181818;stroke-width:1.0;"/></g><!--MD5=[faeabda595a133bae6e93fe436f75303]
@startuml part_of

map "**Wikidata item Q7186**" as wikia #ffa2a2 {
  label => Marie Curie
}
map "**Wikidata item Q37463**" as wikib #ffa2a2 {
  label => Pierre Curie
}
map "Wikidata item Q11297474" as wikic #ffa2a2 {
  label => Pierre and Marie Curie
  P31 (instance of) => Q3046146 (married couple)
  P527 (has part) => Q7186;Q37463
}

map "**OSM element**" as osmg #95d5b2 {
  name => Rue Pierre et Marie Curie
  name:etymology:wikidata => Q11297474
}

osmg -[bold]-> wikia
osmg -[bold]-> wikib
osmg - -> wikic

wikic ..> wikia
wikic ..> wikib

@enduml

PlantUML version 1.2022.7(Mon Aug 22 19:01:30 CEST 2022)
(GPL source distribution)
Java Runtime: Java(TM) SE Runtime Environment
JVM: Java HotSpot(TM) 64-Bit Server VM
Default Encoding: Cp1252
Language: it
Country: IT
--></g></svg>