<?xml version="1.0" encoding="UTF-8" standalone="no"?><svg xmlns="http://www.w3.org/2000/svg" xmlns:xlink="http://www.w3.org/1999/xlink" contentStyleType="text/css" height="602px" preserveAspectRatio="none" style="width:1666px;height:602px;background:#FFFFFF;" version="1.1" viewBox="0 0 1666 602" width="1666px" zoomAndPan="magnify"><defs/><g><g id="elem_wikia"><rect fill="#FFA2A2" height="43.2188" style="stroke:#181818;stroke-width:0.5;" width="145" x="803.5" y="269"/><text fill="#000000" font-family="sans-serif" font-size="14" lengthAdjust="spacing" textLength="131" x="810.5" y="285.5332">Wikidata item Q7186</text><line style="stroke:#181818;stroke-width:1.0;" x1="803.5" x2="948.5" y1="290.6094" y2="290.6094"/><text fill="#000000" font-family="sans-serif" font-size="14" lengthAdjust="spacing" textLength="30" x="808.5" y="307.1426">label</text><text fill="#000000" font-family="sans-serif" font-size="14" lengthAdjust="spacing" textLength="73" x="848.5" y="307.1426">Marie Curie</text><line style="stroke:#181818;stroke-width:1.0;" x1="843.5" x2="843.5" y1="290.6094" y2="312.2188"/></g><g id="elem_wikib"><rect fill="#FFA2A2" height="43.2188" style="stroke:#181818;stroke-width:0.5;" width="153" x="1089.5" y="269"/><text fill="#000000" font-family="sans-serif" font-size="14" lengthAdjust="spacing" textLength="139" x="1096.5" y="285.5332">Wikidata item Q37463</text><line style="stroke:#181818;stroke-width:1.0;" x1="1089.5" x2="1242.5" y1="290.6094" y2="290.6094"/><text fill="#000000" font-family="sans-serif" font-size="14" lengthAdjust="spacing" textLength="30" x="1094.5" y="307.1426">label</text><text fill="#000000" font-family="sans-serif" font-size="14" lengthAdjust="spacing" textLength="76" x="1134.5" y="307.1426">Pierre Curie</text><line style="stroke:#181818;stroke-width:1.0;" x1="1129.5" x2="1129.5" y1="290.6094" y2="312.2188"/></g><g id="elem_wikic"><rect fill="#FFA2A2" height="86.4375" style="stroke:#181818;stroke-width:0.5;" width="303" x="1104.5" y="379"/><text fill="#000000" font-family="sans-serif" font-size="14" lengthAdjust="spacing" textLength="163" x="1174.5" y="395.5332">Wikidata item Q11297474</text><line style="stroke:#181818;stroke-width:1.0;" x1="1104.5" x2="1407.5" y1="400.6094" y2="400.6094"/><text fill="#000000" font-family="sans-serif" font-size="14" lengthAdjust="spacing" textLength="30" x="1148.5" y="417.1426">label</text><text fill="#000000" font-family="sans-serif" font-size="14" lengthAdjust="spacing" textLength="143" x="1227.5" y="417.1426">Pierre and Marie Curie</text><line style="stroke:#181818;stroke-width:1.0;" x1="1222.5" x2="1222.5" y1="400.6094" y2="422.2188"/><line style="stroke:#181818;stroke-width:1.0;" x1="1104.5" x2="1407.5" y1="422.2188" y2="422.2188"/><text fill="#000000" font-family="sans-serif" font-size="14" lengthAdjust="spacing" textLength="108" x="1109.5" y="438.752">P31 (instance of)</text><text fill="#000000" font-family="sans-serif" font-size="14" lengthAdjust="spacing" textLength="175" x="1227.5" y="438.752">Q3046146 (married couple)</text><line style="stroke:#181818;stroke-width:1.0;" x1="1222.5" x2="1222.5" y1="422.2188" y2="443.8281"/><line style="stroke:#181818;stroke-width:1.0;" x1="1104.5" x2="1407.5" y1="443.8281" y2="443.8281"/><text fill="#000000" font-family="sans-serif" font-size="14" font-weight="bold" lengthAdjust="spacing" textLength="104" x="1111.5" y="460.3613">P527 (has part)</text><text fill="#000000" font-family="sans-serif" font-size="14" lengthAdjust="spacing" textLength="98" x="1227.5" y="460.3613">Q7186;Q37463</text><line style="stroke:#181818;stroke-width:1.0;" x1="1222.5" x2="1222.5" y1="443.8281" y2="465.4375"/></g><g id="elem_wikid"><rect fill="#A2D2FF" height="64.8281" style="stroke:#181818;stroke-width:0.5;" width="362" x="285" y="389.5"/><text fill="#000000" font-family="sans-serif" font-size="14" lengthAdjust="spacing" textLength="155" x="388.5" y="406.0332">Wikidata item Q1548496</text><line style="stroke:#181818;stroke-width:1.0;" x1="285" x2="647" y1="411.1094" y2="411.1094"/><text fill="#000000" font-family="sans-serif" font-size="14" lengthAdjust="spacing" textLength="30" x="340.5" y="427.6426">label</text><text fill="#000000" font-family="sans-serif" font-size="14" lengthAdjust="spacing" textLength="211" x="431" y="427.6426">Marie-Curie-Gymnasium Dresden</text><line style="stroke:#181818;stroke-width:1.0;" x1="426" x2="426" y1="411.1094" y2="432.7188"/><line style="stroke:#181818;stroke-width:1.0;" x1="285" x2="647" y1="432.7188" y2="432.7188"/><text fill="#000000" font-family="sans-serif" font-size="14" font-weight="bold" lengthAdjust="spacing" textLength="131" x="290" y="449.252">P138 (named after)</text><text fill="#000000" font-family="sans-serif" font-size="14" lengthAdjust="spacing" textLength="43" x="431" y="449.252">Q7186</text><line style="stroke:#181818;stroke-width:1.0;" x1="426" x2="426" y1="432.7188" y2="454.3281"/></g><g id="elem_wikie"><rect fill="#A2D2FF" height="64.8281" style="stroke:#181818;stroke-width:0.5;" width="374" x="7" y="138"/><text fill="#000000" font-family="sans-serif" font-size="14" lengthAdjust="spacing" textLength="163" x="112.5" y="154.5332">Wikidata item Q96391995</text><line style="stroke:#181818;stroke-width:1.0;" x1="7" x2="381" y1="159.6094" y2="159.6094"/><text fill="#000000" font-family="sans-serif" font-size="14" lengthAdjust="spacing" textLength="30" x="74" y="176.1426">label</text><text fill="#000000" font-family="sans-serif" font-size="14" lengthAdjust="spacing" textLength="200" x="176" y="176.1426">Marie Curie Monument in Lublin</text><line style="stroke:#181818;stroke-width:1.0;" x1="171" x2="171" y1="159.6094" y2="181.2188"/><line style="stroke:#181818;stroke-width:1.0;" x1="7" x2="381" y1="181.2188" y2="181.2188"/><text fill="#000000" font-family="sans-serif" font-size="14" font-weight="bold" lengthAdjust="spacing" textLength="154" x="12" y="197.752">P547 (commemorates)</text><text fill="#000000" font-family="sans-serif" font-size="14" lengthAdjust="spacing" textLength="43" x="176" y="197.752">Q7186</text><line style="stroke:#181818;stroke-width:1.0;" x1="171" x2="171" y1="181.2188" y2="202.8281"/></g><g id="elem_wikif"><rect fill="#A2D2FF" height="43.2188" style="stroke:#181818;stroke-width:0.5;" width="198" x="432" y="148.5"/><text fill="#000000" font-family="sans-serif" font-size="14" lengthAdjust="spacing" textLength="100" x="481" y="165.0332">Wikidata item ...</text><line style="stroke:#181818;stroke-width:1.0;" x1="432" x2="630" y1="170.1094" y2="170.1094"/><text fill="#000000" font-family="sans-serif" font-size="14" font-weight="bold" lengthAdjust="spacing" textLength="135" x="437" y="186.6426">P825 (dedicated to)</text><text fill="#000000" font-family="sans-serif" font-size="14" lengthAdjust="spacing" textLength="43" x="582" y="186.6426">Q7186</text><line style="stroke:#181818;stroke-width:1.0;" x1="577" x2="577" y1="170.1094" y2="191.7188"/></g><g id="elem_osma"><rect fill="#95D5B2" height="64.8281" style="stroke:#181818;stroke-width:0.5;" width="389" x="681.5" y="138"/><text fill="#000000" font-family="sans-serif" font-size="14" lengthAdjust="spacing" textLength="98" x="827" y="154.5332">OSM element A</text><line style="stroke:#181818;stroke-width:1.0;" x1="681.5" x2="1070.5" y1="159.6094" y2="159.6094"/><text fill="#000000" font-family="sans-serif" font-size="14" lengthAdjust="spacing" textLength="35" x="756" y="176.1426">name</text><text fill="#000000" font-family="sans-serif" font-size="14" lengthAdjust="spacing" textLength="195" x="870.5" y="176.1426">Marie Curie Elementary School</text><line style="stroke:#181818;stroke-width:1.0;" x1="865.5" x2="865.5" y1="159.6094" y2="181.2188"/><line style="stroke:#181818;stroke-width:1.0;" x1="681.5" x2="1070.5" y1="181.2188" y2="181.2188"/><text fill="#000000" font-family="sans-serif" font-size="14" font-weight="bold" lengthAdjust="spacing" textLength="174" x="686.5" y="197.752">name:etymology:wikidata</text><text fill="#000000" font-family="sans-serif" font-size="14" lengthAdjust="spacing" textLength="43" x="870.5" y="197.752">Q7186</text><line style="stroke:#181818;stroke-width:1.0;" x1="865.5" x2="865.5" y1="181.2188" y2="202.8281"/></g><g id="elem_osmb"><rect fill="#95D5B2" height="64.8281" style="stroke:#181818;stroke-width:0.5;" width="286" x="1122" y="138"/><text fill="#000000" font-family="sans-serif" font-size="14" lengthAdjust="spacing" textLength="98" x="1216" y="154.5332">OSM element B</text><line style="stroke:#181818;stroke-width:1.0;" x1="1122" x2="1408" y1="159.6094" y2="159.6094"/><text fill="#000000" font-family="sans-serif" font-size="14" lengthAdjust="spacing" textLength="35" x="1166" y="176.1426">name</text><text fill="#000000" font-family="sans-serif" font-size="14" lengthAdjust="spacing" textLength="153" x="1250" y="176.1426">Marii Skłodowskiej-Curie</text><line style="stroke:#181818;stroke-width:1.0;" x1="1245" x2="1245" y1="159.6094" y2="181.2188"/><line style="stroke:#181818;stroke-width:1.0;" x1="1122" x2="1408" y1="181.2188" y2="181.2188"/><text fill="#000000" font-family="sans-serif" font-size="14" font-weight="bold" lengthAdjust="spacing" textLength="113" x="1127" y="197.752">subject:wikidata</text><text fill="#000000" font-family="sans-serif" font-size="14" lengthAdjust="spacing" textLength="43" x="1250" y="197.752">Q7186</text><line style="stroke:#181818;stroke-width:1.0;" x1="1245" x2="1245" y1="181.2188" y2="202.8281"/></g><g id="elem_osmc"><rect fill="#95D5B2" height="64.8281" style="stroke:#181818;stroke-width:0.5;" width="355" x="698.5" y="389.5"/><text fill="#000000" font-family="sans-serif" font-size="14" lengthAdjust="spacing" textLength="99" x="826.5" y="406.0332">OSM element C</text><line style="stroke:#181818;stroke-width:1.0;" x1="698.5" x2="1053.5" y1="411.1094" y2="411.1094"/><text fill="#000000" font-family="sans-serif" font-size="14" lengthAdjust="spacing" textLength="35" x="773" y="427.6426">name</text><text fill="#000000" font-family="sans-serif" font-size="14" lengthAdjust="spacing" textLength="161" x="887.5" y="427.6426">Rue Marie et Pierre Curie</text><line style="stroke:#181818;stroke-width:1.0;" x1="882.5" x2="882.5" y1="411.1094" y2="432.7188"/><line style="stroke:#181818;stroke-width:1.0;" x1="698.5" x2="1053.5" y1="432.7188" y2="432.7188"/><text fill="#000000" font-family="sans-serif" font-size="14" font-weight="bold" lengthAdjust="spacing" textLength="174" x="703.5" y="449.252">name:etymology:wikidata</text><text fill="#000000" font-family="sans-serif" font-size="14" lengthAdjust="spacing" textLength="98" x="887.5" y="449.252">Q7186;Q37463</text><line style="stroke:#181818;stroke-width:1.0;" x1="882.5" x2="882.5" y1="432.7188" y2="454.3281"/></g><g id="elem_osmd"><rect fill="#95D5B2" height="64.8281" style="stroke:#181818;stroke-width:0.5;" width="230" x="351" y="531"/><text fill="#000000" font-family="sans-serif" font-size="14" lengthAdjust="spacing" textLength="99" x="416.5" y="547.5332">OSM element D</text><line style="stroke:#181818;stroke-width:1.0;" x1="351" x2="581" y1="552.6094" y2="552.6094"/><text fill="#000000" font-family="sans-serif" font-size="14" lengthAdjust="spacing" textLength="35" x="367" y="569.1426">name</text><text fill="#000000" font-family="sans-serif" font-size="14" lengthAdjust="spacing" textLength="153" x="423" y="569.1426">Marie-Curie-Gymnasium</text><line style="stroke:#181818;stroke-width:1.0;" x1="418" x2="418" y1="552.6094" y2="574.2188"/><line style="stroke:#181818;stroke-width:1.0;" x1="351" x2="581" y1="574.2188" y2="574.2188"/><text fill="#000000" font-family="sans-serif" font-size="14" font-weight="bold" lengthAdjust="spacing" textLength="57" x="356" y="590.752">wikidata</text><text fill="#000000" font-family="sans-serif" font-size="14" lengthAdjust="spacing" textLength="67" x="423" y="590.752">Q1548496</text><line style="stroke:#181818;stroke-width:1.0;" x1="418" x2="418" y1="574.2188" y2="595.8281"/></g><g id="elem_osme"><rect fill="#95D5B2" height="64.8281" style="stroke:#181818;stroke-width:0.5;" width="280" x="54" y="7"/><text fill="#000000" font-family="sans-serif" font-size="14" lengthAdjust="spacing" textLength="98" x="145" y="23.5332">OSM element E</text><line style="stroke:#181818;stroke-width:1.0;" x1="54" x2="334" y1="28.6094" y2="28.6094"/><text fill="#000000" font-family="sans-serif" font-size="14" lengthAdjust="spacing" textLength="35" x="70" y="45.1426">name</text><text fill="#000000" font-family="sans-serif" font-size="14" lengthAdjust="spacing" textLength="203" x="126" y="45.1426">Pomnik Marii Curie-Skłodowskiej</text><line style="stroke:#181818;stroke-width:1.0;" x1="121" x2="121" y1="28.6094" y2="50.2188"/><line style="stroke:#181818;stroke-width:1.0;" x1="54" x2="334" y1="50.2188" y2="50.2188"/><text fill="#000000" font-family="sans-serif" font-size="14" font-weight="bold" lengthAdjust="spacing" textLength="57" x="59" y="66.752">wikidata</text><text fill="#000000" font-family="sans-serif" font-size="14" lengthAdjust="spacing" textLength="75" x="126" y="66.752">Q96391995</text><line style="stroke:#181818;stroke-width:1.0;" x1="121" x2="121" y1="50.2188" y2="71.8281"/></g><g id="elem_osmf"><rect fill="#95D5B2" height="64.8281" style="stroke:#181818;stroke-width:0.5;" width="112" x="475" y="7"/><text fill="#000000" font-family="sans-serif" font-size="14" lengthAdjust="spacing" textLength="98" x="482" y="23.5332">OSM element F</text><line style="stroke:#181818;stroke-width:1.0;" x1="475" x2="587" y1="28.6094" y2="28.6094"/><text fill="#000000" font-family="sans-serif" font-size="14" lengthAdjust="spacing" textLength="35" x="491" y="45.1426">name</text><text fill="#000000" font-family="sans-serif" font-size="14" lengthAdjust="spacing" textLength="12" x="547" y="45.1426">...</text><line style="stroke:#181818;stroke-width:1.0;" x1="542" x2="542" y1="28.6094" y2="50.2188"/><line style="stroke:#181818;stroke-width:1.0;" x1="475" x2="587" y1="50.2188" y2="50.2188"/><text fill="#000000" font-family="sans-serif" font-size="14" font-weight="bold" lengthAdjust="spacing" textLength="57" x="480" y="66.752">wikidata</text><text fill="#000000" font-family="sans-serif" font-size="14" lengthAdjust="spacing" textLength="12" x="547" y="66.752">...</text><line style="stroke:#181818;stroke-width:1.0;" x1="542" x2="542" y1="50.2188" y2="71.8281"/></g><g id="elem_osmg"><rect fill="#95D5B2" height="64.8281" style="stroke:#181818;stroke-width:0.5;" width="355" x="1078.5" y="531"/><text fill="#000000" font-family="sans-serif" font-size="14" lengthAdjust="spacing" textLength="100" x="1206" y="547.5332">OSM element G</text><line style="stroke:#181818;stroke-width:1.0;" x1="1078.5" x2="1433.5" y1="552.6094" y2="552.6094"/><text fill="#000000" font-family="sans-serif" font-size="14" lengthAdjust="spacing" textLength="35" x="1153" y="569.1426">name</text><text fill="#000000" font-family="sans-serif" font-size="14" lengthAdjust="spacing" textLength="161" x="1267.5" y="569.1426">Rue Pierre et Marie Curie</text><line style="stroke:#181818;stroke-width:1.0;" x1="1262.5" x2="1262.5" y1="552.6094" y2="574.2188"/><line style="stroke:#181818;stroke-width:1.0;" x1="1078.5" x2="1433.5" y1="574.2188" y2="574.2188"/><text fill="#000000" font-family="sans-serif" font-size="14" font-weight="bold" lengthAdjust="spacing" textLength="174" x="1083.5" y="590.752">name:etymology:wikidata</text><text fill="#000000" font-family="sans-serif" font-size="14" lengthAdjust="spacing" textLength="75" x="1267.5" y="590.752">Q11297474</text><line style="stroke:#181818;stroke-width:1.0;" x1="1262.5" x2="1262.5" y1="574.2188" y2="595.8281"/></g><g id="elem_osmh"><rect fill="#95D5B2" height="64.8281" style="stroke:#181818;stroke-width:0.5;" width="200" x="1459" y="138"/><text fill="#000000" font-family="sans-serif" font-size="14" lengthAdjust="spacing" textLength="98" x="1510" y="154.5332">OSM element H</text><line style="stroke:#181818;stroke-width:1.0;" x1="1459" x2="1659" y1="159.6094" y2="159.6094"/><text fill="#000000" font-family="sans-serif" font-size="14" lengthAdjust="spacing" textLength="35" x="1500" y="176.1426">name</text><text fill="#000000" font-family="sans-serif" font-size="14" lengthAdjust="spacing" textLength="73" x="1581" y="176.1426">Marie Curie</text><line style="stroke:#181818;stroke-width:1.0;" x1="1576" x2="1576" y1="159.6094" y2="181.2188"/><line style="stroke:#181818;stroke-width:1.0;" x1="1459" x2="1659" y1="181.2188" y2="181.2188"/><text fill="#000000" font-family="sans-serif" font-size="14" font-weight="bold" lengthAdjust="spacing" textLength="107" x="1464" y="197.752">buried:wikidata</text><text fill="#000000" font-family="sans-serif" font-size="14" lengthAdjust="spacing" textLength="43" x="1581" y="197.752">Q7186</text><line style="stroke:#181818;stroke-width:1.0;" x1="1576" x2="1576" y1="181.2188" y2="202.8281"/></g><g id="elem_GMN30"><path d="M415.5,277 L415.5,303.3516 A0,0 0 0 0 415.5,303.3516 L760.5,303.3516 A0,0 0 0 0 760.5,303.3516 L760.5,295 L795.37,290 L760.5,287 L760.5,287 L750.5,277 L415.5,277 A0,0 0 0 0 415.5,277 " fill="#FEFFDD" style="stroke:#181818;stroke-width:0.5;"/><path d="M750.5,277 L750.5,287 L760.5,287 L750.5,277 " fill="#FEFFDD" style="stroke:#181818;stroke-width:0.5;"/><text fill="#000000" font-family="sans-serif" font-size="13" lengthAdjust="spacing" textLength="324" x="421.5" y="295.4951">Etymology for OSM elements A, B, C, D, E, F, G and H</text></g><g id="elem_GMN33"><path d="M1286,277 L1286,286 L1250.61,290 L1286,294 L1286,303.3516 A0,0 0 0 0 1286,303.3516 L1530,303.3516 A0,0 0 0 0 1530,303.3516 L1530,287 L1520,277 L1286,277 A0,0 0 0 0 1286,277 " fill="#FEFFDD" style="stroke:#181818;stroke-width:0.5;"/><path d="M1520,277 L1520,287 L1530,287 L1520,277 " fill="#FEFFDD" style="stroke:#181818;stroke-width:0.5;"/><text fill="#000000" font-family="sans-serif" font-size="13" lengthAdjust="spacing" textLength="223" x="1292" y="295.4951">Etymology for OSM elements C and G</text></g><g id="elem_GMN36"><path d="M1450.5,408 L1450.5,417 L1415.63,421 L1450.5,425 L1450.5,434.3516 A0,0 0 0 0 1450.5,434.3516 L1649.5,434.3516 A0,0 0 0 0 1649.5,434.3516 L1649.5,418 L1639.5,408 L1450.5,408 A0,0 0 0 0 1450.5,408 " fill="#FEFFDD" style="stroke:#181818;stroke-width:0.5;"/><path d="M1639.5,408 L1639.5,418 L1649.5,418 L1639.5,408 " fill="#FEFFDD" style="stroke:#181818;stroke-width:0.5;"/><text fill="#000000" font-family="sans-serif" font-size="13" lengthAdjust="spacing" textLength="178" x="1456.5" y="426.4951">Etymology for OSM element G</text></g><!--MD5=[108cf8b8f2d57fafaf19106ca7a3eccc]
link osma to wikia--><g id="link_osma_wikia"><path codeLine="59" d="M876,205.09 C876,222.28 876,242.83 876,259.3 " fill="none" id="osma-to-wikia" style="stroke:#181818;stroke-width:1.0;"/><polygon fill="#181818" points="876,264.71,880,255.71,876,259.71,872,255.71,876,264.71" style="stroke:#181818;stroke-width:1.0;"/></g><!--MD5=[dddb3423e5a18a7bb086d4d2357a4ea0]
link osmb to wikia--><g id="link_osmb_wikia"><path codeLine="60" d="M1151.7,205.01 C1090.41,223.68 1016.02,246.35 959.96,263.42 " fill="none" id="osmb-to-wikia" style="stroke:#181818;stroke-width:1.0;"/><polygon fill="#181818" points="954.93,264.96,964.7049,266.1651,959.7132,263.5036,962.3747,258.512,954.93,264.96" style="stroke:#181818;stroke-width:1.0;"/></g><!--MD5=[06ebdabef68391eab3ccf02ffb966745]
link osmh to wikia--><g id="link_osmh_wikia"><path codeLine="61" d="M1450.79,201.22 C1445.13,202.56 1439.51,203.83 1434,205 C1345.66,223.77 1095.12,259.08 961.84,277.36 " fill="none" id="osmh-to-wikia" style="stroke:#181818;stroke-width:1.0;"/><polygon fill="#181818" points="956.76,278.06,966.2165,280.8122,961.7145,277.387,965.1397,272.885,956.76,278.06" style="stroke:#181818;stroke-width:1.0;"/></g><!--MD5=[4e5dabc284bdbb8617e2e4e057672881]
reverse link wikia to osmc--><g id="link_wikia_osmc"><path codeLine="62" d="M876,320.52 C876,339.75 876,364.92 876,385.13 " fill="none" id="wikia-backto-osmc" style="stroke:#181818;stroke-width:1.0;"/><polygon fill="#181818" points="876,315.26,872,324.26,876,320.26,880,324.26,876,315.26" style="stroke:#181818;stroke-width:1.0;"/></g><!--MD5=[85e37bab9b94243140f0f017e0df06cc]
reverse link wikib to osmc--><g id="link_wikib_osmc"><path codeLine="63" d="M1107.03,317.23 C1062.83,336.89 1001.92,363.99 953.74,385.42 " fill="none" id="wikib-backto-osmc" style="stroke:#181818;stroke-width:1.0;"/><polygon fill="#181818" points="1111.79,315.11,1101.9412,315.1415,1107.2275,317.1553,1105.2136,322.4415,1111.79,315.11" style="stroke:#181818;stroke-width:1.0;"/></g><!--MD5=[d5cf5a031ad8712ded223e91c7735d3f]
reverse link wikic to osmg--><g id="link_wikic_osmg"><path codeLine="64" d="M1256,472.31 C1256,490.31 1256,510.19 1256,526.6 " fill="none" id="wikic-backto-osmg" style="stroke:#181818;stroke-width:1.0;"/><polygon fill="#181818" points="1256,467.29,1252,476.29,1256,472.29,1260,476.29,1256,467.29" style="stroke:#181818;stroke-width:1.0;"/></g><!--MD5=[9b972fdcd96f13705d7ab36d8bce1138]
reverse link wikid to osmd--><g id="link_wikid_osmd"><path codeLine="66" d="M466,461.94 C466,482.35 466,506.97 466,526.62 " fill="none" id="wikid-backto-osmd" style="stroke:#181818;stroke-width:1.0;"/><polygon fill="#181818" points="466,456.84,462,465.84,466,461.84,470,465.84,466,456.84" style="stroke:#181818;stroke-width:1.0;"/></g><!--MD5=[9a96b9181cc9791ef86648243fa372e7]
link osme to wikie--><g id="link_osme_wikie"><path codeLine="67" d="M194,74.07 C194,90.84 194,111.09 194,128.52 " fill="none" id="osme-to-wikie" style="stroke:#181818;stroke-width:1.0;"/><polygon fill="#181818" points="194,133.83,198,124.83,194,128.83,190,124.83,194,133.83" style="stroke:#181818;stroke-width:1.0;"/></g><!--MD5=[931dd7777aa106d7c8c8639e3874d44d]
link osmf to wikif--><g id="link_osmf_wikif"><path codeLine="68" d="M531,74.07 C531,94.4 531,119.82 531,139.17 " fill="none" id="osmf-to-wikif" style="stroke:#181818;stroke-width:1.0;"/><polygon fill="#181818" points="531,144.46,535,135.46,531,139.46,527,135.46,531,144.46" style="stroke:#181818;stroke-width:1.0;"/></g><!--MD5=[34095cb46468cbfcbd30b72d7a7eba17]
reverse link wikia to wikic--><g id="link_wikia_wikic"><path codeLine="70" d="M952.02,316.81 C1001.02,333.44 1066.07,355.52 1123.41,374.99 " fill="none" id="wikia-backto-wikic" style="stroke:#181818;stroke-width:1.0;"/><polygon fill="#181818" points="947.03,315.11,954.2612,321.7966,951.7633,316.721,956.8389,314.2232,947.03,315.11" style="stroke:#181818;stroke-width:1.0;"/></g><!--MD5=[04c31e11bdc7b731487a1da5eefcc457]
reverse link wikib to wikic--><g id="link_wikib_wikic"><path codeLine="71" d="M1186.04,319.72 C1197.36,335.96 1211.78,356.62 1224.58,374.96 " fill="none" id="wikib-backto-wikic" style="stroke:#181818;stroke-width:1.0;"/><polygon fill="#181818" points="1182.93,315.26,1184.8165,324.9265,1185.7983,319.3555,1191.3693,320.3373,1182.93,315.26" style="stroke:#181818;stroke-width:1.0;"/></g><!--MD5=[332ddb7836cfe0a13f36d31ffffbff47]
reverse link wikia to wikid--><g id="link_wikia_wikid"><path codeLine="72" d="M794.52,316.64 C731.88,336.34 644.72,363.77 575.91,385.42 " fill="none" id="wikia-backto-wikid" style="stroke:#181818;stroke-width:1.0;"/><polygon fill="#181818" points="799.36,315.11,789.5747,313.9932,794.5901,316.6095,791.9739,321.625,799.36,315.11" style="stroke:#181818;stroke-width:1.0;"/></g><!--MD5=[3a32191a8c68aaf8ba1591b8a3fdd2d8]
link wikie to wikia--><g id="link_wikie_wikia"><path codeLine="73" d="M389.22,202.28 C394.88,203.2 400.48,204.11 406,205 C571.31,231.78 613.87,231.72 778,265 C782.07,265.83 786.23,266.7 790.42,267.62 " fill="none" id="wikie-to-wikia" style="stroke:#181818;stroke-width:1.0;"/><polygon fill="#181818" points="795.36,268.71,787.442,262.8529,790.4791,267.6253,785.7066,270.6624,795.36,268.71" style="stroke:#181818;stroke-width:1.0;"/></g><!--MD5=[85b77700329e0ee9ddcc1cabb8e8edcd]
link wikif to wikia--><g id="link_wikif_wikia"><path codeLine="74" d="M601.23,194.62 C659.3,214.57 741.55,242.82 800.92,263.21 " fill="none" id="wikif-to-wikia" style="stroke:#181818;stroke-width:1.0;"/><polygon fill="#181818" points="805.87,264.91,798.6631,258.1973,801.1425,263.2818,796.058,265.7612,805.87,264.91" style="stroke:#181818;stroke-width:1.0;"/></g><!--MD5=[6120a5e751768be3ed6c2d943392c830]
@startuml tags

map "Wikidata item Q7186" as wikia #ffa2a2 {
  label => Marie Curie
}
map "Wikidata item Q37463" as wikib #ffa2a2 {
  label => Pierre Curie
}
map "Wikidata item Q11297474" as wikic #ffa2a2 {
  label => Pierre and Marie Curie
  P31 (instance of) => Q3046146 (married couple)
  **P527 (has part)** => Q7186;Q37463
}

map "Wikidata item Q1548496" as wikid #a2d2ff {
  label => Marie-Curie-Gymnasium Dresden
  **P138 (named after)** => Q7186
}
map "Wikidata item Q96391995" as wikie #a2d2ff {
  label => Marie Curie Monument in Lublin
  **P547 (commemorates)** => Q7186
}
map "Wikidata item ..." as wikif #a2d2ff {
  **P825 (dedicated to)** => Q7186
}

map "OSM element A" as osma #95d5b2 {
  name => Marie Curie Elementary School
  **name:etymology:wikidata** => Q7186
}
map "OSM element B" as osmb #95d5b2 {
  name => Marii Skłodowskiej-Curie
  **subject:wikidata** => Q7186
}
map "OSM element C" as osmc #95d5b2 {
  name => Rue Marie et Pierre Curie
  **name:etymology:wikidata** => Q7186;Q37463
}
map "OSM element D" as osmd #95d5b2 {
  name => Marie-Curie-Gymnasium
  **wikidata** => Q1548496
}
map "OSM element E" as osme #95d5b2 {
  name => Pomnik Marii Curie-Skłodowskiej
  **wikidata** => Q96391995
}
map "OSM element F" as osmf #95d5b2 {
  name => ...
  **wikidata** => ...
}
map "OSM element G" as osmg #95d5b2 {
  name => Rue Pierre et Marie Curie
  **name:etymology:wikidata** => Q11297474
}
map "OSM element H" as osmh #95d5b2 {
  name => Marie Curie
  **buried:wikidata** => Q7186
}

osma - -> wikia
osmb - -> wikia
osmh - -> wikia
wikia <- - osmc
wikib <- - osmc
wikic <- - osmg

wikid <- - osmd
osme - -> wikie
osmf - -> wikif

wikia <- - wikic
wikib <- - wikic
wikia <- - wikid
wikie - -> wikia
wikif - -> wikia

note left of wikia: Etymology for OSM elements A, B, C, D, E, F, G and H
note right of wikib: Etymology for OSM elements C and G
note right of wikic: Etymology for OSM element G


@enduml

PlantUML version 1.2022.7(Mon Aug 22 19:01:30 CEST 2022)
(GPL source distribution)
Java Runtime: Java(TM) SE Runtime Environment
JVM: Java HotSpot(TM) 64-Bit Server VM
Default Encoding: Cp1252
Language: it
Country: IT
--></g></svg>